<svg xmlns="http://www.w3.org/2000/svg" viewBox="0 0 475 324">
  <g id="Columns">
    <g>
      <path d="M388.47,153.4c.08-20.9.47-41.8.94-62.7V67.92a.89.89,0,0,0-.29-.66,1,1,0,0,0-1.71.66c.16,18.68-.26,37.35-.7,56-.12,18.18-.39,36.36-.38,54.55.27,36.64,2,73.32.39,110-.13,3.08-.38,6.15-.55,9.22-.06,1-.42,2.51,1.18,2.33,1.24-.39.62-2.2.86-3.14.29-4.14.51-8.29.71-12.43C390.43,240.75,387.67,197.07,388.47,153.4Z" style="fill: #ff6496"/>
      <g>
        <path d="M368.25,28c-1.5-2.18-5.57-3.31-6.62-4.37l.42-.25c.08-.05.29-.15.44-.22a8.1,8.1,0,0,1,4.71-.27c.24.12.91.41,1.12.25a1,1,0,0,0,.24-1.83,5.33,5.33,0,0,0-2.76-.65,11.43,11.43,0,0,0-4.15.7c-1.06.47-2.58,1.35-2.07,2.72s1.91,1.91,3.09,2.5c2.13,1,3.56,1.79,4.27,3.05s.71,1.69-.22,2.65c-.89,1.12-3.06,1.23-4.49,1a4.55,4.55,0,0,1-.56-.16l-.14-.08-.06-.12a2.81,2.81,0,0,1-.08-.31v-.11c0-.2,0-.11.16-.74a1,1,0,0,0-1.47-1.13,2.68,2.68,0,0,0-.6,2.6c.43,2.16,3,2.22,4.81,2.08a5.68,5.68,0,0,0,4.87-3A4.4,4.4,0,0,0,368.25,28Z" style="fill: #ff6496"/>
        <path d="M376.2,28.48a3.51,3.51,0,0,0-2.06.25.92.92,0,0,0-.37.93c-1.95.88-3.71,2.78-3.31,5a3.55,3.55,0,0,0,5,2.19,6.09,6.09,0,0,0,4.27-5.68C379.61,29.49,377.72,28.63,376.2,28.48Zm-1.62,6.59c-1.31.29-1.57.25-2.15-.74,0,0,0,0,0-.08v0c-.2-.76.76-1.86,1.16-2.12.84-.69.76-.44,1.75-1a.85.85,0,0,0,.38-.7l.33,0h0a2.76,2.76,0,0,1,1.42.52,2,2,0,0,1,.26.25l0,.06a3.24,3.24,0,0,1-.12.72A4,4,0,0,1,374.58,35.07Z" style="fill: #ff6496"/>
        <path d="M387.66,35.17c-3.14,1.63-5.31-.24-3-2.48a3.2,3.2,0,0,1,2.43-.92,1,1,0,0,0,0-2,5.49,5.49,0,0,0-4.92,2.88c-1.48,3.13,1,5.64,4.18,5.05a8.67,8.67,0,0,0,2.34-.81,1,1,0,0,0,.46-.59A1,1,0,0,0,387.66,35.17Z" style="fill: #ff6496"/>
        <path d="M392.57,34.48a30.06,30.06,0,0,0-.1-3.56,1,1,0,0,0-1.91.39,38.38,38.38,0,0,0,.16,5.26,1,1,0,0,0,1.77.12C392.79,36,392.51,35.21,392.57,34.48Z" style="fill: #ff6496"/>
        <path d="M391.83,25a1,1,0,0,0,0,2A1,1,0,0,0,391.83,25Z" style="fill: #ff6496"/>
        <path d="M404.63,34.62a1.24,1.24,0,0,0-1.09-.54,2.24,2.24,0,0,1-.37-.1l-.07,0-.09-.09a3.28,3.28,0,0,1-.2-.31s0,0,0-.08l0-.06s0-.11,0-.17c-.06-.5.07-1.09-.26-1.51a1,1,0,0,0-1-.36,1,1,0,0,0-1-1.19c-2.33-.07-6,2.34-4.56,4.95a3.19,3.19,0,0,0,3.79,1.16A4.42,4.42,0,0,0,401.34,35a2.67,2.67,0,0,0,.68.66,2.76,2.76,0,0,0,2.26.36A1,1,0,0,0,404.63,34.62Zm-6-.12c-.67-.13-.66,0-1-.52v0c.16-.72,1.21-1.39,1.92-1.66l.13,0c.32,0,.64,0,.95-.1l-.06.18a11.53,11.53,0,0,1-.74,1.33C399.42,34.18,399,34.57,398.61,34.5Z" style="fill: #ff6496"/>
        <path d="M409.19,34.27c-.1-1.57-.05-3.14-.05-4.71q0-3.27.13-6.54a1,1,0,0,0-.3-.7,1,1,0,0,0-1.7.7c-.16,3-.13,6-.14,9.05a21.33,21.33,0,0,0,.22,3.57,1,1,0,0,0,.83.71C409.76,36.38,409.19,34.82,409.19,34.27Z" style="fill: #ff6496"/>
        <path d="M355,49.27c0-2.23-.06-4.46-.13-6.69a.93.93,0,0,0-.29-.7,1,1,0,0,0-1.71.7c.11,4.55.38,8.34-.47,12.32a1,1,0,0,0,1,.86c1,0,1-1.1,1.19-1.83A19.74,19.74,0,0,0,355,49.27Z" style="fill: #ff6496"/>
        <path d="M360.94,38.93c-3.67-3.35-7.95,1.39-9.1,4.88a1,1,0,0,0,1.85.64c1.16-3,3.62-5.06,4.83-4.64a3.87,3.87,0,0,1-.06,7.36,2.86,2.86,0,0,1-1.22,0h0c-.41-.09-.87-.28-1.27,0a1,1,0,0,0-.2,1.57,3.86,3.86,0,0,0,2.27.49,5.94,5.94,0,0,0,4.87-4A5.82,5.82,0,0,0,360.94,38.93Z" style="fill: #ff6496"/>
        <path d="M369.16,46.8c-.73-.13-1.4.41-2,.72a5.41,5.41,0,0,0-1.81,1.58.89.89,0,0,0-.32-.32,1,1,0,0,0-1.47,1.13c.3,1.52.57,3.05.88,4.57a1,1,0,0,0,2-.27c0-3-.05-4,1.9-5.05.43-.32,1-.37,1.39-.79A1,1,0,0,0,369.16,46.8Z" style="fill: #ff6496"/>
        <path d="M375.23,48.62a4.93,4.93,0,0,0-.92.5c-2.11.71-4.24,2.2-4.42,4.53.47,3.62,3.74,3.83,6.54,2.54A5,5,0,0,0,379,52C378.75,49.82,377.71,47.86,375.23,48.62ZM373,54.9l-.27-.06-.12-.08h0a1.94,1.94,0,0,1-.25-.27c-.21-.3-.47-.87-.27-.42-.46-.6.44-1.57.86-1.94a5.86,5.86,0,0,1,1.21-.77.94.94,0,0,0,1-.23l.21-.2a8.12,8.12,0,0,0,.94-.35.76.76,0,0,0,.09-.09h.05l.12.07,0,0h0l0,0a2.09,2.09,0,0,1,.08.23c.27.76.37.94.35,1.26C376.44,54.37,375.47,54.83,373,54.9Z" style="fill: #ff6496"/>
        <path d="M387,47.3c-.66,0-1,.61-1.11,1.16a36.29,36.29,0,0,0-1.11,3.64,4.26,4.26,0,0,1-.19.65,14.31,14.31,0,0,1-1.6-3.08c-.18-.41-.25-.92-.67-1.16a1,1,0,0,0-1.47,1.13c.65,1.71,2.9,7.71,5.21,4.78a25.45,25.45,0,0,0,1.2-3.77,14,14,0,0,0,.73-2.48A1,1,0,0,0,387,47.3Z" style="fill: #ff6496"/>
        <path d="M391.64,48.72a1,1,0,0,0-1.91.38v4.59a.93.93,0,0,0,.29.7,1,1,0,0,0,1.71-.7C391.65,52,391.87,50.34,391.64,48.72Z" style="fill: #ff6496"/>
        <path d="M391.13,42.94a1,1,0,0,0,0,2A1,1,0,0,0,391.13,42.94Z" style="fill: #ff6496"/>
        <path d="M404.84,52c-1.1-.35-.89.14-1.67-.14l-.27-.16a3.37,3.37,0,0,1-.91-2.19,6.91,6.91,0,0,1-.07-1.08c.19-1.22.38-2.45.51-3.68,0-.59.29-1.24,0-1.79a1,1,0,0,0-.87-.5,1,1,0,0,0-.38.09,1,1,0,0,0-.19.08c-1,.67-.8,2.06-.93,3.1a21.16,21.16,0,0,0-.14,2.85c-.08.49-.15,1-.24,1.44a.8.8,0,0,0-.27,0c-2.48-.45-6.42,1-5,4,1,1.76,3.63,1.89,5.14.72a4.12,4.12,0,0,0,1.5-2,3.36,3.36,0,0,0,2.17,1.24,2.52,2.52,0,0,0,1.71-.26A1,1,0,0,0,404.84,52Zm-7.11,1.43c-.88.22-1.52-.18-1.61-.53.15-.43.29-.53.92-.78a4.82,4.82,0,0,1,2.11-.17C398.81,52.84,398.36,53.42,397.73,53.46Z" style="fill: #ff6496"/>
        <path d="M412.2,52.41c-1.24,0-1.26.54-2.37.71-1.67.52-2.05.14-2.52-.38a1.58,1.58,0,0,1-.12-1.32.92.92,0,0,0,.95-.25c.95-.92,2.1-1.83,2.3-3.21a1,1,0,0,0-.66-1.39c-1.55-.65-2.6.84-3.37,2-3.08,4-.26,8.32,4.59,6.33a4.61,4.61,0,0,0,1.72-.88A1,1,0,0,0,412.2,52.41Z" style="fill: #ff6496"/>
        <path d="M420.32,46.73c-.26-.75-1.2-1-1.9-1.11-1.31,0-2.36,1.41-3.07,2.92h0a1,1,0,0,0-1.71.71,41.27,41.27,0,0,0,.24,4.16,1,1,0,0,0,.49.86,1.19,1.19,0,0,0,1.59-.55c.54-1.52.31-2.75,1.14-4.17a6.86,6.86,0,0,1,1.28-1.9l.14,0a2.13,2.13,0,0,0,.72.29A1,1,0,0,0,420.32,46.73Z" style="fill: #ff6496"/>
      </g>
    </g>
    <g>
      <path d="M83.94,57.47a1,1,0,0,0-1.9.45c.63,43.33,1.74,86.64,2.09,130,.1,20.83.1,41.65.26,62.47.19,13.37.82,26.74.47,40.12-.06,3.33-.11,6.67-.23,10,.07,1.1-.63,2.92.94,3.05,1.47-.18.87-2.08,1.06-3.11.12-3.48.18-7,.24-10.47.39-15.06-.5-30.11-.51-45.17-.21-42.74-.26-85.48-1.27-128.21-.49-15.91-.61-31.83-.86-47.76C84.09,65.05,84.26,61.21,83.94,57.47Z"/>
      <g>
        <path d="M55.75,25.66c-.58-.52-1.45-.22-2.17-.29-4.45-.16-10.55.31-12.2,5.27-.35,1.57.32,3.12.48,4.68s.23,4.14.44,6.44c.12,1.3.26,2.6.49,3.89a1,1,0,0,0,.46.6,1,1,0,0,0,1.5-.87,112.82,112.82,0,0,0,0-11.63.93.93,0,0,0-1.26-.52c-.07-.41-.16-.81-.25-1.21,0-.16,0-.49,0-.71s.1-.37.14-.52a5.47,5.47,0,0,1,1.84-2c2.8-1.88,6.07-1.2,10.17-1.52A1,1,0,0,0,55.75,25.66Z"/>
        <path d="M52.41,34c-.54-.32-1.11,0-1.65.18a33.59,33.59,0,0,1-4.34.84c-.24,0-1.23.16-1.45.15-.68.09-1.52-.17-2.07.33a1,1,0,0,0,.71,1.71,32.81,32.81,0,0,0,7.69-1.1c.5-.2,1.17-.22,1.47-.74A1,1,0,0,0,52.41,34Z"/>
        <path d="M62.9,37.12a4.39,4.39,0,0,0-2.78-1.84c-2-.38-3.09,1-3.71,2.65a1,1,0,0,0-.63.92c0,.4,0,.81,0,1.21a7.19,7.19,0,0,0,.07,4.43,1,1,0,0,0,1.94-.36c0-.11,0-.05,0,0a29.37,29.37,0,0,0,0-4c.4-1.8,1.14-3.31,1.94-3,.74.2.87.48,1.79,1.07A1,1,0,0,0,62.9,37.12Z"/>
        <path d="M67.8,36.82a1,1,0,0,0-.83,1.6c-2.2,1-4.24,3.71-2.54,5.85a4.47,4.47,0,0,0,5.74.2C72.69,42.36,71.5,36.51,67.8,36.82ZM66,43l-.09-.08-.08-.13a.64.64,0,0,0,0-.07c0-.09,0-.23,0-.32a1.7,1.7,0,0,1,.34-.86l.07-.09a6.44,6.44,0,0,1,.64-.64l.16-.14.27-.19a1.75,1.75,0,0,1,.25-.16,4,4,0,0,0,1.07-.42.83.83,0,0,0,.36-.54,4,4,0,0,1,.42,1C70,42.76,68.13,44.18,66,43Z"/>
        <path d="M82,43.81s0,0,0,0-.13-.56-.13-.71-.23-3.73-1.43-4.51c-1.5-1.21-2.84,0-3.82,1.34a4.14,4.14,0,0,0-.08-.87,1,1,0,0,0-1.91.38c.08,1.33-.47,3,.22,4.16a1,1,0,0,0,1.57.2c1.22-1.25,1.49-2.71,2.46-3.47l.16-.13.1-.07.08,0,.08.13a.68.68,0,0,1,0,.13A11.14,11.14,0,0,1,79.87,43a3.56,3.56,0,0,0,.73,2.24C81.53,46.33,83.1,44.78,82,43.81Z"/>
        <path d="M88.78,41a1,1,0,0,0-1,.73,4.75,4.75,0,0,1-.19.62C87,43.5,87,43.53,86.46,43.72A20.35,20.35,0,0,1,86.88,38c.42-1.89.74-3.8,1.23-5.66a1,1,0,0,0-.1-.77,1,1,0,0,0-1.83.24c-.45,2.52-3.62,13.11-.38,13.92a3.21,3.21,0,0,0,3.31-1.84C89.65,43,90.36,41.15,88.78,41Z"/>
        <path d="M86.5,36.56c-.55-.53-1.35-.16-2-.15-.42.05-.91,0-1.23.34A1,1,0,0,0,84,38.46c.83-.18,1.85,0,2.54-.49A1,1,0,0,0,86.5,36.56Z"/>
        <path d="M98,42.93c-.72-.1-1.41.37-2.15.38-.29.06-1.84,0-2.3-.83a2.2,2.2,0,0,1-.1-1.78,1,1,0,0,0,1.36,0c.91-1,2-2,2.09-3.37a1.05,1.05,0,0,0-.67-1.4c-1.19-.58-2.3.16-3.07,1.07-3.29,3.67-2.1,9.29,3.59,8.22.64-.14,1.46-.19,1.85-.78A1,1,0,0,0,98,42.93Z"/>
        <path d="M109.72,42.34c-.21-.83-.12-3.17-1.22-4.57a2.27,2.27,0,0,0-2.59-.9c-1.44.6-2.2,2.1-2.92,3.39l-.24.42a4.48,4.48,0,0,0-.34-2.54,1,1,0,0,0-1.7.71c.12,1.38-.11,2.9.44,4.2a1.55,1.55,0,0,0,2,.52,3.84,3.84,0,0,0,1-1.44c.81-1.5,1.78-3.15,2.27-3.34l0,0h.12l.08,0,0,0h0s0,0,0,0a2.72,2.72,0,0,1,.25.42,3,3,0,0,1,.4,1.09c.05.27.06.32,0,0,.21,1-.1,2.56.82,3.29A1,1,0,0,0,109.72,42.34Z"/>
        <path d="M122.06,42.51a1.6,1.6,0,0,0-.94.12,10.79,10.79,0,0,1-1.43-3.93,22.87,22.87,0,0,1,0-6.34V32.3c.06-.54.12-1.08.18-1.6a7.09,7.09,0,0,0,.14-1.18,1.53,1.53,0,0,0,0-.85,1,1,0,0,0-1.18-.58c-.7.2-.75.9-.8,1.54-.17,1.42-.34,2.86-.42,4.31-.11,1.12-.24,2.25-.39,3.32-3.59-2-6.48.56-6,4.54a3.93,3.93,0,0,0,3.93,3c1.66-.19,2.63-1.59,3.22-3.34a11.89,11.89,0,0,0,1,2.16,2.15,2.15,0,0,0,3.08.67A1,1,0,0,0,122.06,42.51Zm-7.53.2c-1.08-.48-1.59-.65-1.34-2.52.12-.68.61-1.8,1.57-1.61,1,0,.75.25,2,.69C116.33,41.57,115.64,43.14,114.53,42.71Z"/>
      </g>
    </g>
    <g>
      <path d="M238.91,69.74l.51-8a1.05,1.05,0,0,0-.29-.71,1,1,0,0,0-1.71.71c-.65,9.61-1.27,19.22-1.41,28.86-.12,10.14.39,20.27.6,30.41.12,15.24.15,30.49.37,45.74.14,19.44.5,38.89-.09,58.31-.6,21-2,41.9-2.65,62.86-.26,3.31-.29,6.63-.54,9.94-.08.64-.19,1.45.54,1.72,2,.61,1.38-2.6,1.6-3.71.06-2.37.2-4.73.35-7.1.87-24.47,2.41-48.91,3-73.39q0-50.91-.76-101.82A384,384,0,0,1,238.91,69.74Z" style="fill: #106eff"/>
      <g>
        <path d="M197.14,45.11q-.09-9.09-.23-18.18a1,1,0,0,0-2,0q.12,7.65.2,15.28c0,1.47,0,2.95,0,4.43a1,1,0,0,0,1.86.5A6,6,0,0,0,197.14,45.11Z" style="fill: #106eff"/>
        <path d="M209.1,38c-.92-2.46-3.24-3.54-5.49-4,1.92-1.15,3.56-2.95,3.6-5.25-.27-2.69-2.05-3.38-4.49-3.4a13.45,13.45,0,0,0-8.16,2.71c-.43.65-1.23,1.18-1.32,2a1,1,0,0,0,1.71.71c2-3.06,7.53-4,9.76-3,1.63,1.58-.93,4.85-5.3,6a1,1,0,0,0-.52,2c1.4.39,2.94,0,4.38.31,2.77.29,4.62,2.55,4.67,6,.35,3.3-6.64,4.59-10,2.57-.33-.26-.27-.09-.74-1a1,1,0,0,0-1.57-.21c-.81.93.35,2.21,1.09,2.81,3.49,2.1,9.34,1.95,12.16-1.21C210.58,43,209.91,40.11,209.1,38Z" style="fill: #106eff"/>
        <path d="M225.12,42.29a6.45,6.45,0,0,1-2.73,1.44,1.78,1.78,0,0,1-1-.13h0a2.33,2.33,0,0,1-.67-1.07,22.59,22.59,0,0,0,.72-4.44,1.17,1.17,0,0,0-1.91-1.17,6.09,6.09,0,0,0-.3.63c-2.64-.32-5.69.37-7,2.84-1.08,2-1.26,5.11,1.22,6.09a5.06,5.06,0,0,0,5.58-1,6.46,6.46,0,0,0,.65-.75c1.73,1.87,4.94.79,6.74-1A1,1,0,0,0,225.12,42.29Zm-11.43,2c-.43-.57-.29-2,.47-3.24.5-1,3.13-1.81,4.51-1.55a9.27,9.27,0,0,0,0,2.88,3.62,3.62,0,0,1-.76,1.4A3,3,0,0,1,213.69,44.26Z" style="fill: #106eff"/>
        <path d="M232.45,43.22a13.61,13.61,0,0,1-2.61.63c-1.2.26-3.33-.45-3.45-1.47a3.08,3.08,0,0,1,0-1.49c.82-1.19,3.24-2.19,6-1.75a1,1,0,0,0,0-2c-2.84-.43-7.65.64-8,4A3.88,3.88,0,0,0,226.07,45c1.7,1.15,3.88,1,5.78.48.67-.23,1.76-.29,1.85-1.18A1,1,0,0,0,232.45,43.22Z" style="fill: #106eff"/>
        <path d="M244.68,33.05a11.73,11.73,0,0,0-5.8,3.79c.15-2,.18-3.9.23-5.85a1,1,0,0,0-2,0c0,2.78-.25,6.35-.46,9.4a7.19,7.19,0,0,0-.41,5.15,1.12,1.12,0,0,0,2.08-.47c.12-1.4.21-2.81.3-4.21a13.08,13.08,0,0,1,4.39-5,8.87,8.87,0,0,1,2.2-.86,1,1,0,0,0,.59-.46A1,1,0,0,0,244.68,33.05Z" style="fill: #106eff"/>
        <path d="M244.49,42.57c-1.37-1.44-2.66-3-4-4.42a1,1,0,0,0-1.41,1.41c1.68,1.84,3.31,3.73,5.05,5.51a1,1,0,0,0,1.41,0C246.42,44.1,245.08,43.25,244.49,42.57Z" style="fill: #106eff"/>
        <path d="M254.74,42.69c-1.58,1.31-4.6,1.18-5.34.92-.46-.26-.74-.79-.76-1.84a3.94,3.94,0,0,1,.14-1.05c2-.65,4.68-1.86,5-4.11a2,2,0,0,0-1.44-1.71A3.9,3.9,0,0,0,249.26,36c-2.29,2.17-3.95,6.67-1.21,9.1a2.59,2.59,0,0,0,1.39.53,8.62,8.62,0,0,0,4.92-.49c.65-.33,1.58-.58,1.85-1.33A1,1,0,0,0,254.74,42.69Z" style="fill: #106eff"/>
        <path d="M267.73,38.78c-1.39-5.69-5.53-2-7.52,1.35.05-.75.09-1.49.11-2.23a1,1,0,1,0-2,0c0,1.44-.17,2.88-.25,4.32a1.94,1.94,0,0,0,.67,2,1.13,1.13,0,0,0,1.48,0c1-1,1.21-2.47,2-3.57a10.33,10.33,0,0,1,2.4-2.66,2.91,2.91,0,0,1,.5-.16,3,3,0,0,1,.65,1.61,22.69,22.69,0,0,1,0,4.36,1,1,0,0,0,1.71.7,1.23,1.23,0,0,0,.3-.94A19.6,19.6,0,0,0,267.73,38.78Z" style="fill: #106eff"/>
        <g>
          <path d="M284.59,40.25c-.75,0-1.09.82-1.61,1.26-.22.25-1.3,1.17-1.37,1.24a2,2,0,0,1-1.64.52,4.13,4.13,0,0,1-.7-1.17,6.09,6.09,0,0,1-.35-1,16.07,16.07,0,0,0,1-4.36c.06-.62.49-4.46.44-6.13a6.84,6.84,0,0,0-.08-.91h0v0a.93.93,0,0,0-.39-.78,1.59,1.59,0,0,0-1.89.27c-.89,1.06-1,2.56-1.2,3.86a23.1,23.1,0,0,0,.1,7.87c-.09.19-.18.38-.28.57-1.72,3.17-4.78,2.71-5.53,2-.67-1.66,1.06-2.85,3.27-2.91.57,0,1.25.22,1.69-.23a1,1,0,0,0-.71-1.71,7.12,7.12,0,0,0-4.77,1.08,3.72,3.72,0,0,0-1.09,4.94c1.62,1.88,4.95,1.72,6.8.24a7.32,7.32,0,0,0,1.43-1.46A4.08,4.08,0,0,0,279,45c1.68.79,3.54-.22,4.72-1.45.65-.71,1.74-1.32,1.9-2.32A1,1,0,0,0,284.59,40.25Z" style="fill: #106eff"/>
          <path d="M280.24,29.7v0Z" style="fill: #106eff"/>
          <path d="M280.24,29.67h0v0Z" style="fill: #106eff"/>
          <path d="M280.21,29.49a1,1,0,0,1,0,.17h0A.88.88,0,0,0,280.21,29.49Z" style="fill: #106eff"/>
        </g>
      </g>
    </g>
  </g>
  <g id="Arrows">
    <path d="M228.64,77.38c-.38-1.12-1.79-.65-2.69-.74-14.56.12-29.12-.23-43.68-.22-18.65.24-37.3.5-56,.5-8.37.22-16.75.26-25.11,0-2-.09-4-.16-5.95-.32-.91.06-2-.47-2.76.14a1,1,0,0,0,.7,1.71c12,1,24,.7,36,.44,9.81-.06,19.63.12,29.44-.11,22.88-.66,45.76,0,68.64-.11A1.08,1.08,0,0,0,228.64,77.38Z" style="fill: #949494"/>
    <path d="M369.67,205.52a1,1,0,0,0-1-.74c-6.54,0-13.09.06-19.63,0-22.34-.8-44.68-.79-67-.73-7.91,0-15.81.25-23.71.32-2.48.06-5,0-7.44-.06a1,1,0,0,0-.71.29,1,1,0,0,0,.71,1.71c25.27,0,50.55-.57,75.82-.14,11.15.24,22.3.79,33.45.65h8.53A1,1,0,0,0,369.67,205.52Z" style="fill: #949494"/>
    <path d="M365.69,235.22c-.19,0-1.69-.13-1.67-.12-5.32-.77-10.72-.6-16.07-.84-17-.51-33.93-1.08-50.9-.86-14.53.07-29.05.38-43.58.26-1.12.13-2.61-.33-3.48.29a1,1,0,0,0,.71,1.71c23.81.16,47.63-.54,71.45-.18,12.11.42,24.23.74,36.35,1.1,2.24.13,3.77.26,5.5.51.86,0,2.16.53,2.6-.49A1,1,0,0,0,365.69,235.22Z" style="fill: #949494"/>
    <path d="M225.57,274.75c-16.21,0-32.41-.18-48.61.48-18.33,1-36.65,2.56-54.91,4.52-6.66.63-13.32,1.35-20,1.58-1.81,0-3.62-.07-5.44-.16a1,1,0,0,0-.7.3,1,1,0,0,0,.7,1.7c8.68.55,17.33-.74,26-1.47,10.31-1.2,20.64-2.08,31-2.83,23-2.34,46.22-2.16,69.35-2.12,1.09-.13,2.49.33,3.37-.29A1,1,0,0,0,225.57,274.75Z" style="fill: #949494"/>
    <path d="M231.51,76.31a3.5,3.5,0,0,0-1.43-.72c-.19,0-1-.09-1.22-.1l-.2,0c-.63-.26-1.58-1.15-2.66-1.78a21.85,21.85,0,0,0-2.14-1.13,1,1,0,0,0-.4-.48c-1.05-.68-2.69-.46-2.12,1.11.82,1.1,2.37,1.33,3.46,2.11,1.29.58,2,1.94,4,2.2l.36,0c-.64.38-1.47.85-2.07,1.29-1.23,1.08-5,2.5-3.12,4,1,.39,1.18-.19,1.9-.71a6.52,6.52,0,0,1,.75-.5c.55-.36,1.08-.73,1.62-1.11C229.45,79.37,233,78.47,231.51,76.31Z" style="fill: #949494"/>
    <path d="M370.28,204.26a26.38,26.38,0,0,0-2.93-2.07c-3.08-1.7-6-3.81-9.15-5.32a1,1,0,0,0-.64,1.85c3.75,2.25,7.94,4.48,11,6.76-2.3,1.12-6.5,3.5-8.66,4.48a1,1,0,0,0,.24,1.82c.67.15,1.24-.39,1.84-.61,1.83-.92,3.63-1.89,5.45-2.85a22.9,22.9,0,0,1,3.58-1.7C372.22,205.78,371.13,204.78,370.28,204.26Z" style="fill: #949494"/>
    <path d="M262.87,242.16c-.36-.26-2.09-1.58-1.71-1.29a28.41,28.41,0,0,0-5.25-3.6c-1.19-.64-3.77-1.61-4.68-2,1.22-1.46,5.28-3.7,7.74-5.7.75-.7,2.24-1.29,2.65-2.17a1,1,0,0,0-1.47-1.13c-2.89,2.08-5.77,4.18-8.72,6.17-1.23.83-3.32,2.57-1.93,4.1,1,.84,2.41,1,3.58,1.59-.45-.17,1.52.66,1.94.9a25,25,0,0,1,2.78,1.72c1.34,1,2.69,2.1,4.06,3.12a1,1,0,0,0,1.47-.6A1,1,0,0,0,262.87,242.16Z" style="fill: #949494"/>
    <path d="M110.68,287.83c-.91-.45-1.83-.9-2.76-1.31-3.73-1.73-9.16-2.57-11.34-4.28,3-1.54,5.92-3.37,8.88-5,.83-.6,2.33-.87,2.74-1.82a1,1,0,0,0-1.46-1.13c-3.4,1.74-6.6,3.83-9.94,5.66a8.8,8.8,0,0,0-2,1.13c-1.26,1.49.57,3,1.88,3.59,3.2,1.58,6.79,2.13,10.06,3.52.19.1,2,.9,3,1.41a1,1,0,0,0,1-1.73Z" style="fill: #949494"/>
    <path d="M225.57,100.07c-.42-1.19-2-.63-3-.79-13.82.25-27.64.93-41.47,1-15.3.14-30.6-.06-45.9.1-10.65.1-21.29.36-31.92,1.12-1.76.14-3.52.31-5.28.49a.93.93,0,0,0-.7.29A1,1,0,0,0,98,104c24.56-2.29,49.27-1.51,73.9-1.67,17,.13,34-.72,51.05-1C224,101.29,225.83,101.68,225.57,100.07Z" style="fill: #949494"/>
    <path d="M369.76,126.45c-4.78-.39-9.57-.66-14.35-1-21.59-1.09-43.23-.34-64.84.13-27.43.75-54.86,1.69-82.3,2.26-28.17.63-56.32,1.38-84.46,2.87-7.37.26-14.74.43-22.12.55l-5.88.1a1,1,0,0,0,0,2c20.5-.11,40.95-1.35,61.43-2.15,28.67-1,57.36-1.4,86-2.25,37.44-.82,74.92-3.09,112.36-1.5,3.52.23,7,.42,10.56.68a25,25,0,0,0,3.95.19,1,1,0,0,0,.61-.92A1,1,0,0,0,369.76,126.45Z" style="fill: #949494"/>
    <path d="M104.94,95.59c-2.85,1.81-5.74,3.56-8.42,5.6-.92.58-1.78,1.81-.78,2.73.77.57.53.21,1.24.68.34.26,2.51,2.92,3.43,4a6.84,6.84,0,0,0,2.67,2,1,1,0,0,0,1.1-1.25c-.13-.48-.6-.68-1-.93a4.41,4.41,0,0,1-1.41-1.22c-1.39-1.39-2.36-3.35-4.06-4.37.77-.57,2.35-1.7,3.21-2.26,1.66-1.09,3.34-2.13,5-3.19a1,1,0,0,0,.45-.6A1,1,0,0,0,104.94,95.59Z" style="fill: #949494"/>
    <path d="M370.21,125.33h.09l.17,0a1.62,1.62,0,0,1-.27-.08c-3.93-1.82-7.41-4.46-10.91-7-.61-.33-1.22-1.27-2.28-1.51a1,1,0,0,0-.71,1.71c4.2,3.17,8.41,6.46,13.22,8.65.63.18.68.39,1.39-.11A1,1,0,0,0,370.21,125.33Z" style="fill: #949494"/>
    <path d="M368.31,127.31c-.64,1.72-3.93,3.78-6.7,5.63-.75.55-1.68,1-2.39,1.62a1,1,0,0,0-.31.34c-.09.11-.21.2-.29.32a1,1,0,0,0,.92,1.38,1.34,1.34,0,0,0,1-.56c.57-.43,1.9-1.28,2.83-1.88,2.45-1.81,5.58-3.31,6.82-6.25A1,1,0,1,0,368.31,127.31Z" style="fill: #949494"/>
    <path d="M366.16,152.14c-4-.19-8-.41-12-.55-12.7-.57-25.42-.53-38.12-.51q-26.67-.12-53.32.46-56,.72-111.92,3.76c-15.54.9-31.12.7-46.69.72H98.2a1,1,0,0,0-.71.29A1,1,0,0,0,98.2,158c15.75,0,31.51.15,47.26-.43,19.24-1.11,38.49-1.85,57.73-2.61,30.48-1,61-1.61,91.45-1.9,19.95.09,39.92-.33,59.86.52,4.26.14,8.51.42,12.77.57.57.07,1.26.05,1.48-.58C369.19,151.9,367.25,152.2,366.16,152.14Z" style="fill: #949494"/>
    <path d="M212.7,175.12a36.21,36.21,0,0,0-5.69-.48c-6.27,0-12.55,0-18.82,0-14.79,0-29.58.08-44.35.67-14.74.24-29.48.82-44.23.7H96.44a1,1,0,0,0-.71.29,1,1,0,0,0,.71,1.71c27,.16,53.89-1.2,80.85-1.37,11,.18,24.17-.42,34.15.31,1.2,0,3.28,1.25,3.53-.56C214.92,175.2,213.53,175.34,212.7,175.12Z" style="fill: #949494"/>
    <path d="M215.33,174.56l-.59,0h0a2,2,0,0,0-.24-.16c-3.73-2.14-7.87-3.42-11.87-4.94-.89-.18-1.84-1-2.74-.57a1,1,0,0,0,.24,1.82,95,95,0,0,1,12.81,5.13c-.95.57-1.86,1.26-2.81,1.84-2,1.23-4,2.37-6,3.55-.75.54-2.34,1-1.88,2.21.68,1.25,1.67.26,2,0,1.41-.86,2.84-1.69,4.28-2.51,2-1.09,5.09-3.36,6.28-3.91a9.1,9.1,0,0,0,1.46-.54C217.26,175.73,216.36,174.5,215.33,174.56Z" style="fill: #949494"/>
    <path d="M107.22,162.93a48.73,48.73,0,0,0-4.7-2.73c-1.66-.95-3.25-2-4.94-2.86.9-.68,2.12-1.36,3.19-2.25,2-1.54,3.25-2.59,5-3.8a1.06,1.06,0,0,0,.46-.6,1,1,0,0,0-1.47-1.13c-2.95,2.13-4.84,3.86-7.59,5.69-1,.64-3,1.77-1.87,3.09a15.82,15.82,0,0,0,1.9,1c2.63,1.41,5.12,3.09,7.8,4.44.79.44,1.89,1.63,2.63.48A1,1,0,0,0,107.22,162.93Z" style="fill: #949494"/>
  </g>
  <g id="Numbers">
    <g>
      <circle cx="74.89" cy="77.75" r="12.62"/>
      <path d="M76.3,82.63A13.48,13.48,0,0,1,76,79.44a59.16,59.16,0,0,1,.19-6.52c0-1.12.43-2.32.07-3.4a1.1,1.1,0,0,0-1.94.27c.24-.33-1.47,1.72-1.83,2.21-.77,1-1.53,1.92-2.33,2.86a1,1,0,0,0,1.42,1.41c.88-1,1.74-2.13,2.61-3.2a54.53,54.53,0,0,0-.09,8.38c.11,1,.27,1.49.29,1.94s-.07.79.1,1.14a1,1,0,0,0,1.78.12A4.06,4.06,0,0,0,76.3,82.63Z" style="fill: #fff"/>
      <path d="M79.4,82.65c-3.19.27-5,.56-8.12,1a1,1,0,0,0,.39,1.91c1.58-.14,5.25-.64,5.81-.73l2-.15a1.31,1.31,0,0,0,1-.31A1,1,0,0,0,79.4,82.65Z" style="fill: #fff"/>
    </g>
    <g>
      <circle cx="246" cy="90.38" r="12.62"/>
      <path d="M251.29,94.84c-.42-1.25-2-.56-2.94-.41-.19.07-1,.22-1.21.26a8.36,8.36,0,0,1-3.62-.26c2-1.71,6.62-4.88,6.42-8.51A4,4,0,0,0,246,82c-2.7.48-4.05,3.58-4.2,6a1,1,0,0,0,1.94.13c.39-2.39,1.19-3.87,2.58-4.21a2.46,2.46,0,0,1,1.58,1.29c.6,1.78-1.29,4.24-4.62,6.82-1,1-1.49.94-2.08,2.06-.25,3,5.33,2.86,7.32,2.33.5-.11,1-.25,1.49-.32h.09A1.06,1.06,0,0,0,251.29,94.84Z" style="fill: #fff"/>
    </g>
    <g>
      <circle cx="74.89" cy="131.6" r="12.62"/>
      <path d="M76.82,128a3.67,3.67,0,0,0,.63-4.4c-1-1.21-2.64-.74-3.84-.16a16.7,16.7,0,0,0-3.92,2.07A1,1,0,0,0,71,126.94c1.91-1.12,4.29-2.24,4.89-2.11l0,.14a1.72,1.72,0,0,1-.1,1,3.13,3.13,0,0,1-.4.6c.32-.4-.11.13-.38.36,0,0-.58.4-.75.5a9.61,9.61,0,0,1-1,.6c-1,.87,0,2.15,1.21,1.69.78-.05,2.36,0,2.5.78.26.6.55,2.48.08,2.85-.44,1.17-3.57,1.69-4.7,1.33a1.58,1.58,0,0,0-.25-.61,1,1,0,0,0-1.75.88c.18,1.84,2.39,1.94,3.84,1.79,2.43-.09,5.26-1.7,5.12-4.43C79.27,129.9,78.42,128.49,76.82,128Z" style="fill: #fff"/>
    </g>
    <g>
      <circle cx="392.5" cy="136.6" r="12.62"/>
      <path d="M395.15,136.13c-.57-.95-1.79-.46-2,.5-.1.33-.18.66-.31,1v0a3.21,3.21,0,0,1-1.84,1c-.16,0-.31.09-.47.12a1.61,1.61,0,0,1-.31,0h-.06l-.06,0a3.11,3.11,0,0,1,0-.53v-.05a20.94,20.94,0,0,1,.58-2.2c.49-1.47,1-2.94,1.54-4.39a1,1,0,0,0-.1-.77,1,1,0,0,0-1.83.24c-.57,2.2-4.06,8.59-.83,9.6a4.91,4.91,0,0,0,3.31-.48l.3-.15c0,.23-.05.47-.08.7-.07.87-.07,1.75-.07,2.63a1,1,0,0,0,.29.71,1,1,0,0,0,1.57-.2c.33-1.26,0-2.66.3-4C395.15,138.62,395.52,137.3,395.15,136.13Z" style="fill: #fff"/>
    </g>
    <g>
      <circle cx="74.89" cy="179.83" r="12.62"/>
      <path d="M76.44,177.77a3.06,3.06,0,0,0-2.07-1,6.81,6.81,0,0,0-1,.07q.09-.9.21-1.8c0-.62.37-1.37-.14-1.87a1,1,0,0,0-1.71.71c-.19,1.32-.45,3.76-.52,4.38a1.65,1.65,0,0,0,0,.63,1,1,0,0,0,1.89.06,2.63,2.63,0,0,1,.39-.11h.11l.14,0c.24,0,.47,0,.71,0l.09,0a3.49,3.49,0,0,1,.31.18c1.12.74,1.29,3.9,1.06,4.42a3.86,3.86,0,0,1-.62.87l-.16.09a3.27,3.27,0,0,1-1.27.25,13,13,0,0,1-1.65,0h0a3,3,0,0,1-.52-.13h0l0-.05c-.27-.46-.6-1-1.22-.85-2,.57-.09,3,1.42,3a8.1,8.1,0,0,0,4.39-.53,4.42,4.42,0,0,0,1.53-1.91A7.26,7.26,0,0,0,76.44,177.77Z" style="fill: #fff"/>
      <path d="M77.87,173c-1.57-.08-3.14-.18-4.71-.31a1,1,0,0,0,0,2c1.9.16,3.8.27,5.7.37a1,1,0,0,0,.91-.62C80.21,173.16,78.83,173,77.87,173Z" style="fill: #fff"/>
    </g>
    <g>
      <circle cx="235.53" cy="189.36" r="12.62"/>
      <path d="M237.52,189.67a4.33,4.33,0,0,0-3.12-.44,74.47,74.47,0,0,1,3.11-7.6,1,1,0,0,0-1.85-.64,58.47,58.47,0,0,0-3.95,10.23,8.31,8.31,0,0,0-.4,3.43,2.41,2.41,0,0,0,1.37,1.49c2,.72,5.24.16,6.35-1.81C240.05,192.68,239,190.67,237.52,189.67Zm-4,4.66-.12-.08-.06-.06-.05-.05c0-.11,0-.25,0-.34s0-.66.07-.91a10.25,10.25,0,0,1,.28-1.09,1,1,0,0,0,.32-.23l-.13.11c1.8-1.18,3-.45,3.59,1C237.87,193.86,235,194.8,233.49,194.33Z" style="fill: #fff"/>
    </g>
    <g>
      <circle cx="388.74" cy="219.43" r="12.62"/>
      <path d="M392.48,211.86l-.19,0-.15,0-.13-.05a4,4,0,0,0-2.1.06,10.09,10.09,0,0,1-3.41-.23,3.86,3.86,0,0,0-2.37.81,1,1,0,0,0,1.29,1.47,3.2,3.2,0,0,1,1.24-.26l.14,0a8.34,8.34,0,0,0,2.54.24,11.34,11.34,0,0,0,1.36-.18,21.29,21.29,0,0,0-1.05,5.53,32,32,0,0,0-.36,6.91c0,.62,0,1.46.7,1.72a1,1,0,0,0,1.39-.92,1.55,1.55,0,0,0-.08-.36c0-.72-.09-1.43-.12-2.15a30.55,30.55,0,0,1,.27-3.31c.26-2.59.51-5.53,1.35-7.27a2,2,0,0,0,.47-.68A1,1,0,0,0,392.48,211.86Z" style="fill: #fff"/>
      <path d="M393.47,219.23c-.9-.36-1.88.28-2.8.38-1.38.38-3.1.35-4.36.84a1,1,0,0,0,.87,1.75,47.77,47.77,0,0,0,6.05-1.14A1,1,0,0,0,393.47,219.23Z" style="fill: #fff"/>
    </g>
    <g>
      <circle cx="237.62" cy="255.98" r="12.62"/>
      <path d="M241.88,254.37c2.63-4.31-1.12-7.4-5.4-5.64-2.71.77-3.07,3.22-1.89,5.5a6.58,6.58,0,0,0,.38.54,4.52,4.52,0,0,0-2,2.12,6.45,6.45,0,0,0-.47,2.65c0,1.11-.12,2.45.74,3.29,2.69,2.26,7.93,0,8-3.52a3.93,3.93,0,0,0-1.46-2.51A10.8,10.8,0,0,0,241.88,254.37Zm-5.25-3.56c.8-.3,2.42-.91,3.28-.41,1.35.49,1.21,2.62-1.59,5l0,0a13.06,13.06,0,0,1-1.43-1.45,3.66,3.66,0,0,1-.92-2.52v0l.19-.31.11-.1A2.49,2.49,0,0,1,236.63,250.81Zm2.15,9.6c-1.3,1.58-3.72,1.48-4.18,1,0-.12-.07-.36-.1-.5a9,9,0,0,1,.21-3.05,5.32,5.32,0,0,1,.33-.55,3.27,3.27,0,0,1,.51-.58h0c.42-.26.13.06.74-.33h0c.66.64,1.38,1.23,2.07,1.83C239.59,259.41,239.39,259.51,238.78,260.41Z" style="fill: #fff"/>
    </g>
    <g>
      <circle cx="74.89" cy="283.3" r="12.62"/>
      <path d="M77.4,275.07a2.11,2.11,0,0,0-1.3-.4.8.8,0,0,0-.34.11c-2.28-.57-4.63,1.33-5.74,3.26-1.87,3-.09,6.8,3.65,6.53a6.87,6.87,0,0,0,5.56-3A5.33,5.33,0,0,0,77.4,275.07Zm.26,4.7a2,2,0,0,1-.12.71c-.65,1.45-3.38,2.27-4.49,2.08-1.58-.21-1.91-1.21-1.72-2.52a5.1,5.1,0,0,1,3.41-3.4h.14A5.52,5.52,0,0,1,76,277a.81.81,0,0,0,.52-.07,3.54,3.54,0,0,1,1.19,2A8.61,8.61,0,0,1,77.66,279.77Z" style="fill: #fff"/>
      <path d="M79.73,283.23c0-.82,0-1.64-.11-2.45a1.09,1.09,0,0,0-1-1.29c-.87,0-1.12.9-.94,1.62,0,.67,0,1.35.07,2,.16,2.19.08,4.35-.47,5.29a5.61,5.61,0,0,1-2.47,2.19,2.22,2.22,0,0,1-.55.18c-1.6.07-2.28-.12-2.84-.64v0a1.46,1.46,0,0,1-.09-.16,8.44,8.44,0,0,1-.47-1.8,1,1,0,0,0-1.91.38,4.46,4.46,0,0,0,1.71,3.55,5.9,5.9,0,0,0,6.42-.49C79.81,289.77,80,286.24,79.73,283.23Z" style="fill: #fff"/>
    </g>
  </g>
</svg>
