<svg xmlns="http://www.w3.org/2000/svg" viewBox="0 0 827 970">
  <g id="Reference">
    <g>
      <path d="M661.72,174.77c-.08-4.28-.22-8.57-.37-12.85-.1-3.45-.29-6.91-.46-10.36a2.19,2.19,0,0,0-4.37,0q.66,12.48.85,25a2.26,2.26,0,0,0,2.77,2.52C662.09,178.54,661.74,176.34,661.72,174.77Z"/>
      <g>
        <path d="M660.4,173.59l-.16-.06.06,0Z"/>
        <path d="M679.43,166.43c-.81-3.47-3.71-5.79-6.66-7.65.17-.08.35-.13.52-.21,6.76-3.14,6.43-10.65-.94-12.59a21.92,21.92,0,0,0-15.5,2.51c-1,.76-2.45,1.19-2.82,2.49a2.21,2.21,0,0,0,3.21,2.47c6.38-5.13,17-4,16.55-1.16.15.8-2.75,3.61-7.26,3.2a5.64,5.64,0,0,0-1-.21h0a3.33,3.33,0,0,0-1.68.21,2.2,2.2,0,0,0-.78,3,2.52,2.52,0,0,0,1.69,1.12.8.8,0,0,0,.5.1h0c3,1.11,8.65,4.39,9.84,7.14,1,2.58-4.49,8.14-13,7.14-.41-.08-1.2-.25-1.68-.4.17.08.08.07-.1,0l-.07,0,0,0h0a2.2,2.2,0,0,1-.28-.18l.15.11c-.33-.21-1-.59-1.32-.47a2.24,2.24,0,0,0-.74,4.32C665.78,180.72,680.07,176.42,679.43,166.43Z"/>
      </g>
      <path d="M699.87,173.74a2.2,2.2,0,0,0-2.1-1.61,3.37,3.37,0,0,1-.55,0,4.1,4.1,0,0,1-.66-.19,4,4,0,0,1-.54-.32l-.07-.06a4.23,4.23,0,0,1-.56-.56l-.2-.35a4.77,4.77,0,0,1-.28-2.77,2.2,2.2,0,0,0-.35-2.84,1.88,1.88,0,0,0-1.49-.92.89.89,0,0,0-.23,0c-3.2-1.53-7.28-2.65-10.05-.08-4.21,4.27-3.71,14.21,3.86,13.75,2.33-.23,4.12-1.87,5.45-3.95a7.09,7.09,0,0,0,5.27,2.68A2.25,2.25,0,0,0,699.87,173.74Zm-14.75-5.51c.14-.21.37-.6.5-.83s.27-.28.41-.42l.24-.06.28,0a6.13,6.13,0,0,1,1.36.08,8.46,8.46,0,0,1,2.29.7,27.4,27.4,0,0,1-1.47,3.18C686.61,175.28,683.06,173.8,685.12,168.23Z"/>
      <path d="M709.45,162.94c-3.59,1.83-7.46,4.49-8.71,8.51-.77,5.63,5.56,6.21,9.58,4.87a2.18,2.18,0,0,0-1.16-4.21c-2.6.56-2.44.67-4.11.25l0-.08a13.08,13.08,0,0,1,3.89-4.06c1.21-1,3.24-1.17,3.74-2.82A2.2,2.2,0,0,0,709.45,162.94Z"/>
      <path d="M726.89,163c-1.16-.32-2.12.45-3,1.14a20.81,20.81,0,0,0-2.71,3c.24-2.08.49-4.28.72-6.51s.42-3.32.91-6.52a2.17,2.17,0,0,0-.22-1.69,2.2,2.2,0,0,0-4,.52c-1.22,7.71-1.92,15.15-2.53,21.45-.11,2.82,3.27,4,4.65,1.35,2.67-4.6,4.61-7.26,7.26-9.31A2.18,2.18,0,0,0,726.89,163Z"/>
      <path d="M725.33,169.19a14.42,14.42,0,0,0-2.67-2.34c-2.09-1-4.08,2-2.38,3.54,1.81,1.42,4.31,5.71,6.57,2.62C727.79,171.48,726.41,170.15,725.33,169.19Z"/>
      <path d="M741.44,172.73c-1.09-.65-2.24,0-3.38.18a19.3,19.3,0,0,1-2.29,0h-.07l-.61-.15h0a2,2,0,0,1-1.21-1.54,2.06,2.06,0,0,0,1.66-.23c2.06-1.14,4.93-2.75,4.92-5.4-.08-1.06-1.1-1.74-1.9-2.3-2.43-1.09-5.22.47-6.92,2.22-4.28,4.46-1.81,11.94,4.7,11.81,1.77,0,3.78-.07,5.33-1A2.18,2.18,0,0,0,741.44,172.73Z"/>
      <path d="M758.92,172.89l-.07-.13c-.06-.17-.13-.35-.18-.53-.36-1.35-.25-4.78-.7-6.59a4,4,0,0,0-3.47-3,4.29,4.29,0,0,0-3,1.65c-.36.43-.69.88-1,1.34a2,2,0,0,0-.62-1.51,2.21,2.21,0,0,0-3.73,1.55c-.25,2.28-.44,4.57-.6,6.86-.1,1.16-.22,2.58.65,3.49,1.06,1.11,2.69.58,3.68-.34,1.71-2.33,1.41-3,3.11-5.81.43-.7.7-1.17.92-1.53,0,.22,0,.55.06,1.2.13,1.89.16,3.88,1.12,5.57a2.23,2.23,0,0,0,4.27-.83A2.38,2.38,0,0,0,758.92,172.89Z"/>
      <path d="M782.31,170.88c-2-.17-2.31.72-3.23,1h-.22c-1.06-.37-.91,0-1.71-3.53-.35-1.35-.19-4.46.08-7.52.42-2.2.89-4.39,1.2-6.6a3.53,3.53,0,0,0-.42-2.74,2.24,2.24,0,0,0-3.72.15c-1.14,2.53-.85,4.66-1.35,8.35q0,.25-.06.54c-.44,2.18-.92,4.43-1.36,6.42a2.41,2.41,0,0,0-.58-.5,6.39,6.39,0,0,0-5.74-.85c-2.93,1-4.11,4.69-3.29,7.47,1.26,4.05,6.65,5,9.69,2.31a11,11,0,0,0,2.22-2.67c1.15,2.63,3.27,4.22,7,3.13a6.72,6.72,0,0,0,2.61-1.5A2.18,2.18,0,0,0,782.31,170.88Zm-14.7,1.65c-1.69.07-2.1-1.4-1-2.81l.08,0,.2,0h.1a6.64,6.64,0,0,1,1,0l.78.52a2.12,2.12,0,0,0,1.27.3C769.15,171.84,768.19,172.56,767.61,172.53Z"/>
    </g>
    <g>
      <path d="M307.83,209.77c-.47-.13-1.51.82-1.67,1l-.3.18h0c-1,.18-.74.26-1.61,0l-.22-.13-.05-.06a4.62,4.62,0,0,1-.41-.67v0h0a8.13,8.13,0,0,0,.57-5.16,1.72,1.72,0,0,0-3.08,0,.67.67,0,0,0-.06.12c-2-1.7-4.8-3.12-7-1.43-4.19,3.72-4.64,13.42,2.83,12.89,1.9-.09,3.79-1.58,5.2-3.55a4.91,4.91,0,0,0,6.39-.12C309.73,212,309.7,209.94,307.83,209.77Zm-10.51,3.59a3.08,3.08,0,0,1-2.55-.15c-1.64-.65-.73-6,1.11-7.3,1.46.07,2.51.73,4.35,2.64l.1.08a7,7,0,0,0,0,1.12A8.78,8.78,0,0,1,297.32,213.36Z"/>
      <path d="M316.13,205a2.2,2.2,0,0,0-.49,1.51,7.11,7.11,0,0,1-1.13,3.25c-.41.58-.67.71-1.1.75l0,0A4.28,4.28,0,0,1,312,208.7a14.52,14.52,0,0,1-.48-1.46c0-.17,0-.21,0-.2A4.61,4.61,0,0,0,311,205a1.5,1.5,0,0,0-2.62,1.31c.19,1.86,1.12,6.2,4.42,7.2,4,.54,5.69-4.17,5.89-7.4A1.51,1.51,0,0,0,316.13,205Z"/>
      <path d="M327.84,210.15c-.36,0-1.06.88-1.18,1.07-1.05,1.24-1.49,1.51-1.7,1.59-1.56.48-2-1.72-.7-6.9.86-4.22,3.38-9.67,4.1-13a1.5,1.5,0,0,0-2.92-.2c-1.55,4.84-7.37,17.81-3.73,21.9a4,4,0,0,0,4.35,1,7.47,7.47,0,0,0,2.78-2.31c.32-.46.83-.89.87-1.48A1.5,1.5,0,0,0,327.84,210.15Z"/>
      <path d="M322.27,202.1a2.7,2.7,0,0,0-2.54.9,1.51,1.51,0,0,0,1.69,2.2C323.49,205.06,324.17,202.9,322.27,202.1Z"/>
      <path d="M340.64,213a2.51,2.51,0,0,1-.28-1.13A27.71,27.71,0,0,0,340,208a3.5,3.5,0,0,0-1.17-2.29,3.43,3.43,0,0,0-2.87-.91,3.67,3.67,0,0,0-2.07,1.25V206q.43-4.29.88-8.58c.05-1.79.68-3.67.39-5.43a1.5,1.5,0,0,0-2.87.58c-.5,4.52-1,9-1.42,13.58-.17,1.81-.4,3.62-.44,5.44a2.4,2.4,0,0,0,.88,2.52c2.34,1,2.77-2.28,3.45-3.78l.1-.25a19.94,19.94,0,0,1,1.08-1.84,4.46,4.46,0,0,0,.33-.33l.22-.13h0c.44.3.57-.09.8,3.25a7.69,7.69,0,0,0,.57,3.32A1.51,1.51,0,1,0,340.64,213Z"/>
      <path d="M348.7,204.08a1.45,1.45,0,0,0-2,.52l-.08.1a1.64,1.64,0,0,0-.42.37,1.28,1.28,0,0,0-.3.66c-1.65,2.6-3.28,7-.31,8.49,2.53,1.15,5.71,0,7.36-2.12C355.86,208.24,353.42,203.45,348.7,204.08Zm-1.76,7.48a8.23,8.23,0,0,1,1.52-4.36,2.45,2.45,0,0,1,1.37-.16,1.52,1.52,0,0,1,1.22.69l.05.12a3.2,3.2,0,0,1,.1.39C351.41,210.56,348.4,212.17,346.94,211.56Z"/>
      <path d="M365.34,203.18c-2.77-1.8-5.61-.15-7.2,2.33a1.5,1.5,0,0,0-1.48,1.48c.31,2.6,0,5.61.74,7a1.52,1.52,0,0,0,2.5-.15,3.8,3.8,0,0,0,.06-2.29c0,.29.07.57,0,.08,0-.25-.06-.5-.09-.75l0-.5a5.67,5.67,0,0,1,1-3.49c.74-.93,1.14-1.43,2.29-1.4a5.32,5.32,0,0,1,.76.23A1.51,1.51,0,0,0,365.34,203.18Z"/>
      <path d="M371.7,203.59a1.51,1.51,0,0,0-2.56,1.06c-.13,2.27-.24,4.54-.3,6.81-.48,2.43,2.69,3.17,3,.72,0-1.92.12-3.83.2-5.75C372,205.49,372.45,204.34,371.7,203.59Z"/>
      <path d="M370.48,198a1.5,1.5,0,0,0,0,3A1.5,1.5,0,0,0,370.48,198Z"/>
      <path d="M383.71,210.76c-1.24-.63-2.44.61-3.69.72a4.37,4.37,0,0,1-.5.09c1.57-2.52,5.92-5.78,3.42-9a4.53,4.53,0,0,0-3.11-1.18,7.92,7.92,0,0,0-3.86.68,1.5,1.5,0,0,0,1.31,2.63,5.77,5.77,0,0,1,3.43-.11v0c-.34,1.21-1.26,2.07-2.41,3.59-.87,1.19-2,2.4-2.17,3.91.09,2.6,3.22,2.8,5.15,2.15a12.78,12.78,0,0,0,2.57-1A1.49,1.49,0,0,0,383.71,210.76Z"/>
      <path d="M382.5,206.27c-1.84.1-3.77-.2-5.57.13a1.5,1.5,0,0,0,.57,2.87h5a1.46,1.46,0,0,0,1.38-.92A1.51,1.51,0,0,0,382.5,206.27Z"/>
      <path d="M399.2,209.89c-.6,0-1,.42-1.48.69l-.09,0c-1.38-.09-1.6-.14-1.73-1.31a9.12,9.12,0,0,0,.41-3.14,1.52,1.52,0,0,0-1.72-1.48l-.16-.07c-2.74-.6-6.12.08-7.6,2.69-.89,1.66-.9,4,.69,5.29a5.09,5.09,0,0,0,5.85.28,4.63,4.63,0,0,0,.69-.55,4.55,4.55,0,0,0,5.9.37A1.51,1.51,0,0,0,399.2,209.89Zm-7.7.6a4.3,4.3,0,0,1-.5.15c-.14,0-.44,0-.69,0a3.15,3.15,0,0,1-.47-.11c-.29-.17-.33-.09-.58-.48a.24.24,0,0,0,0-.08c0-.15,0-.45,0-.61h0c0-.12.08-.3.12-.44a2.12,2.12,0,0,1,.21-.36c.6-.65.25-.34.93-.76a4.26,4.26,0,0,1,2.39-.37c0,.13,0,.26,0,.38,0,.36,0,.73,0,1.1A3.22,3.22,0,0,1,391.5,210.49Z"/>
      <path d="M409.21,210.54c-.53-1.61-2.49-1.33-3,.14-.1.11-.2.21-.31.31h0l-.37,0-.19,0-.28-.08a2.26,2.26,0,0,1-.26-.16c-1.68-1.11.7-7.43,2.37-12.29.27-1,1.28-2.16.68-3.25a1.51,1.51,0,0,0-2.74.36c-1,2.46-1.85,5-2.66,7.54-.87,3.14-2.48,7.24.33,9.84,1.51,1.35,4.16,1.59,5.55-.05C408.81,212.21,409.45,211.41,409.21,210.54Z"/>
      <path d="M404.29,202.67a20.65,20.65,0,0,0-3.21,1.12,1.5,1.5,0,0,0,1.31,2.62c1.23-.6,3.49-.44,3.77-2.09A1.5,1.5,0,0,0,404.29,202.67Z"/>
      <path d="M413.81,204.22a1.51,1.51,0,0,0-2.56,1.06c-.16,1.61-.28,3.23-.31,4.86a1.5,1.5,0,0,0,3,0c0-1.25.1-2.49.21-3.73C414.2,205.67,414.44,204.79,413.81,204.22Z"/>
      <path d="M413.53,199.88a1.5,1.5,0,0,0,0,3A1.5,1.5,0,0,0,413.53,199.88Z"/>
      <path d="M422,203.42a2.63,2.63,0,0,0-2.08-.26,1.46,1.46,0,0,0-.79,1.92c-1.91,1.15-3.7,2.84-3.21,5.19a4.62,4.62,0,0,0,5.34,2.42A4.9,4.9,0,0,0,422,203.42Zm-3.11,6c.26-.85.31-.68,1.73-1.73.37-.23.81-.4,1.21-.62a.55.55,0,0,1,.12.25A2,2,0,0,1,418.87,209.4Z"/>
      <path d="M438.69,207.18c-.53-1.76-1.76-3.53-3.77-3.57a6.55,6.55,0,0,0-4.73,2.68v-.13c-.05-.71.11-1.55-.47-2.1a1.51,1.51,0,0,0-2.56,1.06c.13,2.1-.49,8.89,3.32,6,1.21-1.37,1.58-2.76,2.37-3.35,1.23-1.11,1.81-1.28,2.19-1.14l0,0a1.25,1.25,0,0,1,.16.17,2.05,2.05,0,0,1,.22.36,7.33,7.33,0,0,1,.71,3.05c.06.67-.05,1.45.49,1.95a1.52,1.52,0,0,0,2.36-.3C439.51,210.6,439,208.54,438.69,207.18Z"/>
      <path d="M454.74,201.19a7.67,7.67,0,0,0-2.44,2,1.49,1.49,0,0,0-.4-.74,1.51,1.51,0,0,0-2.56,1.06c.22,2.53.44,5.07.51,7.61v.15a1.5,1.5,0,0,0,3,0h0v-.18h0v-.15a8.73,8.73,0,0,1,1.9-6,8.9,8.9,0,0,1,.67-.7l.27-.19a2,2,0,0,1,.64-.24,1,1,0,0,0,.49.14,1.47,1.47,0,0,0,1.65-1.07C458.88,200.82,456.13,200.34,454.74,201.19Z"/>
      <path d="M465.84,208.24a1.9,1.9,0,0,0-1.55.37,7.25,7.25,0,0,1-1.69.57l-.22,0-.19,0-.3-.09-.21-.11-.14-.13a3.05,3.05,0,0,1-.05-1.16c1.82-.34,4-.62,5-2.29,1.14-2.48-1.85-4.15-4-3.24-4.3,1.35-6.23,9.47-.47,10a7,7,0,0,0,4.56-1.59A1.49,1.49,0,0,0,465.84,208.24Z"/>
      <path d="M477.34,209.06a7.15,7.15,0,0,0,.71-5.57,1.52,1.52,0,0,0-2.74.36c0,.12-.07.25-.1.37a4.19,4.19,0,0,0-4.88.09c-2.56,2.4-1.81,7.59,2.16,7.75a4.85,4.85,0,0,0,2-.36,3.8,3.8,0,0,0,.4,1,1.51,1.51,0,0,0,2.74-.36,1.62,1.62,0,0,0-.19-1.22A7,7,0,0,1,477.34,209.06Zm-4.69,0c-.77-.16-.7-.48-.84-.9a2.18,2.18,0,0,1,.54-1.64l.19,0h0a3.83,3.83,0,0,1,.68,0l.5.32a1.53,1.53,0,0,0,.84.22c0,.31-.09.62-.13.93A2.69,2.69,0,0,1,472.65,209.09Z"/>
      <path d="M477.92,210.71c-1.33,1.35-2.66,2.69-4,4-.63.72-1.76,1.25-1.77,2.32a1.51,1.51,0,0,0,2.56,1.06c1.83-1.7,3.6-3.47,5.35-5.25A1.5,1.5,0,0,0,477.92,210.71Z"/>
      <path d="M488.56,205.28a1.51,1.51,0,0,0-1.75,2.06,1.18,1.18,0,0,1,0,.2,2.91,2.91,0,0,1-1.88,3.12l-.07,0-.09-.1-.09-.13-.09-.17c0-.05,0-.08,0-.15s0-.1,0-.14a4.19,4.19,0,0,1,0-.5c0-.42.19-2.58.07-1.63,0-1,.6-2.11.13-3.06a1.52,1.52,0,0,0-2.75.36c-.23,2.16-.93,4.52,0,6.58,1.56,3.27,5.2,1.92,6.89-.48C489.87,209.85,490.64,206,488.56,205.28Z"/>
      <path d="M494.2,208.85c1.82-.95,4.29-1.54,5.08-3.63a2.53,2.53,0,0,0-1.84-3.25,5.81,5.81,0,0,0-3.73,1c-3.88,2.83-4.07,9.44,2,9,1.48-.18,4.33-.75,3.32-2.81a1.6,1.6,0,0,0-2.15-.53c-1.45.39-.95.4-2.15.31h-.08a2.88,2.88,0,0,1-.42-.11Z"/>
      <path d="M506.68,206.22l-.46-.32c.27-.14.13-.12,1.08-.35.54-.13,1.18-.09,1.61-.47a1.5,1.5,0,0,0-1.31-2.62,6.73,6.73,0,0,0-3.82,1.53,2.47,2.47,0,0,0-.2,3.56c1.52,1.41,2.55,1.72,3.06,2.69l0,.1h0a.64.64,0,0,1,0,.07,1,1,0,0,0-.08.14c-.48.39-.35.37-1.33.64h-.08l-.15,0H505a1.48,1.48,0,0,0-1.65-.32,1.57,1.57,0,0,0,0,2.85c2.37,1.34,6.15-.48,6.35-3.25C509.73,208.58,508.14,207.21,506.68,206.22Z"/>
      <path d="M519.5,208a1.51,1.51,0,0,0-2.74-.36c-.72,1-1.57,1.61-2.19,1.56h-.13l-.25-.07-.11-.12v-.1c0-.24.09-.6.11-.75.06-2.27,2.26-7.05,3.31-9.68a1.5,1.5,0,0,0-2.77-.95c-1.58,3.17-3.55,8.55-3.56,10.72a3,3,0,0,0,.25,2.22c1.7,2.79,5.53,1.85,7.24-.43C519.13,209.48,519.76,208.83,519.5,208Z"/>
      <path d="M517.87,200.57c-1.2-.49-2.59.17-3.84.19-.68.13-1.48,0-2,.56a1.51,1.51,0,0,0,1.06,2.56l4-.52A1.51,1.51,0,0,0,517.87,200.57Z"/>
    </g>
    <g>
      <path d="M306.26,713.82c-1.47-.11-1.1.33-2.19.51a4.8,4.8,0,0,1-4-.42l-.14-.15c-.43-.77-.44-.32-.3-1.33.57-2.48,1-2.71,1.83-3l.23,0a6.26,6.26,0,0,1,1.35.07,3.61,3.61,0,0,0,1.54.32,1.5,1.5,0,0,0,.2-2.92c-2.32-.88-5.29-.64-6.77,1.58a9.5,9.5,0,0,0-1.44,5,4.77,4.77,0,0,0,1.46,2.73c2.68,2.26,7.66,1.6,9.15-.09A1.51,1.51,0,0,0,306.26,713.82Z"/>
      <path d="M320.84,713.09c-1,.46-.33.31-1.27.76l-.19.09-.43.11h-.42l-.28-.08-.27-.17a.57.57,0,0,1-.11-.11,1.62,1.62,0,0,1-.1-.18,8,8,0,0,0,.08-5.26,1.51,1.51,0,0,0-2.6,0,5.48,5.48,0,0,0-4.68.49,5.32,5.32,0,0,0-1.92,4.54c.08,2.8,2.92,4.29,5.46,3.63A4.49,4.49,0,0,0,316,716a4.5,4.5,0,0,0,5.07.41c.57-.33,1.28-.69,1.53-1.32A1.5,1.5,0,0,0,320.84,713.09Zm-9,.69h0l-.11-.19a2.31,2.31,0,0,1-.1-.34,3.27,3.27,0,0,1,0-.54,2.86,2.86,0,0,1,.55-1.42,1.26,1.26,0,0,1,.26-.14A3.14,3.14,0,0,1,314,711a1.74,1.74,0,0,0,.64.48,10.73,10.73,0,0,0,0,1.7v0A2,2,0,0,1,311.86,713.78Z"/>
      <path d="M326.91,713.05c-.3-2.78.1-10.22-.2-14.5a1.5,1.5,0,0,0-2.87.58c-.08,3.52-.06,7,0,10.57a20.67,20.67,0,0,0,.46,5.32,1.54,1.54,0,0,0,.69.89,1.52,1.52,0,0,0,2.21-.89C327.35,714.35,327,713.72,326.91,713.05Z"/>
      <path d="M332.71,710.89c-.14-4.62.39-9.33.13-13.91a1.51,1.51,0,0,0-2.88.58c-.11,3.68-.22,7.36-.24,11.05.11,2-.34,4.39.5,6.29a1.5,1.5,0,0,0,2.48-.15C333.18,713.42,332.57,712.88,332.71,710.89Z"/>
      <path d="M338.61,706.79a79,79,0,0,0,1-10.33,1.5,1.5,0,0,0-2.87.58c-.43,5.35-1.57,10.71-1.61,16.06a1.45,1.45,0,0,0,2.26.8,1.54,1.54,0,0,0-.21.29,1.91,1.91,0,0,0,.79,2.44,5.13,5.13,0,0,0,6.71-2.94C346.14,709.51,343,704.68,338.61,706.79Zm2,7.07c-.28.07-.56.12-.84.17h-.16a1.48,1.48,0,0,0-1.95-.37,1.62,1.62,0,0,0,.44-1,8.56,8.56,0,0,1,1.3-2.81l.33-.34a.56.56,0,0,1,.17-.09,3.75,3.75,0,0,1,.43-.12l.33,0h.2a2.33,2.33,0,0,1,.36.08C341.93,710,342.82,713.14,340.65,713.86Z"/>
      <path d="M357.66,714.21a1.77,1.77,0,0,0-1.51-.06l-.19,0h-.17l-.18-.12-.13-.12-.16-.29a6.23,6.23,0,0,1-.22-.8,9.23,9.23,0,0,0,.52-3.21c.18-1.43-1.19-3.08-2.59-2a2.88,2.88,0,0,0-.69,1.2c-.66-.36-3.69-.71-4.82.83-1.39,1.59-1.45,4.44.27,5.81a4.6,4.6,0,0,0,5.16,0,3.5,3.5,0,0,0,2.78,1.73,3.81,3.81,0,0,0,2.08-.51A1.49,1.49,0,0,0,357.66,714.21Zm-5.87-1.57-.06,0a2.59,2.59,0,0,1-.39.25,3,3,0,0,1-.4.2l-.2.06-.14,0a3.37,3.37,0,0,1-.55,0l-.3-.08-.09,0-.05-.06h0a3.06,3.06,0,0,1-.1-.41,2.35,2.35,0,0,1,0-.38,1.12,1.12,0,0,1,.06-.23,3.23,3.23,0,0,1,.22-.41h0l.09-.05.26-.06.17,0a5.39,5.39,0,0,1,.7,0,2.77,2.77,0,0,0,.95.3c0,.19,0,.38,0,.57S351.82,712.6,351.79,712.64Z"/>
      <path d="M366.19,712.15a2.34,2.34,0,0,0-1.62.35,15.61,15.61,0,0,1-1.71.53,2.55,2.55,0,0,1-.39,0,2.78,2.78,0,0,1-.38-.12,2.33,2.33,0,0,1,.07-.25c.71-1.21,1.52-1.75,3.16-2.75a1.5,1.5,0,0,0-1.52-2.59c-2.3,1.35-5.36,3.61-4.63,6.65.41,1.29,1.84,1.88,3.08,2a9.89,9.89,0,0,0,4.3-1.15A1.51,1.51,0,0,0,366.19,712.15Z"/>
      <path d="M377.21,705.79a2.79,2.79,0,0,0-2.3.9,18.74,18.74,0,0,0-1.91,2.07c.07-1.56.15-3.12.19-4.68,0-.8.25-1.75-.4-2.37a1.51,1.51,0,0,0-2.56,1.06q-.12,4.79-.38,9.55c0,.85-.15,1.91.53,2.55a1.71,1.71,0,0,0,.57.35,1,1,0,0,0,.42.11,1.41,1.41,0,0,0,1-.17c.84-.6,1.11-1.7,1.64-2.54a14.07,14.07,0,0,1,2.33-3.09c.8-1,.77-.5,1.69-1.39A1.49,1.49,0,0,0,377.21,705.79Z"/>
      <path d="M380.15,713.49q-2.38-2.49-4.89-4.87a1.5,1.5,0,0,0-2.12,2.12c1.66,1.59,3.3,3.21,4.89,4.87a1.5,1.5,0,1,0,2.12-2.12Z"/>
      <path d="M396.83,703.41c-3.24-1-5.81,2.13-6.24,5.07,0,.12,0,.24,0,.36a1.33,1.33,0,0,0-.26.84c.21,1.18-.08,2.57.57,3.61a1.49,1.49,0,0,0,2.47-.15c.41-.75.1-1.64.11-2.45.08-2.14,0-2.16,1.07-3.87a3.71,3.71,0,0,1,.27-.29l.25-.15a3.23,3.23,0,0,1,.51-.14h.15a2.43,2.43,0,0,0,.94.09A1.5,1.5,0,0,0,396.83,703.41Z"/>
      <path d="M404.74,710.78a4.71,4.71,0,0,0-1.66.65,6,6,0,0,1-1.85.64,4.79,4.79,0,0,1-.85-.05l-.3-.06a2.62,2.62,0,0,1-.22-.25l-.08-.12,0,0a3.18,3.18,0,0,1,0-.62,1.32,1.32,0,0,0,1.3-.09c1.49-.81,3.47-1.47,4.09-3.21a2.21,2.21,0,0,0-2.57-2.81,7.32,7.32,0,0,0-4.5,2.47c-3.09,4.18-.55,9.13,4.82,7.47a9.55,9.55,0,0,0,3.06-1.57A1.5,1.5,0,0,0,404.74,710.78Z"/>
      <path d="M416,706.19c.18-1.32-.8-2.53-2.17-2-1.13.36-1.49,1.52-1.67,2.61a7.05,7.05,0,0,0-4,2.09,3.51,3.51,0,0,0,.08,4.8,3.43,3.43,0,0,0,3.23.81,34.58,34.58,0,0,0,.39,5.19,1.56,1.56,0,0,0,2.87.95,1.54,1.54,0,0,0,.15-1.15,12.42,12.42,0,0,1-.35-2.8c-.06-1.64-.07-3.07,0-4.41A11.23,11.23,0,0,0,416,706.19Zm-5.28,5.46h-.12l-.25,0-.06-.07,0,0-.05-.09a.28.28,0,0,1,0-.09c0-.07,0-.13,0-.18a2.26,2.26,0,0,1,.16-.26l.08-.09.12-.11c.2-.14.41-.28.62-.4l.45-.23c0,.4-.08.79-.11,1.18A2.85,2.85,0,0,1,410.68,711.65Z"/>
      <path d="M417.06,716.42c-1.17,0-1.64,1.29-2.36,2-1.24,1.6-2.7,3.07-3.82,4.73a1.5,1.5,0,0,0,2.43,1.64c1.67-2.12,3.57-4.12,5.12-6.31A1.5,1.5,0,0,0,417.06,716.42Z"/>
      <path d="M423.83,706a2.3,2.3,0,0,0-.5,1.52,3.12,3.12,0,0,1-.1.48,5.5,5.5,0,0,1-1,2.21l-.11.16-.07.07-.12-.06a.12.12,0,0,0-.05-.05,7.24,7.24,0,0,1-.78-3,1.5,1.5,0,0,0-2.89.79c.09,1.44,1,5.86,4.5,5.26a2.93,2.93,0,0,0,1.83-1.3,9.26,9.26,0,0,0,1.79-4.68A1.51,1.51,0,0,0,423.83,706Z"/>
      <path d="M436.34,710.18c-.84-.21-1.61.39-2.42.52a3.68,3.68,0,0,1-1.52.09l-.13,0a13.52,13.52,0,0,1,0-.68,9.09,9.09,0,0,0,3.92-1.87c2.3-2.91-1.66-5-4.11-3.26a5.49,5.49,0,0,0-2.27,2.64,2.7,2.7,0,0,0-2,.95,1.52,1.52,0,0,0,1.37,2.25,8.42,8.42,0,0,0,.09,1c.46,1.6,2.32,2.11,3.81,2,1.29-.15,3.25-.35,4.08-1.42A1.52,1.52,0,0,0,436.34,710.18Z"/>
      <path d="M445.72,708.31a6.45,6.45,0,0,0-2.11-1.66,2.14,2.14,0,0,0,1.08-.77,1.52,1.52,0,0,0-1.7-2.21c-1.59.35-4,1.66-3.39,3.6.7,1.27,2.25,1.7,3.39,2.52.08.09.22.24.35.36l0,0a4.54,4.54,0,0,1-.38.38c-1,.59-.85.45-2.07.59a.54.54,0,0,0-.22-.1,1.5,1.5,0,0,0-1.36,2.66,2.45,2.45,0,0,0,2,.41,5.72,5.72,0,0,0,4.11-1.83A3,3,0,0,0,445.72,708.31Z"/>
      <path d="M455.82,710a1.74,1.74,0,0,0-2.2.6l-.07.05c-1.3.68-1.45.59-2.28.19-1.14-.94.07-4.48,1.58-9.68.17-.76.63-1.61.17-2.35a1.51,1.51,0,0,0-2.74.36c-.55,2.06-1.17,4.11-1.74,6.17-.55,1.85-1.08,3.88-.48,5.78,1.13,3.64,5.72,3.81,8.06,1.24A1.51,1.51,0,0,0,455.82,710Z"/>
      <path d="M453.87,703c-1.5,0-3,.1-4.49.23a1.5,1.5,0,0,0,0,3c1.67-.25,3.43,0,5.07-.36A1.5,1.5,0,0,0,453.87,703Z"/>
    </g>
    <g>
      <path d="M374.8,872.71c-1.23-.47-2.66,0-4,0a23.91,23.91,0,0,1-3,0,5.4,5.4,0,0,1-1-.24c-2-1.76.43-12.62,1.88-19.53a1.5,1.5,0,0,0-2.9-.8c-1,4.39-1.77,8.86-2.42,13.32-.57,4.18-1.06,10.25,4.75,10.27a46.59,46.59,0,0,0,5.54-.15,1.68,1.68,0,0,0,1.78-.95A1.48,1.48,0,0,0,374.8,872.71Z"/>
      <path d="M384.09,866.88a2.2,2.2,0,0,0-.3-.19,1.58,1.58,0,0,0-.24-.3c-3.86-3.63-7.83.71-8.25,4.81a4.58,4.58,0,0,0,4.29,5,6.73,6.73,0,0,0,5.5-3.23C385.9,871,386.06,868.16,384.09,866.88Zm-4.16,6.25a2.75,2.75,0,0,1-.5,0l-.07,0a4.13,4.13,0,0,1-.59-.37c-1.29-.88.34-4.44,1.67-4.73a1.5,1.5,0,0,0,.7,1,2.21,2.21,0,0,0,1,.23,2.61,2.61,0,0,1,.27.06,1.8,1.8,0,0,1,.19.2l0,.06,0,.59q0,.36,0,.72C382.6,872.29,380.58,873,379.93,873.13Z"/>
      <g>
        <path d="M389.88,883l-.08-.09Z"/>
        <path d="M395.84,870.62c.27-1.61.56-3.69-.94-4.68a1.72,1.72,0,0,0-2.29.63c-1.64-.92-3.59-.35-5.05,1.8-2.33,3.21-1.74,7.41,2.85,7.47a5.11,5.11,0,0,0,3.26-1c.41,3-.12,5.86-2.1,7.73a2.57,2.57,0,0,1-1.38.73l-.31-.29c.05,0-.08-.08-.19-.23l0,0a1.47,1.47,0,0,0-1.41-.62c-3.05.8,0,4.48,2.05,4.1,3.84-.49,5.9-4.55,6.37-8A21.57,21.57,0,0,0,395.84,870.62Zm-5.91,2.19-.33-.09a3.28,3.28,0,0,1-.31-.2l-.06-.06a4.31,4.31,0,0,1,1.46-3.12l.33-.2.32.2.18.16.21.35a1.73,1.73,0,0,0,1,1.07,6.74,6.74,0,0,1-.54,1.28,3.11,3.11,0,0,1-.31.32h0l-.11.05-.09,0A3.15,3.15,0,0,1,389.93,872.81Z"/>
      </g>
      <path d="M406.83,873.56a13.68,13.68,0,0,0-.55-2.69,5.71,5.71,0,0,0-.8-4.57,1.64,1.64,0,0,0-1.61-.51c-2.45-1.72-5.59.8-6.52,3.27-1.74,3.68-.24,7.25,4.22,6.44a6.7,6.7,0,0,0,2.34-.94,10,10,0,0,1-1.35,6.32,3.24,3.24,0,0,1-1.75,1.39,5.93,5.93,0,0,1-.9.22h0a2.07,2.07,0,0,1-.32-.19l.12.1a1.5,1.5,0,0,0-2,.05c-1.16,1.2.19,2.69,1.49,3a6.25,6.25,0,0,0,4.68-1.48C406.62,881.37,407.23,877.18,406.83,873.56Zm-7.08-1h0c0-.09-.05-.19-.07-.27a4.08,4.08,0,0,1,0-.7c.53-2.07,1.33-3,2.4-3.31h0l.12.09a1.9,1.9,0,0,1,.24.25l.12.19a15.24,15.24,0,0,0,.61,2.17A3,3,0,0,1,399.75,872.51Z"/>
      <path d="M413.59,863a10.16,10.16,0,0,0-5.73,6.53c-.73,3.5,2.57,5.46,5.7,5.08a14.54,14.54,0,0,0,2.49-.42,1.49,1.49,0,0,0,.9-.69,1.52,1.52,0,0,0-.9-2.2,3.73,3.73,0,0,0-1.65.19c-2,.37-3.68.09-3.63-1.18h.1c2.64,0,6.07-.3,7.62-2.73C420.14,864.37,416.65,861.57,413.59,863Zm-1,4.27c1.38-1.46,2.45-1.73,3.13-1.59l.18.2h0v0l-.06.23,0,.05-.13.13A8.19,8.19,0,0,1,412.59,867.28Z"/>
      <path d="M432,871.11a2,2,0,0,0-.76-.43l-.1,0c-.32-.43-.39-.37-.74-1.74a23.58,23.58,0,0,1,.05-6.34c.3-1.15.63-2.29.94-3.43a1.63,1.63,0,0,0-.11-1.35c-2.34-2.26-3.39,1-3.82,4.39-.39,1.67-.66,3.17-.93,4.48-1.32-1.12-3.5-.6-4.89.23-1.7,1.19-2.17,3.37-2.29,5.32.07,1.67,1.75,2.75,3.29,2.85a6,6,0,0,0,5-2.7,8.16,8.16,0,0,0,.52-.83,5.11,5.11,0,0,0,.86,1.24,2.88,2.88,0,0,0,2.12.89A1.5,1.5,0,0,0,432,871.11Zm-8.72.91a2.17,2.17,0,0,1-.45,0,2.5,2.5,0,0,1-.39-.11l-.07,0a9.76,9.76,0,0,1,.32-1.61c.39-.77.29-.58.6-.91a2.21,2.21,0,0,1,.34-.18h0a5.35,5.35,0,0,1,.79-.19h.23a1.78,1.78,0,0,0,1.05.65A3.55,3.55,0,0,1,423.27,872Z"/>
      <path d="M443.11,869.46l-.06-.26c0-.08,0-.18,0-.27a13.11,13.11,0,0,1,.1-1.39c0-.09,0-.18.05-.26a5.28,5.28,0,0,0,.37-1.82,1.5,1.5,0,0,0-2.92-.2c-.7,2.33-1.33,6.09,1.43,7.27,1.06.21,2.72-.14,2.85-1.42A1.5,1.5,0,0,0,443.11,869.46Z"/>
      <path d="M442.41,859.2a1.5,1.5,0,0,0,0,3A1.5,1.5,0,0,0,442.41,859.2Z"/>
      <path d="M454.17,870.08l0-.16c0-.06,0-.13,0-.22-.17-1.93.29-4.82-1.95-5.66a3.43,3.43,0,0,0-3.26.94,1.13,1.13,0,0,0-.24-.3,1.51,1.51,0,0,0-2.56,1.06c-.23,1.74-.29,2.7-.78,5a1.79,1.79,0,0,0,.27,2,1.52,1.52,0,0,0,2.12,0c1-1.58.55-1.71,1.39-3a11.45,11.45,0,0,1,1.88-2.57,21.46,21.46,0,0,0,.41,4.12,1.59,1.59,0,0,0,2.1,1A1.5,1.5,0,0,0,454.17,870.08Z"/>
      <path d="M486.58,847.72c-3-2.21-12.33,16.42-14.69,23.78-.68-1.81-1.38-3.92-2.22-5.72-.7-3.12-4.22-2.14-3.11.7l-.08-.2a2.82,2.82,0,0,0,.65,1.16c.35.82.61,1.48,1.17,2.93,1.12,2.23,1.38,5.72,3.79,6.93a1.83,1.83,0,0,0,2.17-1.32c.24-2.23-.11-2.14.73-4.38a88.53,88.53,0,0,1,9.71-18.91,18.34,18.34,0,0,1,2.18-2.61A1.52,1.52,0,0,0,486.58,847.72Z"/>
    </g>
    <path d="M410.12,409.81a3.1,3.1,0,0,0-1.07-2.19c-2.26-2.53-6.73-.35-5.94,2.93-.24,2.59,2.05,5.27,4.91,3.47a4.65,4.65,0,0,0,2.1-4.21Z"/>
    <path d="M407,381.43a3.12,3.12,0,0,0-3.19-.49,3.49,3.49,0,0,0-1.64,4.69,2.38,2.38,0,0,0,.78.83,2.28,2.28,0,0,0,.62.92,3.55,3.55,0,0,0,4.85-.3C409.86,385.33,408.78,382.59,407,381.43Z"/>
    <path d="M406,357.33a3.89,3.89,0,0,0-5.63,1.84c-.45,1.83,1,3.77,2.8,4.32a3.06,3.06,0,0,0,1.64.86,2.44,2.44,0,0,0,2-.57,3.94,3.94,0,0,0,2.87-2.48C410.33,358.67,408.15,357.23,406,357.33Z"/>
    <path d="M410.12,670.81a3.1,3.1,0,0,0-1.07-2.19c-2.26-2.53-6.73-.35-5.94,2.93-.24,2.59,2.05,5.27,4.91,3.47a4.65,4.65,0,0,0,2.1-4.21Z"/>
    <path d="M407,642.43a3.12,3.12,0,0,0-3.19-.49,3.49,3.49,0,0,0-1.64,4.69,2.38,2.38,0,0,0,.78.83,2.28,2.28,0,0,0,.62.92,3.55,3.55,0,0,0,4.85-.3C409.86,646.33,408.78,643.59,407,642.43Z"/>
    <path d="M406,618.33a3.89,3.89,0,0,0-5.63,1.84c-.45,1.83,1,3.77,2.8,4.32a3.06,3.06,0,0,0,1.64.86,2.44,2.44,0,0,0,2-.57,3.94,3.94,0,0,0,2.87-2.48C410.33,619.67,408.15,618.23,406,618.33Z"/>
    <path d="M251.65,80.06a12.93,12.93,0,0,0-6.58-7c-4.08-2.38-8.64-3.85-12.71-6.22l-.15-.15c-.07-.11-.18-.28-.26-.43a3.31,3.31,0,0,1-.14-.41,3.59,3.59,0,0,1-.08-.35,2.36,2.36,0,0,1,0-.38c.27-.82.26-.79,1.18-1.76,2.63-2.54,3.22-2.9,6.66-3.92s6.64-2,9.34-1.86c.87-.08,1.93.25,2.62-.44a1.51,1.51,0,0,0-1.06-2.56,26.59,26.59,0,0,0-8.95,1.15c-2.7.87-5.65,1.41-8,3.08-2.92,2.33-6.48,5.35-3.94,9.33,1.4,2,4,2.59,6.12,3.68,4.37,2,10.55,4.67,11.93,7,1.65,1.91,1.58,4.81,1.67,6.16a7.86,7.86,0,0,1-2.45,4.24c-2,1.26-3.36,1.2-6.54,1.27-2.34,0-3.16.2-4.85-.38-2.68-1.1-3.52-1.09-4-3.36a5.67,5.67,0,0,1,0-.67c-.09-.76.29-1.57,0-2.29a1.49,1.49,0,0,0-2.43-.48c-.58.6-.45,1.5-.54,2.28a6.52,6.52,0,0,0,1.55,4.9,12.73,12.73,0,0,0,9.13,3c2.81,0,5.78.1,8.37-1.18a9.78,9.78,0,0,0,4.66-6.28A16.22,16.22,0,0,0,251.65,80.06Z"/>
    <path d="M272.1,85.93c-1.91-1.35-2.44.77-3.34,1.43-1.51,1.37-3.68,2.76-5,2.65-1.55-.17-1.4,0-2.07-1a.44.44,0,0,0,0-.1c0-.2,0-.51,0-.66.13-8.66,1.91-15.83,3.64-25.37.75-4.08,1.82-8.15,2.48-12.21a1.5,1.5,0,0,0-2.92-.2c-2.05,9.59-4.2,19.21-5.45,28.94a70.53,70.53,0,0,0-.78,8.06,10.13,10.13,0,0,0,.25,2.52,4.62,4.62,0,0,0,2.6,2.6c2.63.93,5.38,0,7.52-1.64C270.68,89.68,273.6,87.64,272.1,85.93Z"/>
    <path d="M263.23,72.15l-5.2.35a1.5,1.5,0,0,0,0,3c1.91-.21,3.91-.11,5.78-.48A1.5,1.5,0,0,0,263.23,72.15Z"/>
    <path d="M303.42,86.78c-1.17-1.14-2.35.2-3.26,1-2.3,1.51-3.94,2-4.88-1.82a15.59,15.59,0,0,1-.23-3.38A23.68,23.68,0,0,0,297,76.85c.19-1.26.83-2.71.07-3.88-1.07-1.46-2.7-.6-3.37.8a22,22,0,0,0-1.44,6.56c0,.42-.08.85-.11,1.28-2.07,3.93-5.29,6.92-8.85,6.13l-.1,0a1,1,0,0,1-.15-.14,2.58,2.58,0,0,1-.18-.32,3.42,3.42,0,0,1-.13-.34,8.21,8.21,0,0,1-.39-1.44c.07-3.07.19-4.69,1.46-6.79a2.07,2.07,0,0,1,2.54-.57,2.61,2.61,0,0,1,.28.17l.1.08a4.47,4.47,0,0,1,.47.49.43.43,0,0,0,0,.07,7.13,7.13,0,0,0,.66,1.52,1.5,1.5,0,0,0,2.63-1.3,5.31,5.31,0,0,0-4.1-4.1,5,5,0,0,0-5.56,2.67,17.83,17.83,0,0,0-1.55,7.63c.24,1.88.77,4.12,2.58,5.08,3.73,1.48,7.89-.68,10.31-3.57.06-.07.12-.16.19-.23a10.1,10.1,0,0,0,.69,2.05c1.69,4.06,6.1,3.88,9.08,1.33C303.16,89.22,304.63,88.08,303.42,86.78Z"/>
    <path d="M319.6,83.21c-1.76-1.51-2.79,1.16-3.87,2.15l-.08.06a3,3,0,0,1-.38.23l-.35.09c-2.8.08-4.38-1.5-4.37-4,0-7.86,3.05-15.87,4.61-24.47.39-1.87.77-3.74,1.17-5.61a1.56,1.56,0,0,0-.15-1.16,1.52,1.52,0,0,0-2.75.36c-1.33,6.83-2.95,13.6-4.53,20.37-.87,5.37-3.81,14.1,2.71,16.9a5.45,5.45,0,0,0,7.14-1.71C319.47,85.51,320.71,84.34,319.6,83.21Z"/>
    <path d="M318.6,67.47c-.7-.69-1.73-.36-2.6-.39a46.76,46.76,0,0,1-11.06-.73,1.5,1.5,0,0,0-.79,2.9,48.1,48.1,0,0,0,14,.66A1.51,1.51,0,0,0,318.6,67.47Z"/>
    <path d="M339.81,87.36c-5.77,3.54-9.67,3.77-11.41,1.37-.57-2,.24-6.91,1.3-8.78.26-.56.56-1.1.86-1.63a.7.7,0,0,0,.1.08c1.27.69,2.77.45,4.16.4,1.85-.19,3.88-.24,5.48-1.31a4.19,4.19,0,0,0,0-7.23c-2.85-1.94-6.62-.43-8.74,1.9a20.45,20.45,0,0,0-6.32,15.4,4.77,4.77,0,0,0,.53,2.6c2.85,4.58,9,3.41,13,1.16,1.1-.65,2.74-1,3.25-2.26A1.52,1.52,0,0,0,339.81,87.36Zm-1.27-14.68a1.66,1.66,0,0,1,.79.84c0,.09.05.17.06.24a1.93,1.93,0,0,1,0,.34v0c-.06.11-.11.23-.18.34-.23,1.14-5.63,1.59-6.92,1.35C334.47,73.12,337,71.61,338.54,72.68Z"/>
    <path d="M354.41,64.45c.06-.37.13-.74.19-1.11a1.45,1.45,0,0,0,1.06-1.4c.27-3.48.57-7,.82-10.44v0c.08-1.17.59-2.64-.25-3.62a1.52,1.52,0,0,0-2.36.31,4.82,4.82,0,0,0-.18.75h0V49a15.51,15.51,0,0,0-.15,2.17c-.8,6.86-3,16.5-3.76,24.26-.25,4.69-2.92,13.78,2.55,16.2,1.53.74,4.75-.27,3.71-2.37a1.51,1.51,0,0,0-2-.54l-.22.1-.19.06-.21-.06-.19-.07-.11-.06-.13-.14c-1.5-2.11-1-4.76-.68-8.54C352.84,74.16,353.4,70.31,354.41,64.45Z"/>
    <path d="M375.28,85.78c-3.61,2.34-7.87,2.46-8.93.39-.75-.57-.21-3.53.6-6a23.49,23.49,0,0,0,7-3.08,7.88,7.88,0,0,0,3.25-3.27c1.18-3-1.36-4.79-4.21-4.23a9.71,9.71,0,0,0-4.23,2.59,18.27,18.27,0,0,0-4.06,5.44l-.29.06a1.54,1.54,0,0,0-.89.69,1.45,1.45,0,0,0,.22,1.77,14.86,14.86,0,0,0-.39,1.66,9.19,9.19,0,0,0-.08,4.88c1.75,4.78,7.94,4.54,11.77,2.59.85-.51,2.09-.81,2.42-1.84A1.52,1.52,0,0,0,375.28,85.78Zm-.76-13.21a.08.08,0,0,0,0,0l-.05.13c-.35,1-3.5,2.82-5.46,3.68C371.23,73.81,373,72.24,374.52,72.57Z"/>
    <path d="M397.7,79.69c-2.67-2.33-4.82-2.26-7.3-3.9a4.34,4.34,0,0,1-.49-.47c-.08-.13-.14-.27-.21-.41h0l.11-.17a12.1,12.1,0,0,1,4.44-3.38,20.41,20.41,0,0,0,2.85-1,1.5,1.5,0,0,0-1.3-2.63,14.7,14.7,0,0,0-7.13,3.87c-1.25,1.13-2.62,2.77-1.7,4.51.86,2.18,3.28,3.09,5.29,3.93a11.25,11.25,0,0,1,3.29,1.75,2.25,2.25,0,0,1,.12.21,2.88,2.88,0,0,1,.18.7c.43,1.93-3.27,5.82-6.64,5.88a6.7,6.7,0,0,1-.78,0l-.06-.08-.05-.09a2.81,2.81,0,0,1-.12-.48,1.59,1.59,0,0,0-2.32-1.54c-1.5,1-.41,3.56.63,4.53s2.37.7,3.56.55a11.17,11.17,0,0,0,8.06-5.62A5.59,5.59,0,0,0,397.7,79.69Z"/>
    <path d="M416.87,77.68c-.9-.39-5.7-1.89-5.08-1.74a9.58,9.58,0,0,1-3.08-1.79c-.12-.12-.23-.25-.34-.38a1.27,1.27,0,0,1-.13-.22c-.07-.15,0,0,0,.11-.82-1,5.76-4.26,10.31-4a1.5,1.5,0,0,0,0-3c-4.28-.24-17.23,3.37-12.23,9.4,2.9,3.14,9.28,3.76,10.53,5.15.73.72.33,2.79-2.15,5.12a9.76,9.76,0,0,1-4.8,1.25,12.2,12.2,0,0,1-1.61.12l-.17,0a1.88,1.88,0,0,0-1.54-.37c-2,.82-1.08,2.83.71,3.25a7.92,7.92,0,0,0,3,0c2.27-.18,4.72-.56,6.51-2.09C420.29,85.33,422.24,79.94,416.87,77.68Z"/>
    <path d="M499.65,93.3c-.44-1.34-1.79-1-1.95-1.18A7.15,7.15,0,0,1,494,90c-4.48-4.4-7.38-10.41-9.32-16.33-1.78-7.24-2-13.9-2.26-21.94a61.83,61.83,0,0,0-.39-6.23,1.46,1.46,0,0,0-.44-1.06,1.52,1.52,0,0,0-2.12,0c-.67.89-.63,2.47-1.22,3.54-2.14,5.41-4.48,10.51-7.11,16.55-3.78,8.69-7.21,17.53-10.83,26.3-.44,1.09-.9,2.18-1.35,3.27a1.5,1.5,0,1,0,2.9.8c5.9-14.81,11.55-27.93,17.61-42.19.28,8.85.46,17.9,3.92,26.11,2.71,5.92,6.07,13,12.34,15.78C497.19,95.25,500,95.82,499.65,93.3Z"/>
    <path d="M482.35,73.3c-1.6.35-3.21.68-4.81,1-1.8.37-3.58.79-5.38,1.11a1.66,1.66,0,0,0-1.36.77,1.52,1.52,0,0,0,1.7,2.21c3.42-.63,6.82-1.42,10.22-2.13l3.3-.72a1.44,1.44,0,0,0,1.07-1.24C487.19,71.55,483.91,73.06,482.35,73.3Z"/>
    <path d="M520.06,73.25a1.55,1.55,0,0,0-.75-1.28,1.51,1.51,0,0,0-2.22,1.61,27.34,27.34,0,0,1-.16,3.62c0,2.74-2,7.68-3.35,9.46-2.33,2.77-6.13,3.62-8.22,2.41-1.18-.79-1.11-.75-2.16-2.53l0-.1a4.87,4.87,0,0,1,0-.66,28.38,28.38,0,0,1,1.34-5.22,1.52,1.52,0,0,0-.16-2.85c-2.77-.51-3.27,3.86-3.81,5.78a9.19,9.19,0,0,0-.26,3.79A8.67,8.67,0,0,0,503,91c2,1.82,4.86,1.74,7.35,1.16,6-1.55,8.67-8.16,9.48-13.76A27.34,27.34,0,0,0,520.06,73.25Z"/>
    <path d="M539.46,85c-1.46.77-1.34,1.18-2.92,1.91l-.83.22c-1,0-.65,0-1.86-.61-1.78-1.87-.92-7.69.27-12.55,1-4,1.59-8.05,2.33-12.08.1-1.36.71-2.81.38-4.15a1.5,1.5,0,0,0-2.87.58c-.52,4.08-2,11.73-3.25,17.13-.69,4.09-2.34,11.27,1.92,13.85a5.54,5.54,0,0,0,5.35.24A8.65,8.65,0,0,0,541.22,87,1.5,1.5,0,0,0,539.46,85Z"/>
    <path d="M530.47,74.3l-4.93.85a1.46,1.46,0,0,0-.9.69,1.51,1.51,0,0,0,1.69,2.2c1.82-.31,3.63-.63,5.44-.92C534,76.27,532.6,73.48,530.47,74.3Z"/>
    <path d="M569.25,87.06c-.66-.39-1.43-.08-2.15-.15l-.43,0a2.09,2.09,0,0,1-.34-.08c-1.6-2.71-.94-7.3-2.45-10.68A3.75,3.75,0,0,0,559,73.67c-4,1.9-6.92,5.45-9.41,9l-.92,1.48v-.21c.14-2.47,1.21-6.61,1.8-10.2.63-3.9,1.11-7.83,1.68-11.74.4-3.29.88-6.57,1.18-9.87,0-.86.35-1.9-.34-2.58a1.51,1.51,0,0,0-2.56,1.06c-.62,8-1.68,13.87-2.75,21.81-.67,4.5-2.22,8.95-2,13.53a6.69,6.69,0,0,0,.49,2,2,2,0,0,0,3.15.32c1.53-1.6,2.92-4.61,4.29-6.07,2.14-2.55,4.1-4.57,6.37-5.72l.32-.09c1.57.1,1.3,5.49,2.83,10.76a4.17,4.17,0,0,0,1.7,2.27,6.85,6.85,0,0,0,4.22.29A1.5,1.5,0,0,0,569.25,87.06Z"/>
    <g>
      <path d="M248.36,276a1.5,1.5,0,0,0-2.54-1.59c-4.45,5.41-10.24,11.8-12.37,19.78-1.72,6.76-2.31,14.42.7,20.89a13,13,0,0,0,5.23,6.56,1.52,1.52,0,0,0,2.26-1.63c-.61-1.35-1.55-1.38-1.93-1.92-6.82-6.46-5.29-20.79-1.12-28.86C241.63,283.82,244.81,280.36,248.36,276Z"/>
      <path d="M256.18,307.17a10.2,10.2,0,0,1-2.48,1.05,5,5,0,0,1-4.5-.74c-.72-.79-.42-.36-.77-1a.19.19,0,0,1,0-.08s0-.06,0-.09c0-1.16,2.74-5,4.75-6,.78-.28,1.79-.25,2.27-1a1.52,1.52,0,0,0-1.63-2.26c-3.86.77-6.68,4.34-8.13,7.82-1,2.46,1,5,3.21,5.87a8.43,8.43,0,0,0,6.8-.05c1.05-.47,2.88-.88,2.7-2.36A1.5,1.5,0,0,0,256.18,307.17Z"/>
      <path d="M266.23,299.27a2.43,2.43,0,0,0-2.08.84,1.36,1.36,0,0,0-.22.95,11.35,11.35,0,0,0-1.14.86,7.15,7.15,0,0,0-3.13,4.71,4.53,4.53,0,0,0,1.79,3.82,7.17,7.17,0,0,0,5.37.75,6.12,6.12,0,0,0,4.21-4.39C272.08,303.14,270.38,299.35,266.23,299.27Zm2.06,5.94a4.53,4.53,0,0,1-.68,2,4.29,4.29,0,0,1-1.36,1l-.13.06a4.36,4.36,0,0,1-.59.17h0a4.91,4.91,0,0,1-2.36-.46l0,0-.17-.18h0a1.78,1.78,0,0,1-.28-.92c0-.2,0-.4.66-1.35a8.85,8.85,0,0,1,4-2.73,1,1,0,0,0,.24-.09C268.08,303,268.39,303.57,268.29,305.21Z"/>
      <path d="M283.46,302.4a4.88,4.88,0,0,0-5.45-2.19c-.89.33-2,1-2.06,2a.93.93,0,0,0,0,.24c-2.3,2.14-4.15,5.89-2.77,8.59,2.11,2.7,6.3,1.14,8.47-.73C284,308.5,284.33,305,283.46,302.4Zm-5.33,6.67-.32.15c-.33.15-1.69.3-.79.2a5.27,5.27,0,0,1-1.13,0l-.13,0a1.84,1.84,0,0,1-.05-.25,4,4,0,0,1,.56-2.08c.21-.53,1.46-2.61,2.58-3.07a1.39,1.39,0,0,0,.73-.91l.29.07c1.09.51.89,0,1,2C280.73,307.5,280.49,307.65,278.13,309.07Z"/>
      <path d="M294.57,298a12,12,0,0,0-5.69,5.34l-.06-2.15c-.13-2.43-.22-4.87-.41-7.29a1.48,1.48,0,0,0-.4-1.08,1.51,1.51,0,0,0-2.59,1c.37,5.69.65,11.4.46,17.11h0a1.5,1.5,0,0,0,.86,1.4,1.49,1.49,0,0,0,1.89-.55,2.51,2.51,0,0,0,.23-.75h0v0a15.4,15.4,0,0,1,.6-2c1.22-3.3,3.17-6.81,5.92-8.12a2.79,2.79,0,0,1,.42-.1,1.44,1.44,0,0,0,1.05-.67C297.74,298.5,296,297.29,294.57,298Z"/>
      <path d="M297.14,308.41c-1.46-1.64-2.93-3.29-4.38-4.94a1.49,1.49,0,0,0-1.05-.47,1.51,1.51,0,0,0-1.14,2.52q1.73,2,3.47,3.92c.58.58,1,1.49,2,1.5A1.51,1.51,0,0,0,297.14,308.41Z"/>
      <path d="M305.54,307.3a41.34,41.34,0,0,1-.09-4.31c-.13-1.26.5-2.8-.32-3.88a1.51,1.51,0,0,0-2.59,1,60.54,60.54,0,0,0,0,7.62c0,1.31.26,2.79,1.95,2.52C305.93,309.9,305.66,308.38,305.54,307.3Z"/>
      <path d="M303.18,295.21a1.5,1.5,0,0,0-.1,3A1.5,1.5,0,0,0,303.18,295.21Z"/>
      <path d="M318,306.91c-2.82,2.13-4.54,1.61-6.41,1-.66-.2-1-1.4-1-2.35a1.29,1.29,0,0,0,.78,0,18.1,18.1,0,0,0,5.23-2.72,5.75,5.75,0,0,0,2.31-2.6,3.12,3.12,0,0,0-3.12-3.79,6.66,6.66,0,0,0-3.93,1.75c-3.39,2.52-5.9,7.32-3.07,11.16a5,5,0,0,0,3,1.72,8.29,8.29,0,0,0,4.39.12,12.71,12.71,0,0,0,3.21-1.66,1.46,1.46,0,0,0,.71-.87A1.51,1.51,0,0,0,318,306.91Zm-2.63-7.38.24-.07.26,0h.05a4.22,4.22,0,0,1-.5.48,11.58,11.58,0,0,1-1,.76,19.31,19.31,0,0,1-2.23,1.29l.28-.3A8.16,8.16,0,0,1,315.39,299.53Z"/>
      <path d="M326,304.11a1.5,1.5,0,0,0-.1,3A1.5,1.5,0,0,0,326,304.11Z"/>
      <path d="M326.19,298a1.5,1.5,0,0,0-.1,3A1.5,1.5,0,0,0,326.19,298Z"/>
      <path d="M357.64,290.49a2.8,2.8,0,0,0-2.22.21,1.07,1.07,0,0,0-.25.22,9.94,9.94,0,0,0-2.37-.06c-5.43.55-8.25,6.24-10.13,10.73-3.79,9.39,2.34,14.25,11.4,14.13,6.87-.17,11.77-7.09,12-13.55C365.94,297.06,363.06,291.44,357.64,290.49Zm3.48,17.61c-2.21,3.37-4.38,4.74-8.17,4.63-3.78-.27-6.92-1.11-8.25-4.22-1.1-3.19,3.17-14.2,8.41-14.69a9.25,9.25,0,0,1,1.29,0,6.13,6.13,0,0,1,2.74,1,1.63,1.63,0,0,0,2.92,0C363.13,297.62,364.24,304.13,361.12,308.1Z"/>
      <path d="M383,309.84a18.34,18.34,0,0,1-3-4.43c-1.67-3.22-3.17-11.89-3.47-15.31a1.51,1.51,0,0,0-3-.32,69.71,69.71,0,0,1-3.39,11.37c-1.43,4.54-3.76,8.89-5,13.43a1.5,1.5,0,0,0,2.91.3c2.23-5.77,4.71-11.5,6.57-17.4.94,4.95,2.3,10,5.7,13.78,1.12,1.11,2.93,3.93,4.48,1.92C385.66,311.71,383.82,310.81,383,309.84Z"/>
      <path d="M376.9,305.11c-.82-.44-1.83-.13-2.73-.22a21.12,21.12,0,0,0-3.56,0,1.49,1.49,0,0,0,.48,2.88c1.65.07,3.31.09,5,.07A1.51,1.51,0,0,0,376.9,305.11Z"/>
      <path d="M401.06,293.31a1.51,1.51,0,0,0-1.94,1.38c.15,1.17.41.91.49,1.43a18.73,18.73,0,0,1-.33,3.17c0,.48-.27,2.4-.33,2.84-.72,4.14-4.17,7.83-6.2,7.75-2.48,0-1.38.38-3-1.19a6.67,6.67,0,0,1-1.36-3.3c0-.11,0-.28-.06-.42a47.53,47.53,0,0,1,.6-8.88l0-.12a1.56,1.56,0,0,0,.16-1.1,1.52,1.52,0,0,0-2.73-.45c-.87,1.87-.77,4.07-1,6.09-.24,3.16-.38,6.58,1.46,9.33,1.09,1.71,2.71,3.25,4.88,3.08,3.26.14,6.08-1.92,7.73-4.61a16.54,16.54,0,0,0,2.69-8.57C402.48,297.66,403.36,294.51,401.06,293.31Z"/>
      <path d="M421.27,289.79a10.48,10.48,0,0,0-2.72.24c-.08,0-1.39.09-1.69,0-1.06,0-2.13-.06-3.19-.13a80.53,80.53,0,0,0-9.94-.52,28.39,28.39,0,0,0-3.05.31h-.1l-.09,0h-.05a1.5,1.5,0,0,0,.7,2.91l.12,0a7.58,7.58,0,0,1,1.17.08c5,.36,6.61,4.09,7,9.34,0,1.63-.07,3.26-.17,4.89l-.24,4a2.09,2.09,0,0,0,.61,1.74,1.48,1.48,0,0,0,2.1-.2,5.4,5.4,0,0,0,.61-2.87c.09-2.31.18-4.62.15-6.93l-.06-.93c.09-3,.19-6,.05-8.9a36.27,36.27,0,0,0,8.73-.16A1.52,1.52,0,0,0,421.27,289.79Z"/>
      <path d="M444.64,310.84a16.38,16.38,0,0,1-.53-3.46c0-4.21.29-9.53.72-13.94a26.84,26.84,0,0,0,.9-6.47,1.51,1.51,0,0,0-1.84-1.36c-1.29.33-1.24,1.88-1.48,2.94-.26,1.49-.43,3-.56,4.5-.13.57-.28,1.18-.44,1.9-.65,3-2.29,4.85-3.37,5.24-2.87,1-8.26-1.41-10.64,2.75a72.8,72.8,0,0,1,.52-8l0-.12a1.44,1.44,0,0,0,.08-2.09,1.67,1.67,0,0,0-2.77.77c-.56,1.24-.43,2.66-.64,4-.26,5.07-.49,10.25.4,15.27a1.55,1.55,0,0,0,2.7.87c.59-.74.34-1.81.52-2.7a18.36,18.36,0,0,1,2.06-6.93c.76-.55,1-.74,3-.63,2.58.16,5.7.44,7.66-1.59.1-.09.18-.19.28-.29-.31,4.35-.57,10.35,1.54,11.38a1.51,1.51,0,0,0,1.84-1.95Z"/>
      <path d="M463.29,302.26c-3.36.3-6.79.31-10.12.57a1.5,1.5,0,0,0,.49,2.89c2.49,0,5-.17,7.47-.33,1-.17,2.28.17,3.13-.53A1.52,1.52,0,0,0,463.29,302.26Z"/>
      <path d="M463.55,296.89a19.25,19.25,0,0,0-4.44-.5,56.07,56.07,0,0,0-7-.13,1.5,1.5,0,0,0,.48,2.89c2.52.07,5,.16,7.54.3,1,0,2.13.38,3.13.1A1.5,1.5,0,0,0,463.55,296.89Z"/>
      <g>
        <path d="M473.85,305l.06,0Z" style="fill: #db003b"/>
        <path d="M474,305a.93.93,0,0,0,.1.05C474.22,305.14,474.07,305.08,474,305Z" style="fill: #db003b"/>
        <path d="M481.73,290.53c-3.22.18-10.18,2.52-8.45,6.81.8,1.75,2.74,2.31,4.22,3.33l.24.24,0,0h0c-.87.56-2.62.61-3.63.81a1.69,1.69,0,0,0-.19,3.24,6.93,6.93,0,0,0,2.54.59h0l.28.09a1,1,0,0,1,0,.14l0,0c-1.17,1.87-2.9,3.48-3.37,5.71-.33,1.59-.29,3.66,1.24,4.61,1.35.75,5.2,1.7,5.37-.66a1.53,1.53,0,0,0-1.45-1.55,5.52,5.52,0,0,1-1.39-.05,5.9,5.9,0,0,1-.85-.23h0s0,0-.05,0c-.06-.56-.24-2,1.62-4.2s2.66-4.5,1.28-5.82a3.06,3.06,0,0,0,1.69-3c-.37-2.26-2.74-3-4.41-4.1a1.42,1.42,0,0,1-.25-.24A1.71,1.71,0,0,1,476,296c.51-1.13,3.79-2.35,6.21-2.61A1.5,1.5,0,0,0,481.73,290.53Z" style="fill: #db003b"/>
        <path d="M474,305h0Z" style="fill: #db003b"/>
      </g>
      <path d="M492.06,303.23c1.24-1.25,2.14-1.33,3.94-2.69a1.5,1.5,0,0,0-1.86-2.26c-2.56,1.37-7.93,4.42-4.51,7.61,1.51,1.23,2.2,1.53,2.71,2.46a2.82,2.82,0,0,1,.07.31c0,.25,0,.66,0,.88a.56.56,0,0,1,0,.12c0,.07-.1.15-.15.22a6.2,6.2,0,0,1-4.41,1.77,1.1,1.1,0,0,0-.28-.29c-1.32-1.08-2.85.44-2.43,1.9.43,1.66,2.42,1.51,3.77,1.27a8,8,0,0,0,6-3.2,5,5,0,0,0,.25-4.18c-.56-1.55-3.27-3.3-3.46-3.47l0,0A5.63,5.63,0,0,1,492.06,303.23Z" style="fill: #db003b"/>
      <path d="M507.58,312.53a1.54,1.54,0,0,0-2.61-.9,1.47,1.47,0,0,1-.28.14c-1.57-.32-2.23-.41-1.87-3.35.25-3.39,1.5-7.51,2.17-11.84a1.5,1.5,0,0,0-2.91-.29c-.66,3-1.3,6-1.85,9-.38,2.76-1.4,6.38,1.23,8.35,1.41,1,3.42,1.6,5,.59C507.06,313.91,507.73,313.32,507.58,312.53Z" style="fill: #db003b"/>
      <path d="M506.38,301.8c-2.4.2-4.81.46-7.22.61-.78.1-1.71-.12-2.34.47a1.51,1.51,0,0,0,1,2.59c3-.19,6.09-.37,9.07-.78A1.5,1.5,0,0,0,506.38,301.8Z" style="fill: #db003b"/>
      <path d="M521.79,310.53a2.57,2.57,0,0,1-.44.11h-.09a3.66,3.66,0,0,1-.57,0l-.21-.05v0a2.09,2.09,0,0,1-.39-1c0-.09,0-.14,0-.19a1.08,1.08,0,0,1,0-.18c.68-2.16,1.33-5.3-1-5.19a1.7,1.7,0,0,0-1.43,1.39,5.09,5.09,0,0,0-4.53.31c-3.52,2.69-3,9,2.31,8.63a3.73,3.73,0,0,0,3-1.6,3.3,3.3,0,0,0,2.37,1c.91,0,2.09,0,2.64-.84A1.51,1.51,0,0,0,521.79,310.53Zm-6.11.66-.33.08h-.64a4.2,4.2,0,0,1-.43-.14h0A2.46,2.46,0,0,1,514,311c-.21-.69-.36-.34.13-1.95a1.9,1.9,0,0,1,.54-.83l.21-.11a2.85,2.85,0,0,1,.58-.12,5.63,5.63,0,0,1,.7,0l.16,0a1.92,1.92,0,0,0,.75.72v.06A6,6,0,0,1,515.68,311.19Z" style="fill: #db003b"/>
      <path d="M531.54,310.58c-1.36.18-1.1.65-1.81.9l-.26.07h-.25l-.26,0-.16,0c-.26-.14-.19-.11-.65-.69a.87.87,0,0,0-.08-.14c0-.13-.07-.25-.09-.38a29.27,29.27,0,0,1,.38-4.69c0-.1,1.17-4.28,1.52-6.21a1.31,1.31,0,0,0,.5-1.05,1.52,1.52,0,0,0-2.71-1.23c-1,1.43-.56,1.79-1,2.87A36.67,36.67,0,0,0,525,310a4.37,4.37,0,0,0,7.55,3.15A1.51,1.51,0,0,0,531.54,310.58Z" style="fill: #db003b"/>
      <path d="M533.45,302.49c-.42-1.62-2.2-1.06-3.39-.83-2.17.35-4.35.62-6.54.88a1.5,1.5,0,0,0,.71,2.91c2.4-.28,4.81-.57,7.19-1C532.55,304.39,533.74,303.81,533.45,302.49Z" style="fill: #db003b"/>
      <path d="M539.92,301.29a8.21,8.21,0,0,0-4.61,7.95c0,4.21,3.75,5.82,7.47,5.24a4.13,4.13,0,0,0,1.59-.51,1.51,1.51,0,0,0-.07-2.48,1.93,1.93,0,0,0-1.72,0,3.7,3.7,0,0,1-1.43.08c-2.36,0-2.67-.9-2.84-2.17,0-.47,0-.83,0-1.14a1.23,1.23,0,0,0,.39.07,15,15,0,0,0,5.6-.61,4.49,4.49,0,0,0,2.9-2C549,301.4,543,299.24,539.92,301.29Zm-.38,4.06c2-2,3.86-2.24,4.9-1.32,0,.06.07.13.11.2v0l-.06.09-.09.09-.41.22c-.18,0-1.23.38-1.52.41A9.49,9.49,0,0,1,539.54,305.35Z" style="fill: #db003b"/>
      <path d="M547.31,312.93c-.69,2.08-1.57,4.08-2.42,6.09-.41.93-1.16,2.19-.11,3a1.49,1.49,0,0,0,2-.05,8,8,0,0,0,1-1.9c.86-2.06,1.77-4.1,2.48-6.22A1.5,1.5,0,0,0,547.31,312.93Z" style="fill: #db003b"/>
      <path d="M595.71,299.71a2.32,2.32,0,0,0-1.79-.52,8,8,0,0,0-2,.08,6.38,6.38,0,0,1-2-.51c0-.05.05-.1.07-.14a9.89,9.89,0,0,1,.68-1c1.61-1.59,4.41-3.27,2.93-5.87a5.25,5.25,0,0,0-5.07-2.27,6.35,6.35,0,0,0-3.88,1.29,1.5,1.5,0,0,0,2.05,2.19,5.7,5.7,0,0,1,3.26-.44,2.18,2.18,0,0,1,1,.71c-.41.61-2.23,1.79-3.06,3.1-1.85,2.37-1,4.09.72,5.07a4.65,4.65,0,0,0-.46,3.11c.35,2,1.75,3.58,2.65,5.35.71,1.71.47,3-1.3,4.05a4.31,4.31,0,0,1-3.39.31,2.07,2.07,0,0,0-.85-.38,1.29,1.29,0,0,0-1.12.26,1.5,1.5,0,0,0,.07,2.47,6.38,6.38,0,0,0,4.63.73c3.24-.58,6.18-3.78,5.15-7.18-.61-2.69-3.23-5.61-2.93-6.36,0-.76.11-1.23.86-1.45l.51,0a6.23,6.23,0,0,0,2.91-.28A1.52,1.52,0,0,0,595.71,299.71Z" style="fill: #db003b"/>
      <path d="M603.64,284.18a71.87,71.87,0,0,0-4.7-7.74,1.5,1.5,0,1,0-2.64,1.43c5.57,7.9,9.9,18.11,11,25.85.72,6-1.88,12.59-3.68,17.18a31.59,31.59,0,0,1-2.31,3.61,1.55,1.55,0,0,0-.19,1.15,1.52,1.52,0,0,0,2.73.45,24.58,24.58,0,0,0,4.2-8.63,34.23,34.23,0,0,0,2.27-9.5C610.87,299.61,607.2,291.57,603.64,284.18Z"/>
      <path d="M560.52,313.46a1.51,1.51,0,0,0-2.16-.77,1.69,1.69,0,0,0-.17,2.64A1.5,1.5,0,0,0,560.52,313.46Z" style="fill: #db003b"/>
      <path d="M566.12,312.43a1.7,1.7,0,0,0-1.24,2.48,1.42,1.42,0,0,0,.44,1.12,1.93,1.93,0,0,0,3.26-.84C568.92,313.78,567.62,312.05,566.12,312.43Z" style="fill: #db003b"/>
      <path d="M577.6,313.05a1.89,1.89,0,0,0-2.33-1.26,3.89,3.89,0,0,0-2.09,1.56,1.44,1.44,0,0,0,.89,2C575.51,317.14,578.19,315.2,577.6,313.05Z" style="fill: #db003b"/>
    </g>
    <g>
      <path d="M605.42,227.3l-21.4-.49c-46.3-.66-92.62-.53-138.92-.17-38.82.38-77.62,1.77-116.43,2-27.49-.08-55,.24-82.46-.35q-15.56-.37-31.11-.77a1.51,1.51,0,0,0-1.5,1.5,1.53,1.53,0,0,0,1.5,1.5c40.63,1.33,81.27,1.19,121.9,1.09,28.58-.37,57.14-1.23,85.71-1.66q37-.69,74-.56c29.23.05,58.46-.2,87.69.41l12.89.29,8.14.19a1.5,1.5,0,0,0,0-3Z"/>
      <path d="M609.77,228.16a1.06,1.06,0,0,0-.49-.31,5.58,5.58,0,0,0-.53-.56l0,0c-1.72-2.7-3.26-2.41-5.78-3.87-.9-.94-5.28-3.06-7.57-4.38-3.11-1.69-6-3.7-9.13-5.42-2.09-1.17-4.14-2.43-6.32-3.43-.62-.25-1.24-.72-1.94-.5a1.51,1.51,0,0,0-.36,2.74c5.3,2.41,10.15,5.69,15.17,8.61,3.07,1.82,6.71,3.38,8.64,5,1.36.78,3.25,1.45,3.88,1.81a2.36,2.36,0,0,1,.2.23c.61.61.46.7,1.15,1.41-.59.46-1.12.79-2.23,1.62-2.93,1.92-8.63,5-10.38,6a42.55,42.55,0,0,0-6.52,3.15,1.6,1.6,0,0,0-.73,2.61c1.46,1.28,3.06-.77,4.46-1.27,2.41-1.26,3.44-1.32,6-2.81,3.61-2.11,7.39-4,10.71-6.53C609.24,231.27,611.16,229.85,609.77,228.16Z"/>
    </g>
    <g>
      <path d="M601.61,259.41a1.58,1.58,0,0,0-1.06-.44l-6.42-.25c-5.1-.19-10.19-.52-15.29-.64-86.39-.57-172.8,0-259.19-.23q-38.92-.19-77.83-1.1c-9.65-.22-19.31-.63-29-.57a1.5,1.5,0,0,0,0,3c32,.4,64,1.58,96,1.59,90.65.45,181.32-.4,272,.36,4.88.21,9.76.45,14.64.64,1.88,0,3.81.39,5.64.07A1.5,1.5,0,0,0,601.61,259.41Z"/>
      <path d="M229.87,241.81c-5.67,4-11.52,7.73-17.19,11.74-.65.43-3.41,2.66-2.88,2.22-1.15.65-2,2-.85,3.07a37.74,37.74,0,0,1,10.56,7.43c2.25,2.1,4.5,4.18,6.71,6.33,1.24,1.1,3.7,4,4.86,1.36a1.54,1.54,0,0,0-.15-1.15,4,4,0,0,0-1-.89q-1.72-1.51-3.36-3.15c-4.37-4.08-8.64-8.5-13.91-11.43,3.64-2.76,7.63-5.36,12-8.31,2.26-1.53,4.51-3.06,6.74-4.63a1.49,1.49,0,0,0,.69-.9A1.51,1.51,0,0,0,229.87,241.81Z"/>
    </g>
    <g>
      <path d="M612.12,796.46l-21.4-.5c-46.31-.65-92.62-.52-138.93-.17-38.81.38-77.61,1.78-116.43,2-27.48-.08-55,.23-82.45-.35-10.37-.26-20.74-.5-31.11-.78a1.5,1.5,0,1,0,0,3c40.62,1.33,81.26,1.2,121.9,1.1,28.57-.37,57.14-1.23,85.71-1.66q37-.69,74-.56c29.23,0,58.47-.21,87.69.4l12.89.3,8.15.19a1.5,1.5,0,0,0,0-3Z"/>
      <path d="M616.47,797.31A1.21,1.21,0,0,0,616,797a6.92,6.92,0,0,0-.53-.56l0,0c-1.73-2.7-3.26-2.42-5.78-3.87-.9-.94-5.28-3.07-7.57-4.38-3.12-1.69-6-3.7-9.14-5.43-2.09-1.16-4.13-2.42-6.31-3.42-.62-.25-1.24-.72-1.94-.51a1.52,1.52,0,0,0-.36,2.75c5.3,2.4,10.15,5.68,15.17,8.6,3.06,1.83,6.71,3.39,8.63,5,1.36.78,3.26,1.45,3.88,1.81a2.23,2.23,0,0,1,.21.22c.6.61.46.71,1.14,1.41-.58.47-1.11.8-2.23,1.63-2.92,1.92-8.62,5-10.38,6a42.5,42.5,0,0,0-6.52,3.14,1.61,1.61,0,0,0-.72,2.62c1.46,1.27,3.06-.77,4.45-1.28,2.42-1.26,3.45-1.31,6-2.8,3.62-2.11,7.4-4,10.72-6.53C615.94,800.42,617.86,799,616.47,797.31Z"/>
    </g>
    <g>
      <path d="M608.31,828.57a1.54,1.54,0,0,0-1.07-.44l-6.41-.25c-5.1-.2-10.19-.52-15.29-.64-86.4-.57-172.8,0-259.19-.24q-38.93-.18-77.83-1.1c-9.66-.22-19.31-.62-29-.56a1.51,1.51,0,0,0-1.5,1.5,1.53,1.53,0,0,0,1.5,1.5c32,.39,64,1.58,96,1.59,90.65.44,181.32-.4,272,.36,4.88.21,9.76.44,14.64.64,1.87,0,3.81.39,5.63.07A1.5,1.5,0,0,0,608.31,828.57Z"/>
      <path d="M236.57,811c-5.67,4-11.53,7.74-17.19,11.75-.65.43-3.41,2.65-2.88,2.22-1.15.64-2,2-.86,3.07a37.59,37.59,0,0,1,10.57,7.42c2.25,2.1,4.5,4.19,6.7,6.34,1.24,1.1,3.71,4,4.87,1.36a1.56,1.56,0,0,0-.15-1.16c-.06-.2-.73-.69-1-.88-1.16-1-2.28-2.07-3.36-3.15-4.37-4.08-8.64-8.5-13.91-11.43,3.64-2.77,7.62-5.36,12-8.31,2.26-1.53,4.52-3.07,6.75-4.64a1.47,1.47,0,0,0,.69-.89A1.52,1.52,0,0,0,236.57,811Z"/>
    </g>
    <g>
      <g>
        <path d="M464.44,465.19c-.69-.81-2-.81-3-.95a7.28,7.28,0,0,0-4.69,2.06c-2,2.68-.85,6.44.12,9.33a1,1,0,0,0,2.05-.25c-.28-1.73-.77-4.82-1.15-6.4l0-.07a2.3,2.3,0,0,1,.5-1.27,7.46,7.46,0,0,1,2.61-1.36c.58-.22,1.42.18,2.87.4A1,1,0,0,0,464.44,465.19Z"/>
        <path d="M474,472.21a4.87,4.87,0,0,1-4.19,1.31c-1.3-.44-1.47-.74-1.58-2.31,0-.17,0-.32.05-.47a.94.94,0,0,0,.6,0c1.74-.26,6-2.45,5-4.64-1.42-1.82-4.63-.9-6,.59-1.87,2.26-2.61,6.7.39,8.33a5,5,0,0,0,3.3.39,4.66,4.66,0,0,0,2.62-.81c.56-.49,1.5-.88,1.54-1.71A1,1,0,0,0,474,472.21Zm-2.36-5.06a8.3,8.3,0,0,1-2.5,1.53l-.24.06A3,3,0,0,1,471.66,467.15Z"/>
        <path d="M487.83,472.46c-.75.46-.17.36-1.23.4l-.08,0c-.08,0-.22-.12-.3-.18h0l-.07-.06a4.53,4.53,0,0,1-1.3-2.58,1.38,1.38,0,0,1-.07-.26q.09-.48.15-1c.07-.81.25-1.92-.53-2.44a1.18,1.18,0,0,0-1.68.95c-1.1-.88-2.79-1.22-3.8-.22a6.14,6.14,0,0,0-1.64,4.43,2.16,2.16,0,0,0,.65,2.06c1.32.94,4.13,2.13,5.25.37a7.65,7.65,0,0,0,.68-1.09c1.2,2,3.17,2.92,5.27,1.08A1,1,0,0,0,487.83,472.46Zm-8.58-.38h0c.1-1.63,0-1.93.54-2.87.39-.62.37-.59.59-.74.4,0,.44.07,1.1.39a.75.75,0,0,1,.16.15,1.15,1.15,0,0,0,1.09.83c-.15.59-.46,1.62-.51,1.82a5.25,5.25,0,0,1-.73,1.19,5.66,5.66,0,0,1-2.1-.68Z"/>
        <path d="M503.94,470.08c-1.08-.59-1.56.73-2,1.46-.29.41-.08.17-.66.73l-.16.13a1.49,1.49,0,0,1-.24.14c-.63-.22-.55-.11-1.17-1.39a9.61,9.61,0,0,1-.69-3.4c0-.11,0-.23,0-.34a79.34,79.34,0,0,1,1.1-10.55c.07-1,.49-2.2,0-3.17a1,1,0,0,0-1.65-.1,10.65,10.65,0,0,0-.67,1.64A59.86,59.86,0,0,0,497,466c0,.65,0,1.31,0,2-.26,2.7-.74,4.73-2.16,4.9a3.94,3.94,0,0,1-2.79-1.06c-.21-.18-.34-.74-.39-2.34a7.26,7.26,0,0,1,1.49-3.63,5,5,0,0,1,1.48,2.35c0,.47-.14,1,.26,1.35a1,1,0,0,0,1.71-.71c.24-1.83-1.07-3.46-2.3-4.67-2.44-2.22-4.66,3.44-4.64,5.31.07,1.35,0,2.89,1.1,3.88,1.84,1.66,5.07,2.3,6.74.06a4.21,4.21,0,0,0,.61-1,6.9,6.9,0,0,0,.77,1.19c1.45,1.42,3.06,1,4.28-.45C503.74,472.36,505.16,470.92,503.94,470.08Z"/>
      </g>
      <g>
        <path d="M321.68,499.18a5.11,5.11,0,0,0-1.38,3.13c-.2,1.18-.43,2.35-.67,3.53a2.17,2.17,0,0,1-.36.43c-.24.09-.43,0-.71-.11-.95-.51-1.31-1.49-1.83-3.49a1,1,0,0,0-1.86-.62c-.46,1.13.33,2.37.69,3.44a4,4,0,0,0,3.59,2.82c-.92,4.81-2.6,9.44-3.72,14.2a1,1,0,0,0,1.67,1c.43-.51.39-1.27.59-1.89.53-2,1.16-4,1.74-6,.88-2.92,1.46-5.92,2.05-8.92a10,10,0,0,0,1.34-3C323.12,502.45,324.18,498.37,321.68,499.18Z"/>
        <path d="M326.33,501.78c-1.66.55-1.55,1.57-1,2a5.13,5.13,0,0,0-1.54,4.47,4.13,4.13,0,0,0,2.95,2.66,4,4,0,0,0,2.57-.74c1.36-.53,1.58-2.07,1.78-3.34C331.28,504.37,328.92,501.59,326.33,501.78Zm2.43,6.45a12.26,12.26,0,0,1-1.29.69l-.28.08h0l-.09,0a4.17,4.17,0,0,1-.46-.26c-.8-.6-.7-.45-.86-.88a4.08,4.08,0,0,1,.54-2.18.55.55,0,0,0,.22,0,1,1,0,0,0,.43-1.82c1,.34,1.34.66,2,2,0,.14.11.4.15.53A5.85,5.85,0,0,1,328.76,508.23Z"/>
        <g>
          <path d="M339.37,505.71h0Z"/>
          <path d="M341.46,503.55c0-1.07-.69-2.72-2-2.51a1,1,0,0,0-.6,1.47.92.92,0,0,0,.29.3l.08.09.16.26a1.89,1.89,0,0,1,.05.23c0,.32,0,1.74-.1,2.32h0a1.49,1.49,0,0,0,0,.17.63.63,0,0,1,0-.16s0,.1,0,.16a8.57,8.57,0,0,1-1,2.28l-.17.17a1,1,0,0,1-.17.1l-.39.12-.52.11H337c-.34-.12-.59-.34-1.11-1.16-.85-1.34-.59-2.66-.15-4.61a1,1,0,0,0-2-.13,6.61,6.61,0,0,0,1,6.61,2.82,2.82,0,0,0,2.74,1.24,3.37,3.37,0,0,0,2.85-2A9.18,9.18,0,0,0,341.46,503.55Z"/>
        </g>
        <path d="M349.19,500.67c-.27-1.43-1.79-.7-2.59-.18a7.3,7.3,0,0,0-2.68,3.66,1,1,0,0,0-1,1.25c.15.84.24,1.29.29,1.64s-.08.66-.1,1a1,1,0,0,0,1.6.78,1.67,1.67,0,0,0,.56-1.23c0-.15,0-.3-.06-.45s0-.27.05-.41a9.23,9.23,0,0,1,1-2.79c.69-1.24.7-1.29,1.74-1.91C348.55,501.75,349.35,501.45,349.19,500.67Z"/>
      </g>
      <path d="M380.64,504.13A5.8,5.8,0,0,0,378,500.7a10.29,10.29,0,0,0-5.58-.44,2.42,2.42,0,0,0-1.4,1.08,1,1,0,0,0,.92,1.38c.77-.12.71-.36,1-.52a2.13,2.13,0,0,1,.36-.1c-.15,0,1.9,0,2.38,0a4.05,4.05,0,0,1,1.66.47,6,6,0,0,1,.91,1,7.37,7.37,0,0,0,.41.65h0c.4,1.66-.59,3.55-2.73,5.51-3,2.76-6.14,1.67-8.58-1.59-2-2.51-1-8.06.09-10.93a14,14,0,0,1,4.06-4.68,9.58,9.58,0,0,1,5.6-.83l.17,0c.47.25.9.7,1.46.53a1,1,0,0,0,.24-1.83,4,4,0,0,0-1.38-.68,12.21,12.21,0,0,0-6.39.71,15.18,15.18,0,0,0-5.64,6.11c-1.27,3.8-2.17,8.4-.24,12.12,1.71,2.73,4.93,5.24,8.32,4.53C377.34,512,381.07,508.3,380.64,504.13Z"/>
      <path d="M391.62,505a4.26,4.26,0,0,0-5.69-3.79,4.58,4.58,0,0,0-2,1.43,1,1,0,0,0-.3.7,1,1,0,0,0,.49.86,5,5,0,0,0-1.16,2.89,3.71,3.71,0,0,0,2.2,3.73,3.43,3.43,0,0,0,3.86-.27C391.24,509.61,392,507.33,391.62,505Zm-4.35,4.22c-.26.32-1.7-.24-2.08-.77a2.72,2.72,0,0,1,.54-3.12,4.55,4.55,0,0,1,1.55-1.22h0l.39.12a.94.94,0,0,0,1.2-.69,2.88,2.88,0,0,1,.74,1.61C389.83,507.33,389.83,508,387.27,509.24Z"/>
      <path d="M402.5,504.11c-.29-2.42-2.52-3.3-4.7-3.38-.87,0-2.05,0-2.62.73a1,1,0,0,0,.6,1.47.61.61,0,0,0,.23,0,5.84,5.84,0,0,0-2,3,4.09,4.09,0,0,0,.66,3.3,4.4,4.4,0,0,0,5,1C402.5,509,403.38,507,402.5,504.11Zm-2,3.18c-1.54,1.51-3.16,1.78-4.34.61l-.09-.16c-.05-.16-.09-.37-.11-.47a2.73,2.73,0,0,1,.53-1.94,7.9,7.9,0,0,1,2.35-1.95h.31l.33.06a1,1,0,0,0,.61,0l.11.11a1.28,1.28,0,0,1,.11.2,17.83,17.83,0,0,1,.49,2C400.84,506.06,400.83,507.08,400.51,507.29Z"/>
      <path d="M414.36,514a58.28,58.28,0,0,0-.95-5.88,9.87,9.87,0,0,0-.12-4.83c-.12-1-.87-2-2-1.56a1,1,0,0,0-.61.91l.06.87c-1.61-1.79-3.87.2-5.14,1.48a3.1,3.1,0,0,0-.4,3.51,5.19,5.19,0,0,0,1.9,2.64,6.08,6.08,0,0,0,2.27.49,2.61,2.61,0,0,0,2.56-.62,25.78,25.78,0,0,1,.42,7.22c-.21,3.26-2.44,5.82-3.63,5.91-1.36,0-2.93-1.52-3.35-3.93a6.52,6.52,0,0,0-.15-1.49,1,1,0,0,0-1.62-.32c-.41.39-.27,1-.25,1.48a6.85,6.85,0,0,0,.52,2.36c.77,1.94,2.6,4,4.83,3.91,2-.1,3.42-1.92,4.43-3.49C414.48,520,414.57,516.88,414.36,514Zm-3.57-4.67-.3.31-.16.09h-.23c-.15,0-1-.15-1.19-.16l-.27,0-.24,0c-.53,0-1.07-.91-1.45-2-.22-.85-.09-.68-.08-.83a5.88,5.88,0,0,1,2.3-1.86,1.72,1.72,0,0,0,.55.41.89.89,0,0,0,1.13-.3,19.9,19.9,0,0,0,.3,2l.24,1.16A6.55,6.55,0,0,1,410.79,509.3Z"/>
      <path d="M418.62,510.81c0-.13-.09-.59-.12-.84-.53-5.64-.49-11.33-.46-17,.37-1.61-1.76-2.2-2-.52-.11,4.05,0,8.11.11,12.16a53.65,53.65,0,0,0,.4,5.81c.07.65.13,1.56,1,1.62A1,1,0,0,0,418.62,510.81Z"/>
      <path d="M427.93,507.41a1,1,0,0,0-1.21-.15,8.81,8.81,0,0,1-1.59.56c-2.19.5-1.71.47-2.41-.82a3.84,3.84,0,0,1-.25-1.41,8.48,8.48,0,0,0,2.15-1.72,3.91,3.91,0,0,0,1.27-2.09,2.69,2.69,0,0,0-.61-1.93,2.4,2.4,0,0,0-2.71.46,7.64,7.64,0,0,0-2,4l-.16.07a1,1,0,0,0,.07,1.75,6.49,6.49,0,0,0,.53,2c.85,2.07,2.54,2.3,4.49,1.65C426.58,509.49,429.09,508.93,427.93,507.41Z"/>
      <g>
        <path d="M444,497.78a6,6,0,0,0-3.65,3.62,16.24,16.24,0,0,0-1.44,8.89c.41,3.3.89,6.76,2.84,9.54.45.95,1.67,1.34,2.11.16.61-3.72,0-7.56-.27-11.29-.09-.81-.2-1.71-.31-2.61,1.73,1.28,3.74.09,5.2-1C453.79,501,450.07,494.85,444,497.78ZM441,511.57a14.73,14.73,0,0,1,.08-6.37c.14,1,.3,2,.38,3.06.27,2.61.53,5.24.56,7.86A21.87,21.87,0,0,1,441,511.57Zm7.24-9.08c-.56.92-3.15,2.26-3,2.16-1,0-.49,0-1.53-.65a.87.87,0,0,0-.74,0,13.46,13.46,0,0,1-.07-2.78,1,1,0,0,0-.1-.35,5.43,5.43,0,0,1,2.1-1.33c2.52-1,3.66-.42,4.1.78a1.69,1.69,0,0,1,0,.32v.06a4.49,4.49,0,0,1-.91,2Z"/>
        <path d="M457.34,497.74a1.12,1.12,0,0,0-1.52-.32c-1.47.51-2.22,2-2.82,3.42l0,0a1,1,0,0,0-1.47,1.13c.44,1.54.42,3.26,1.12,4.71a1,1,0,0,0,1.65-.1c.05-.28.07-.53.1-.77h0v0c.23-2.26-.25-3.43,1-5.14.61-1,.63-1.07.94-1.25a2.72,2.72,0,0,0,.8-.34A1,1,0,0,0,457.34,497.74Z"/>
        <path d="M467.69,501.37a4.8,4.8,0,0,0-3.27-2.72,8.2,8.2,0,0,0-2.1.09,1.09,1.09,0,0,0-.93.51.92.92,0,0,0,0,.92,6.24,6.24,0,0,0-1.24,4.8c.7,2,3.71,2.1,5.35,1.29A4,4,0,0,0,467.69,501.37Zm-5.57,3.1-.07,0a.13.13,0,0,1,0-.06,2.6,2.6,0,0,1,.07-1,9.6,9.6,0,0,1,.32-1.19c.46-.9.35-.75.79-1,.1,0,.38-.14.5-.17a.94.94,0,0,0,.52-.37h0a3,3,0,0,1,1.31,1.07C466.92,503.57,464,505.48,462.12,504.47Z"/>
        <path d="M477,487.63a3.28,3.28,0,0,0-5.36-1.16,8,8,0,0,0-2,5.56c-.1,4,.55,8,.83,11.92a92.7,92.7,0,0,1-.06,12.44,18.82,18.82,0,0,1-1.06,4.15,1,1,0,0,0,0,1.25c1.49,1.42,2.12-1.17,2.44-2.25,1-3.45.82-7.06.82-10.6.15-5.6-1-11.12-1-16.72.08-2.7,1-4.79,2.71-4.68l.17.1a5.74,5.74,0,0,1,.6.61c.44.35.86,3.48.64,4.56a27,27,0,0,1-2.2,6.52c-.21.65-.78,1.26-.63,2a1,1,0,0,0,1.83.24C476.58,497.24,479,492.3,477,487.63Z"/>
        <path d="M475.11,505.17c-.61-.33-1.29.07-1.92.15-1.51.35-3,.54-4.56.81l-1.93.25c-.51.11-1.13,0-1.53.4a1,1,0,0,0,.7,1.71,85.93,85.93,0,0,0,9-1.5A1,1,0,0,0,475.11,505.17Z"/>
        <path d="M480.5,502.6c-.14-.57-.15-1.3-.7-1.63a1,1,0,0,0-1.47,1.13c.67,2.43.59,4.42.85,7.33a1,1,0,0,0,1.93,0A41.29,41.29,0,0,0,480.5,502.6Z"/>
        <path d="M480.1,495.66a1,1,0,0,0,0,2A1,1,0,0,0,480.1,495.66Z"/>
        <path d="M487.2,492.39c.1-.47.36-1,.07-1.41a1,1,0,0,0-1.83.24c-.9,4.39-.68,9-.64,13.42a43.58,43.58,0,0,0,.49,4.43,1.38,1.38,0,0,0,.56,1.11,1,1,0,0,0,1.47-.6,8.57,8.57,0,0,0-.18-1.61A69.37,69.37,0,0,1,487.2,492.39Z"/>
        <path d="M495.92,496.37a2.87,2.87,0,0,0-2.44.17,7.12,7.12,0,0,0-3.5,4.52.74.74,0,0,0-.4.23,1,1,0,0,0,.09,1.48,8,8,0,0,0,.19,2.54c.9,1.75,3.13,2.3,4.95,2.5,1.08.35,2.11-.69,1.28-1.65-.31-.33-.77-.29-1.19-.34a5.91,5.91,0,0,1-2.71-.85,2.2,2.2,0,0,1-.25-.17,1.75,1.75,0,0,1-.2-.19.36.36,0,0,1-.05-.09,1.27,1.27,0,0,1,0-.14c0-.42,0-.95.05-1.52a15.73,15.73,0,0,0,3.67-1.11c.87-.35,1.92-.71,2.24-1.69A3.86,3.86,0,0,0,495.92,496.37Zm-3.05,4.18-.67.18a4.46,4.46,0,0,1,.76-1.24,3.59,3.59,0,0,1,2-1.33l.18.2a4.08,4.08,0,0,1,.28.44l0,.09,0,.11a2.64,2.64,0,0,1,.11.41A11.25,11.25,0,0,1,492.87,500.55Z"/>
        <path d="M507.82,500.65a4.55,4.55,0,0,1-2.4-.84,3.76,3.76,0,0,1,.38-.57c.21-.66,3.05-3.08,4.33-4.82.8-1.22,2-2.42,1.91-4a4.34,4.34,0,0,0-2.84-3,5.49,5.49,0,0,0-5.1,1.9,1.43,1.43,0,0,0,.23,2,1,1,0,0,0,1.49-1l.06-.07a4.5,4.5,0,0,1,2.13-1h.46a2.63,2.63,0,0,1,1.58,1.29v0a1.58,1.58,0,0,1-.24.66c-1.36,2.6-3.27,3.75-5.25,6.26-1.82,2-1.73,3.8,1.81,4.85a10.43,10.43,0,0,0,2.84.23,1,1,0,0,0,.91-.61C510.57,500.44,508.85,500.66,507.82,500.65Z"/>
        <path d="M505.84,507.66a1,1,0,0,0-.25.65c.12,1.56,2.19,1.1,2.19-.27A1,1,0,0,0,505.84,507.66Z"/>
      </g>
      <g>
        <path d="M326.4,460.26a3.93,3.93,0,0,1,1-.47l.45-.1H328c1.7,0,3,.24,3.62,1a1,1,0,1,0,1.55-1.23c-1.56-2-5.92-2.33-7.89-.78a18.47,18.47,0,0,0-6.8,13.39,6.14,6.14,0,0,0,1.46,5.28c2.05,2.61,5.09,3,8.17,2.37a21.19,21.19,0,0,0,4.35-1.24,1,1,0,0,0,.6-.46,1,1,0,0,0-.6-1.47c-1.09,0-2.14.74-3.24.89-2.51.55-4.61.95-6.2,0a7.15,7.15,0,0,1-2.38-2.59,2.61,2.61,0,0,1-.21-.65A16.68,16.68,0,0,1,326.4,460.26Z"/>
        <path d="M346.69,475.12c-1.29.34-.89.67-2.08.6h-.11l-.1,0,0,0-.06-.06-.05-.07a4.28,4.28,0,0,1-.56-2.1c0-.73,0-1.2,0-1.51a4.31,4.31,0,0,0-.09-.88,1,1,0,0,0-1.62-.32s0,.07-.07.1a.77.77,0,0,0-.16-.07,5.1,5.1,0,0,0-3.33.29,3.34,3.34,0,0,0-2.41,1.68,4.32,4.32,0,0,0,1.05,5.19,3.18,3.18,0,0,0,3.34.5,3.94,3.94,0,0,0,2.16-1.85c1,1.52,3.28,1.42,4.65.42A1,1,0,0,0,346.69,475.12Zm-8.17,1.43c-.12-.13-.36-.39-.51-.57a5.69,5.69,0,0,1-.36-.56,1.27,1.27,0,0,1-.06-.18,2.52,2.52,0,0,1,.31-1.8l.14-.15.27-.14c-.47.19,1.59-.52,2.06-.57h.33a2.51,2.51,0,0,0,.91.13h0c0,.16,0,.3,0,.37C341.21,476.26,339.59,477,338.52,476.55Z"/>
        <path d="M357.4,475.75c0-.12-.09-3.2-.86-4.15-1.94-2.56-4.33-.35-5.76,1.89-.1-.57-.2-1.14-.29-1.7s-.14-1.18-.66-1.47a1,1,0,0,0-1.47,1.13c.29,1,.75,4.31.77,4.35a1.74,1.74,0,0,0,.36,1.23,1.22,1.22,0,0,0,2-.53c.48-1.44,2-3.77,3.12-4l.12.07.11.11c.79,1.15.16,2.93,1,4.59a1,1,0,0,0,1.65-.11C357.73,476.68,357.46,476.22,357.4,475.75Z"/>
      </g>
      <g>
        <path d="M382.91,477.53a28.47,28.47,0,0,0-3.08-2.84,12.35,12.35,0,0,0-6-1.94l-.56-.16h0c.15-.59,0-.12.32-.81,1.83-3.64,4.18-7,6.1-10.57.54-1.09,1.42-2.18,1.53-3.41a1,1,0,0,0-1.95-.13c-1.39,3.1-4.48,7.83-6.61,11.56-1.3,2.34-2.81,5.16,1.15,5.52a10.19,10.19,0,0,1,5.44,2c.76.71,1.48,1.46,2.23,2.17a1,1,0,1,0,1.41-1.41Z"/>
        <path d="M401.48,474.05a30.26,30.26,0,0,1-1.62-3.45c-1.35-3.1-2.84-6.71-2.87-9.34-.06-.83.1-2.16-1.07-2.19-1.34.11-1.12,1.9-1.42,2.87a32.27,32.27,0,0,1-2,5.34c-1.24,3.33-3,6.56-4,10a1,1,0,0,0,1.94.14c1.5-4.2,3.63-8.2,5.08-12.41a61.24,61.24,0,0,0,4.05,10c.52.86,1.57,2.2,2.47.95C402.65,474.93,401.48,474.24,401.48,474.05Z"/>
        <path d="M401.07,471a11.64,11.64,0,0,0-2.84-.19c-1.63.07-3.32-.16-4.92,0a1,1,0,0,0,.38,1.92c1.63.07,3.25,0,4.88.05.88-.09,2,.35,2.71-.24A1,1,0,0,0,401.07,471Z"/>
        <path d="M407.8,473.49c-.34-4.07-.89-8.16-1.21-12.21a1,1,0,0,0-1.92.38c.16,4,.87,7.88,1.13,11.83,0,.71.06,1.42.07,2.12a1.32,1.32,0,0,0,.29,1.06,1,1,0,0,0,1.57-.2A9.91,9.91,0,0,0,407.8,473.49Z"/>
        <g>
          <path d="M408.09,468.27a.13.13,0,0,0,0,.08l0,0A.28.28,0,0,1,408.09,468.27Z"/>
          <path d="M414.94,462.14c-1-2.41-3.51-3.24-6-3.12a4.6,4.6,0,0,0-4.17,3c-.62,1.34-1.17,3.19,0,4.38a1,1,0,0,0,1.47-1.29c-.59-.51.63-3.12,1.19-3.57,1.1-.67.76-.55,2.22-.53s1.94.18,2.72.88a4.5,4.5,0,0,1,1,1.77c0,.12,0,.3,0,.4-.81,2.54-2.1,3.77-5.22,4.35l0,0v0h0l0,0c-.09-.16-.26-.44-.41-.47a1,1,0,0,0-1.46.6,1.79,1.79,0,0,0,.76,1.64c1.06.74,2.49.07,3.59-.27a6.41,6.41,0,0,0,3.57-2.79C415.21,465.67,415.91,463.75,414.94,462.14Z"/>
        </g>
        <path d="M419.58,460.47a1,1,0,0,0-2,0c.29,4.84,1.06,9.68.89,14.54.06.34-.42.83.3,1.5a1,1,0,0,0,1.32-.08c.45-.52.33-1.31.41-2C420.56,469.79,419.88,465.13,419.58,460.47Z"/>
        <path d="M427.87,460.15l-.15-.19a3.16,3.16,0,0,0-1.12-1,4.68,4.68,0,0,0-2.2-.23,6,6,0,0,0-4,1.23c-1.21,1-2.59,2.23-2.68,3.86a1,1,0,0,0,1.95.14,5.4,5.4,0,0,1,3.25-3.09,13.12,13.12,0,0,1,2.79-.13,2.77,2.77,0,0,1,.25.24,4.86,4.86,0,0,1,.85,1.22l0,.11c0,.07,0,.15,0,.23,0,.75,0,2.41-.05,2.29a9.54,9.54,0,0,1-1.06,2.41,6.34,6.34,0,0,1-2.95,1.67,2.43,2.43,0,0,1-1.79-.38l-.27-.28a1,1,0,0,0-1.92.13c-.17.66.39,1.2.83,1.62,2.25,1.85,5.37.62,7.3-1.1a9.41,9.41,0,0,0,1.67-3.12,10.52,10.52,0,0,0,.24-2.75A3.64,3.64,0,0,0,427.87,460.15Z"/>
        <path d="M443.21,463.44l0,0-.08-.06a15.17,15.17,0,0,0-3.4-2.27c-2.33-1.14-4.51-2.57-6.83-3.7a1,1,0,1,0-.54,1.93c2.75,1.63,5.64,3,8.37,4.66l.06,0,.91.74a41.74,41.74,0,0,1-4.51,5.74,30,30,0,0,0-3.2,4.24,2.13,2.13,0,0,0-.43,1.26,1,1,0,0,0,1.48.73c.68-.61.57-1,1.35-2a40.7,40.7,0,0,1,3.71-4.51,51.41,51.41,0,0,0,3.23-4.27,2.41,2.41,0,0,0,.4-1.4A1.5,1.5,0,0,0,443.21,463.44Z"/>
      </g>
      <g>
        <path d="M356.12,542.19a2.11,2.11,0,0,0-2.61-1.45c-1.46.51-2.11,2.15-2.91,3.36a41.23,41.23,0,0,1-3.33,5.3c-.13.16-.25.33-.37.5a7.14,7.14,0,0,1-2.59,1.18,73.13,73.13,0,0,1-3.46-6.51,2,2,0,0,0-3.5,1.74,42.58,42.58,0,0,0,2.64,5.33c.72,1.56,1.88,3.16,3.63,3.44.08.38.19.76.28,1.13.33,1.1.46,2.25.73,3.37.49,2,1,6.19,4,5.19a2,2,0,0,0,.87-2.95,2.5,2.5,0,0,1-.21-.35c-.06-.18-.13-.36-.18-.54-.49-1.78-.81-3.59-1.22-5.38a22.38,22.38,0,0,0,1.93-2.86,13.11,13.11,0,0,0,1.78-1.71,23.48,23.48,0,0,0,3.68-5.46C355.69,544.47,356.38,543.37,356.12,542.19Z"/>
        <path d="M367.88,544.07a4.84,4.84,0,0,0-2.51-.22c-2.34.24-3.23.4-4.52.5-2.27.15-4.71,1.55-5.2,3.91-.18,2.3.32,2.31.45,4.73.1.68.19,1.22.27,1.71a57,57,0,0,0,.21,6.54,2.1,2.1,0,0,0,3.79.58c.68-2,.28-4.3.12-6.38,0-.25-.07-.48-.1-.7,0-1.07,0-2.15,0-3.23s.29-2.07-.29-2.89l.32-.16.05,0c1-.2,3.09-.38,4.82-.58a7.86,7.86,0,0,0,2.33-.24A2,2,0,0,0,367.88,544.07Z"/>
        <path d="M367.53,552.41c-1.77-.68-3.8-.14-5.65,0-.95.16-2.09,0-2.82.72a2,2,0,0,0,1.42,3.42c1.56-.13,3.11-.37,4.67-.41.71-.05,1.49.19,2.14-.14A2,2,0,0,0,367.53,552.41Z"/>
        <path d="M367.83,560.07c-1.65-.62-3.57-.05-5.32-.16-1.15.14-2.55-.23-3.45.67a2,2,0,0,0,1.42,3.41c2.11-.09,4.23-.14,6.34-.2a2,2,0,0,0,1.42-.58A2,2,0,0,0,367.83,560.07Z"/>
        <path d="M378.39,551.14l-.2,0a7.83,7.83,0,0,1-.94-.19l.19-.18a9.27,9.27,0,0,1,2.42-1.7,11.74,11.74,0,0,1,3-1.21,2.56,2.56,0,0,0,1.48-.48,2,2,0,0,0-1.74-3.5,16,16,0,0,0-6.21,2.6c-1.3,1-2.77,2-3.35,3.58-.82,2.15,1.12,4.19,3.09,4.76,4,.89,3.53-.31,4.66,2.85a5.1,5.1,0,0,1,.31,2.24,1.89,1.89,0,0,1-.09.34v0c-.71.47-.87.52-2.58.71h-.62a3.16,3.16,0,0,1-.52-.17,2,2,0,0,0-3,2.23c.71,1.93,3.33,2.09,5.09,1.85,6.69-.47,6.79-6.25,4.13-11.06C382.2,551.5,379.36,551.21,378.39,551.14Z"/>
      </g>
      <g>
        <path d="M457.91,552.45V545.4a2.08,2.08,0,0,0-2.53-2.43,2,2,0,0,0-1.47,1.92v4.84c0,2.1,0,4.21,0,6.31-4.15-2.15-5.44-4.7-8.26-9.49-.09-.25-.23-.61-.28-.8a2,2,0,0,0-2.7-1.29c-1.31.45-1.28,2-1.23,3.12,0,2.48-.07,5-.1,7.44,0,1.89-.07,3.79-.15,5.69a2,2,0,0,0,4,0c.09-2.37.13-4.74.17-7.11l.33.51a16.81,16.81,0,0,0,7.6,6C459.18,563.11,457.72,555.89,457.91,552.45Z"/>
        <path d="M473.64,554.14a9.38,9.38,0,0,0-2.09-3.4,10.71,10.71,0,0,0-1.28-1.48,2,2,0,0,0-.88-2.25,4.09,4.09,0,0,0-4.42.28,1.45,1.45,0,0,0-.47.3,12.8,12.8,0,0,0-4.4,5.72,6.12,6.12,0,0,0,.44,4.87,6.79,6.79,0,0,0,7.41,2.68,8.21,8.21,0,0,0,3.88-1.55A5.76,5.76,0,0,0,473.64,554.14Zm-7.4,3h-.4a3.77,3.77,0,0,1-.58-.14,3.65,3.65,0,0,1-1.32-.93l-.05-.1a2.45,2.45,0,0,1-.08-.29c.14-1.69-.18-.75.81-2.56l.08-.12a14.1,14.1,0,0,1,1.51-1.58,5.07,5.07,0,0,1,1.18.61l.06.06a12.93,12.93,0,0,1,2.31,3v0a2.17,2.17,0,0,1-.63,1.22c-.12.07-.24.14-.37.2C468.15,556.76,466.48,557.08,466.24,557.14Z"/>
      </g>
      <g>
        <path d="M522.88,436.15c-3.11,0-6.22,0-9.33.11-27.57.44-55.15-.35-82.73-.36-25.75-.07-51.5.62-77.24,1.26-17.72.63-35.45,1.18-53.16,2.24-1.63.14-3.27.29-4.89.49a1,1,0,0,0-.71.29,1,1,0,0,0,.71,1.71c13.23-1.36,26.55-1.44,39.83-2.06,25.67-1.07,51.37-1.51,77.06-1.86,33.73-.4,67.47.8,101.2.29,3.48-.08,7-.13,10.44-.11a1,1,0,0,0,.92-.62C525.34,436.05,524,436.1,522.88,436.15Z"/>
        <path d="M296.25,477.75c-.44-9.49-1-19-1.48-28.46-.11-2.38-.27-4.77-.24-7.16a1,1,0,0,0-.29-.7,1,1,0,0,0-1.71.7c.52,18.91,2.24,37.77,2.52,56.68.34,13.22.19,26.44.22,39.66.25,15-.47,29.89-1.3,44.83,0,.64-.27,1.31-.06,1.92a1,1,0,0,0,1.62.32c.65-1.12.34-2.62.53-3.88q.66-12.79,1.21-25.6V528.41C297.3,511.52,297.25,494.62,296.25,477.75Z"/>
        <path d="M525.5,471.24c.36,10.53.81,21,1.23,31.56.73,28.09,1.62,56.16,2.28,84.25.44-.1.88-.2,1.31-.27a9.86,9.86,0,0,1,.65-1.2c-.88-33.71-1.63-67.42-3-101.1-.44-10.69-.62-21.41-1.54-32.07-.91-5.68-1-11.61-2.72-17.12a1,1,0,0,0-1.75.88C524.37,447,525.11,459.38,525.5,471.24Z"/>
        <path d="M529.21,587c.37-.08.75-.17,1.11-.23a9.25,9.25,0,0,1,1-1.68c-3-.1-6.07-.31-9.09-.57-17.4-1.72-34.88-1.88-52.33-2.59-40.18-1.84-80.43-1.39-120.61.32-16.64.8-33.29,1.24-49.95,1.63-1.11,0-2.22,0-3.33.13a1,1,0,0,0,0,2c22.9-.59,45.8-1.34,68.68-2.39,16.63-.51,33.26-.66,49.88-1,23.27.05,46.52.92,69.76,1.81,12.72.37,25.44.85,38.11,2.09C524.7,586.77,527,586.9,529.21,587Z"/>
      </g>
    </g>
    <g>
      <path d="M135.31,220.38c-23-7.95-39.77,14.17-48.24,32.62a44.82,44.82,0,0,0-3.67,17.67c0,4.94-.08,10,1.13,14.8.5,1.41.37,3.36,1.84,4.15a2.23,2.23,0,0,0,3.08-2.69c-2-5.5-1.81-15.72-1.46-20.74,1.12-8.26,3.75-13.35,8-20.58,13.67-25,40-32.88,54.78-4.17,3.47,6.9,6.22,18,6.73,27.29q.54,7.44.69,14.9a2.22,2.22,0,0,0,4.17.85C163,261.82,159.21,230.19,135.31,220.38Z"/>
      <path d="M159.23,282.44c-1.18-.62-2.3.15-3.31.74l-.26.14h0c-3,1.09-5.92,2.34-8.94,3.3a46,46,0,0,1-9.36,1.14c-9.74.52-19.52,1.45-29.28,1.05-4.3-.43-14.25-2.12-20.31-4.42a2.21,2.21,0,0,0-.91,4.32,90.47,90.47,0,0,0,21.9,4.52c6,.32,12-.2,18-.4,6.58-.55,13.26-.42,19.75-1.65a65.33,65.33,0,0,0,12.52-4.7A2.22,2.22,0,0,0,159.23,282.44Z"/>
      <path d="M138.41,171.56c-9.75-5.22-23.11-3.63-31.42,3.65-10.19,9-11,23.48,1.26,31.11,2.35,1.75,2.45,1.69,4.77,3.3a2.2,2.2,0,0,0,1.27.54,2,2,0,0,0,.64,1c1.31,1,3.17.54,4.71.7a33,33,0,0,0,13-2.4,28.45,28.45,0,0,0,7.39-5.66C148.77,195,149.57,178.7,138.41,171.56Zm-7.68,34a33,33,0,0,1-13.19,1.88,5.34,5.34,0,0,0-1-.1,2,2,0,0,0-.65-1c-5.29-3.64-10.31-6.51-11.93-11.76-1.88-6.17,2.16-14.47,9.35-18.54,6.36-3.5,16.48-4.66,23.53-.23,2,1.08,5.59,6.9,5.5,10.9C142.54,194.22,138.52,201.15,130.73,205.56Z"/>
      <path d="M143.18,187c0-.08,0-.15,0-.23a4.35,4.35,0,0,0,.51-.74,7.47,7.47,0,0,0-.42-6c-1.13-1.26-.93-1.75-2.92-2.58a3.9,3.9,0,0,0-.76,0,2.94,2.94,0,0,0-1.56-.51,6.87,6.87,0,0,0-2.51-2,14.62,14.62,0,0,0-2.37-1.11,3.62,3.62,0,0,0-.62-1.06,3.27,3.27,0,0,0-.3-1c-.72-1.14-2.16-1.09-3.29-.68a17.14,17.14,0,0,1-4.64.75c-1.84.13-3.73,0-5.56.33a2.31,2.31,0,0,0-1.13.24l-.32.08a11.27,11.27,0,0,0-3.42,2.4,38.73,38.73,0,0,0-4.37,1c-2.85,1.16-4,3.93-4.81,6.79a9.59,9.59,0,0,0-1.13,2,7.69,7.69,0,0,0-.84,2.26,7.28,7.28,0,0,0-.9,3.54A2.34,2.34,0,0,0,103,192.4a6.44,6.44,0,0,0,.81,2.4,3.38,3.38,0,0,0-.46,1.65,2.41,2.41,0,0,0,2.26,2.35,4.74,4.74,0,0,0,.71,1.67,4.89,4.89,0,0,0,2.79,2.11c.16.22.31.43.47.63a6,6,0,0,0,2,1.77,5.15,5.15,0,0,0,.87.48c0,.15.07.3.11.45,1.43,3,5.07,3.72,8.1,3.25,2.64,1.36,6.53.58,9-1.38l.08-.07H130a10.31,10.31,0,0,0,3.41-1.39,3.26,3.26,0,0,0,1.55-1c.76-.73,1.35-1.61,2.06-2.39a27.13,27.13,0,0,0,3-4.12c.35-.48.71-.94,1-1.43.82-1.54,2.26-3,2.22-4.79a2.5,2.5,0,0,0-.07-.41,3.85,3.85,0,0,0,.23-1.13,2.81,2.81,0,0,0-.8-2.18c0-.14,0-.28,0-.41A5,5,0,0,0,143.18,187Z"/>
      <path d="M158.15,277.26c.07-.32.14-.64.2-1s.12-.74.16-1.13v0a10.18,10.18,0,0,0,.07-1.35c0-.41,0-.82,0-1.21s-.07-.79-.1-1.2c0-.75-.14-1.52-.17-2.25q-.4-3.27-.85-6.53h0c1.18-3.05-.66-12.27-3.7-14.21-.1-.24-.19-.48-.31-.72a1.79,1.79,0,0,0-.46-.49c0-.16-.1-.31-.15-.46a7.58,7.58,0,0,0-.55-3.73,25.3,25.3,0,0,0-2.48-5.61,16.65,16.65,0,0,0-2.09-4.33,3.06,3.06,0,0,0-.6-1.12,15.91,15.91,0,0,0-7.75-5.47,7.34,7.34,0,0,0-3.5-1.87,4.66,4.66,0,0,0-1.76.07,9.09,9.09,0,0,0-.78-.48,4.63,4.63,0,0,0-6.22-1.24,4.71,4.71,0,0,0-.52-.09,1.89,1.89,0,0,0-.42-.52,4.31,4.31,0,0,0-4.41-.05,3.17,3.17,0,0,0-.53,0c-1.31-.18-3.53.84-5.91,2.48a4.39,4.39,0,0,0-1.49.34,2.15,2.15,0,0,0-1.58.35,76.43,76.43,0,0,0-8,8.56l-.26,0c-1.55.41-2.48,2-3.6,3.08a39.27,39.27,0,0,0-7,9.79,19.43,19.43,0,0,0-1.56,4.57,2.92,2.92,0,0,0,0,1.58c-1.27.94-1.54,3-2.14,4.44-1.52,4.29-2.75,8.79-2.19,13.39a5.11,5.11,0,0,1,0,.55c0,.18-.06.36-.08.5a45.12,45.12,0,0,0-.12,8.85c.32,1.63.11,4.3,1.27,5.48a2.2,2.2,0,0,0,3.11-.25,5.17,5.17,0,0,0,3.92,1,5.84,5.84,0,0,0,3,2.13,5.44,5.44,0,0,0,3.35.33,4,4,0,0,0,2.28.44,6.63,6.63,0,0,0,2.62-1.06,4.6,4.6,0,0,0,3.47.83,4.53,4.53,0,0,0,.53.05c.24,0,1.42.16,1.77.17a5.42,5.42,0,0,0,2.7-.63,18.35,18.35,0,0,0,2.35.25,8.08,8.08,0,0,0,3.32.45c1.59-.05,3.18.1,4.77,0a3.75,3.75,0,0,0,2-.49,9.29,9.29,0,0,0,3.61-.59,2,2,0,0,0,1.57.53,70,70,0,0,0,8.31-1.93c.78,0,1.58-.15,2.37-.23l.16.13a2.91,2.91,0,0,0,2.59.37l-.37.07a9.51,9.51,0,0,0,2.55-.77,18.74,18.74,0,0,0,2.42-1,9.56,9.56,0,0,0,1.32-.57,3,3,0,0,0,.69-.49c.31-.19.61-.4.91-.61,0,0,0,.05,0,.07a2.53,2.53,0,0,0,3.88.93,2,2,0,0,0,.86-.78C159.85,282.77,160,278.46,158.15,277.26Z"/>
      <path d="M120,206.88a6,6,0,0,0-1.87-.61,2.74,2.74,0,0,0-1.58-1.26,56.89,56.89,0,0,1-6.88-2.9,38.2,38.2,0,0,1-3.33-3.18,2.85,2.85,0,0,0-.62-.94,2,2,0,0,0-.48-.82,2.2,2.2,0,0,0-3.61.45c-.45.88-.08,2,.74,3.29,0,.08.07.16.11.25a8.38,8.38,0,0,0,2.59,3.14l.75.72c2.43,2.86,5.71,5.73,9.56,6.17a8.38,8.38,0,0,0,3.21.26C121.3,211.5,122.6,208.22,120,206.88Z"/>
    </g>
    <g>
      <path d="M135.31,502.42c-23-7.95-39.77,14.17-48.24,32.62A44.81,44.81,0,0,0,83.4,552.7c0,4.95-.08,10,1.13,14.81.5,1.41.37,3.36,1.84,4.15A2.23,2.23,0,0,0,89.45,569c-2-5.5-1.81-15.72-1.46-20.74,1.12-8.26,3.75-13.35,8-20.58,13.67-25,40-32.88,54.78-4.17,3.47,6.9,6.22,18,6.73,27.29q.54,7.44.69,14.9a2.22,2.22,0,0,0,4.17.85C163,543.86,159.21,512.23,135.31,502.42Z"/>
      <path d="M159.23,564.48c-1.18-.62-2.3.15-3.31.74l-.26.14h0c-3,1.09-5.92,2.34-8.94,3.3a46.69,46.69,0,0,1-9.36,1.14c-9.74.52-19.52,1.45-29.28,1.05-4.3-.43-14.25-2.12-20.31-4.42a2.21,2.21,0,0,0-.91,4.32,90.47,90.47,0,0,0,21.9,4.52c6,.32,12-.2,18-.4,6.58-.55,13.26-.42,19.75-1.65a65.33,65.33,0,0,0,12.52-4.7A2.22,2.22,0,0,0,159.23,564.48Z"/>
      <path d="M138.41,453.6c-9.75-5.23-23.11-3.63-31.42,3.65-10.19,9-11,23.48,1.26,31.11,2.35,1.75,2.45,1.69,4.77,3.3a2.2,2.2,0,0,0,1.27.54,2,2,0,0,0,.64,1c1.31,1,3.17.54,4.71.7a33.34,33.34,0,0,0,13-2.4,28.45,28.45,0,0,0,7.39-5.66C148.77,477,149.57,460.74,138.41,453.6Zm-7.68,34a33,33,0,0,1-13.19,1.88,5.34,5.34,0,0,0-1-.1,2,2,0,0,0-.65-1c-5.29-3.64-10.31-6.51-11.93-11.76-1.88-6.17,2.16-14.47,9.35-18.55,6.36-3.49,16.48-4.65,23.53-.22,2,1.07,5.59,6.9,5.5,10.9C142.54,476.26,138.52,483.19,130.73,487.6Z"/>
      <path d="M143.18,469.08c0-.08,0-.16,0-.23a4.35,4.35,0,0,0,.51-.74,7.47,7.47,0,0,0-.42-6c-1.13-1.26-.93-1.75-2.92-2.58a3.9,3.9,0,0,0-.76,0,2.94,2.94,0,0,0-1.56-.51,6.87,6.87,0,0,0-2.51-2,14.62,14.62,0,0,0-2.37-1.11,3.62,3.62,0,0,0-.62-1.06,3.27,3.27,0,0,0-.3-1c-.72-1.14-2.16-1.09-3.29-.68a17.14,17.14,0,0,1-4.64.75c-1.84.13-3.73,0-5.56.32a2.44,2.44,0,0,0-1.13.25l-.32.08a11.27,11.27,0,0,0-3.42,2.4,38.73,38.73,0,0,0-4.37,1c-2.85,1.16-4,3.93-4.81,6.79a9.59,9.59,0,0,0-1.13,2,7.69,7.69,0,0,0-.84,2.26,7.28,7.28,0,0,0-.9,3.54,2.31,2.31,0,0,0,1.15,1.93,6.43,6.43,0,0,0,.81,2.41,3.38,3.38,0,0,0-.46,1.65,2.41,2.41,0,0,0,2.26,2.35,4.74,4.74,0,0,0,.71,1.67,4.89,4.89,0,0,0,2.79,2.11c.16.22.31.43.47.63a6,6,0,0,0,2,1.77,5.15,5.15,0,0,0,.87.48c0,.15.07.3.11.45,1.43,3,5.07,3.72,8.1,3.25,2.64,1.36,6.53.58,9-1.38l.08-.07H130a10.31,10.31,0,0,0,3.41-1.39,3.26,3.26,0,0,0,1.55-1c.76-.73,1.35-1.61,2.06-2.39a27.13,27.13,0,0,0,3-4.12c.35-.48.71-.94,1-1.43.82-1.54,2.26-2.95,2.22-4.79a2.5,2.5,0,0,0-.07-.41,3.85,3.85,0,0,0,.23-1.13,2.83,2.83,0,0,0-.8-2.19c0-.13,0-.27,0-.4A5,5,0,0,0,143.18,469.08Z"/>
      <path d="M158.15,559.3c.07-.32.14-.64.2-1s.12-.74.16-1.13v-.05a9.94,9.94,0,0,0,.07-1.34c0-.41,0-.82,0-1.21s-.07-.79-.1-1.2c0-.75-.14-1.52-.17-2.25q-.4-3.27-.85-6.53h0c1.18-3-.66-12.27-3.7-14.21-.1-.24-.19-.48-.31-.72a1.79,1.79,0,0,0-.46-.49c0-.16-.1-.31-.15-.46a7.58,7.58,0,0,0-.55-3.73,25.1,25.1,0,0,0-2.48-5.61,16.65,16.65,0,0,0-2.09-4.33,3.06,3.06,0,0,0-.6-1.12,15.91,15.91,0,0,0-7.75-5.47,7.34,7.34,0,0,0-3.5-1.87,4.66,4.66,0,0,0-1.76.07,9.09,9.09,0,0,0-.78-.48,4.63,4.63,0,0,0-6.22-1.24,4.71,4.71,0,0,0-.52-.09,1.89,1.89,0,0,0-.42-.52,4.31,4.31,0,0,0-4.41-.05,3.17,3.17,0,0,0-.53,0c-1.31-.18-3.53.84-5.91,2.48a4.39,4.39,0,0,0-1.49.34,2.15,2.15,0,0,0-1.58.35,76.43,76.43,0,0,0-8,8.56l-.26,0c-1.55.41-2.48,2-3.6,3.08a39.27,39.27,0,0,0-7,9.79,19.43,19.43,0,0,0-1.56,4.57,2.92,2.92,0,0,0,0,1.58c-1.27.94-1.54,3-2.14,4.44-1.52,4.29-2.75,8.79-2.19,13.39a5.11,5.11,0,0,1,0,.55c0,.18-.06.36-.08.5a45.12,45.12,0,0,0-.12,8.85c.32,1.63.11,4.3,1.27,5.48A2.2,2.2,0,0,0,91.7,568a5.17,5.17,0,0,0,3.92,1,5.84,5.84,0,0,0,3,2.13,5.44,5.44,0,0,0,3.35.33,4,4,0,0,0,2.28.44,6.78,6.78,0,0,0,2.62-1.06,4.6,4.6,0,0,0,3.47.83,4.53,4.53,0,0,0,.53,0c.24,0,1.42.16,1.77.17a5.42,5.42,0,0,0,2.7-.63,18.35,18.35,0,0,0,2.35.25,8.08,8.08,0,0,0,3.32.45c1.59,0,3.18.1,4.77,0a3.75,3.75,0,0,0,2-.49,9.29,9.29,0,0,0,3.61-.59,2,2,0,0,0,1.57.53,70,70,0,0,0,8.31-1.93c.78,0,1.58-.15,2.37-.23l.16.13a2.94,2.94,0,0,0,2.59.37c.45-.1-.18,0-.37.07a9.51,9.51,0,0,0,2.55-.77,18.74,18.74,0,0,0,2.42-1,9.56,9.56,0,0,0,1.32-.57,3,3,0,0,0,.69-.49c.31-.19.61-.4.91-.61,0,0,0,0,0,.07a2.53,2.53,0,0,0,3.88.93,2,2,0,0,0,.86-.78C159.85,564.81,160,560.49,158.15,559.3Z"/>
      <path d="M120,488.92a6.33,6.33,0,0,0-1.87-.62,2.72,2.72,0,0,0-1.58-1.25,56.89,56.89,0,0,1-6.88-2.9,38.2,38.2,0,0,1-3.33-3.18,2.89,2.89,0,0,0-.62-1,2,2,0,0,0-.48-.81,2.2,2.2,0,0,0-3.61.45c-.45.88-.08,2,.74,3.29,0,.08.07.16.11.25a8.38,8.38,0,0,0,2.59,3.14l.75.72c2.43,2.86,5.71,5.73,9.56,6.17a8.38,8.38,0,0,0,3.21.26C121.3,493.54,122.6,490.26,120,488.92Z"/>
    </g>
    <g>
      <path d="M135.31,780.41c-23-7.95-39.77,14.17-48.24,32.62A44.82,44.82,0,0,0,83.4,830.7c0,4.94-.08,10,1.13,14.81.5,1.4.37,3.36,1.84,4.14A2.23,2.23,0,0,0,89.45,847c-2-5.5-1.81-15.72-1.46-20.74,1.12-8.26,3.75-13.35,8-20.57,13.67-25,40-32.89,54.78-4.18,3.47,6.9,6.22,18,6.73,27.3q.54,7.43.69,14.89a2.22,2.22,0,0,0,4.17.85C163,821.85,159.21,790.22,135.31,780.41Z"/>
      <path d="M159.23,842.47c-1.18-.62-2.3.15-3.31.74l-.26.14h0c-3,1.09-5.92,2.34-8.94,3.3a46,46,0,0,1-9.36,1.14c-9.74.52-19.52,1.45-29.28,1.05-4.3-.43-14.25-2.12-20.31-4.42-2.79-.58-3.74,3.71-.91,4.32a90.47,90.47,0,0,0,21.9,4.52c6,.32,12-.2,18-.4,6.58-.55,13.26-.42,19.75-1.64A65.26,65.26,0,0,0,159,846.52,2.22,2.22,0,0,0,159.23,842.47Z"/>
      <path d="M138.41,731.59c-9.75-5.22-23.11-3.63-31.42,3.66-10.19,9-11,23.47,1.26,31.1,2.35,1.76,2.45,1.69,4.77,3.31a2.19,2.19,0,0,0,1.27.53,1.92,1.92,0,0,0,.64,1c1.31,1,3.17.55,4.71.7a33,33,0,0,0,13-2.4,28.45,28.45,0,0,0,7.39-5.66C148.77,755,149.57,738.73,138.41,731.59Zm-7.68,34a33.21,33.21,0,0,1-13.19,1.87,6.59,6.59,0,0,0-1-.1,2,2,0,0,0-.65-1c-5.29-3.64-10.31-6.51-11.93-11.76-1.88-6.17,2.16-14.47,9.35-18.54,6.36-3.5,16.48-4.66,23.53-.23,2,1.08,5.59,6.9,5.5,10.9C142.54,754.26,138.52,761.18,130.73,765.6Z"/>
      <path d="M143.18,747.07c0-.08,0-.15,0-.23a4.35,4.35,0,0,0,.51-.74,7.47,7.47,0,0,0-.42-6c-1.13-1.26-.93-1.75-2.92-2.58a3.24,3.24,0,0,0-.76,0,2.87,2.87,0,0,0-1.56-.52,6.87,6.87,0,0,0-2.51-2,15.51,15.51,0,0,0-2.37-1.11,3.62,3.62,0,0,0-.62-1.06,3.27,3.27,0,0,0-.3-1c-.72-1.14-2.16-1.09-3.29-.68a17.14,17.14,0,0,1-4.64.75c-1.84.13-3.73,0-5.56.33a2.31,2.31,0,0,0-1.13.24l-.32.08a11.27,11.27,0,0,0-3.42,2.4,38.73,38.73,0,0,0-4.37,1c-2.85,1.16-4,3.93-4.81,6.79a9.59,9.59,0,0,0-1.13,2,7.8,7.8,0,0,0-.84,2.26,7.28,7.28,0,0,0-.9,3.54,2.34,2.34,0,0,0,1.15,1.94,6.38,6.38,0,0,0,.81,2.4,3.38,3.38,0,0,0-.46,1.65,2.41,2.41,0,0,0,2.26,2.35,4.74,4.74,0,0,0,.71,1.67,4.89,4.89,0,0,0,2.79,2.11c.16.22.31.43.47.63a6,6,0,0,0,2,1.77,5.15,5.15,0,0,0,.87.48c0,.15.07.31.11.45,1.43,3,5.07,3.72,8.1,3.25,2.64,1.36,6.53.58,9-1.38l.08-.07H130a10.51,10.51,0,0,0,3.41-1.38,3.36,3.36,0,0,0,1.55-1.05c.76-.72,1.35-1.61,2.06-2.39a27.13,27.13,0,0,0,3-4.12c.35-.47.71-.94,1-1.43.82-1.54,2.26-3,2.22-4.79a2.5,2.5,0,0,0-.07-.41,3.85,3.85,0,0,0,.23-1.13,2.81,2.81,0,0,0-.8-2.18c0-.14,0-.27,0-.41A5,5,0,0,0,143.18,747.07Z"/>
      <path d="M158.15,837.29c.07-.32.14-.64.2-1s.12-.74.16-1.13v0a10.18,10.18,0,0,0,.07-1.35c0-.41,0-.82,0-1.2s-.07-.8-.1-1.21c0-.75-.14-1.52-.17-2.25q-.4-3.27-.85-6.53h0c1.18-3.05-.66-12.27-3.7-14.21-.1-.24-.19-.48-.31-.72a1.79,1.79,0,0,0-.46-.49c0-.15-.1-.31-.15-.46a7.58,7.58,0,0,0-.55-3.73,25,25,0,0,0-2.48-5.6,16.56,16.56,0,0,0-2.09-4.34,3,3,0,0,0-.6-1.11,15.86,15.86,0,0,0-7.75-5.48,7.34,7.34,0,0,0-3.5-1.87,4.66,4.66,0,0,0-1.76.07,9.09,9.09,0,0,0-.78-.48,4.63,4.63,0,0,0-6.22-1.24,4.71,4.71,0,0,0-.52-.09,1.71,1.71,0,0,0-.42-.51,4.29,4.29,0,0,0-4.41-.06,3.17,3.17,0,0,0-.53,0c-1.31-.18-3.53.84-5.91,2.48a4.39,4.39,0,0,0-1.49.34,2.15,2.15,0,0,0-1.58.35,77.31,77.31,0,0,0-8,8.56l-.26,0c-1.55.42-2.48,2-3.6,3.08a39.27,39.27,0,0,0-7,9.79,19.43,19.43,0,0,0-1.56,4.57,2.92,2.92,0,0,0,0,1.58c-1.27.94-1.54,3-2.14,4.44-1.52,4.3-2.75,8.79-2.19,13.39a5.11,5.11,0,0,1,0,.55c0,.19-.06.36-.08.5a45.13,45.13,0,0,0-.12,8.85c.32,1.64.11,4.3,1.27,5.48A2.2,2.2,0,0,0,91.7,846a5.12,5.12,0,0,0,3.92.95,5.84,5.84,0,0,0,3,2.13,5.37,5.37,0,0,0,3.35.33,4,4,0,0,0,2.28.44,6.61,6.61,0,0,0,2.62-1.05,4.64,4.64,0,0,0,3.47.82,3.07,3.07,0,0,0,.53,0c.24,0,1.42.16,1.77.17a5.52,5.52,0,0,0,2.7-.62,20.33,20.33,0,0,0,2.35.24,8.08,8.08,0,0,0,3.32.45c1.59,0,3.18.1,4.77,0a3.75,3.75,0,0,0,2-.49,9.29,9.29,0,0,0,3.61-.59,2,2,0,0,0,1.57.53,70,70,0,0,0,8.31-1.93c.78,0,1.58-.15,2.37-.23l.16.13a2.91,2.91,0,0,0,2.59.37l-.37.07a9.51,9.51,0,0,0,2.55-.77,20.25,20.25,0,0,0,2.42-1,11,11,0,0,0,1.32-.58,2.72,2.72,0,0,0,.69-.49c.31-.19.61-.4.91-.61,0,0,0,0,0,.07a2.53,2.53,0,0,0,3.88.93,2,2,0,0,0,.86-.77C159.85,842.8,160,838.49,158.15,837.29Z"/>
      <path d="M120,766.91a6.31,6.31,0,0,0-1.87-.61,2.74,2.74,0,0,0-1.58-1.26,56.89,56.89,0,0,1-6.88-2.9,38.2,38.2,0,0,1-3.33-3.18,2.85,2.85,0,0,0-.62-.94,2,2,0,0,0-.48-.82,2.2,2.2,0,0,0-3.61.45c-.45.88-.08,2.05.74,3.29,0,.08.07.16.11.25a8.38,8.38,0,0,0,2.59,3.14q.38.38.75.72c2.43,2.86,5.71,5.73,9.56,6.17a8.38,8.38,0,0,0,3.21.26C121.3,771.53,122.6,768.25,120,766.91Z"/>
    </g>
    <path d="M66.06,280.75c0-3.56,0-7.12.26-10.67.14-3.3.77-6.62.51-9.92-.25-1.37-1.61-2.75-3.08-2.36-2.35,1.31-4.06,4-6.08,5.8-1.28,1.33-2.59,2.64-3.94,3.9a2,2,0,1,0,2.83,2.83c2.16-2,4.17-4.15,6.21-6.27-.26,4.3-.77,8.6-.7,12.91,0,1.8,0,3.6,0,5.4a6.21,6.21,0,0,0,.61,3.24,2,2,0,0,0,3.9-.81,2.2,2.2,0,0,0-.45-1.27A26.25,26.25,0,0,1,66.06,280.75Z"/>
    <path d="M72.6,284.47c-1.18-1.09-2.94-.33-4.38-.39-3.37.25-6.74.5-10.1.87-.85.13-1.84,0-2.48.71a2,2,0,0,0,1.41,3.41c4.7-.55,9.42-.87,14.14-1.19A2,2,0,0,0,72.6,284.47Z"/>
    <path d="M67.44,568.08a68,68,0,0,0-7.06-.27c.74-1.08,1.44-2.17,2.23-3.21a40.3,40.3,0,0,0,3.06-3.72c1.57-2.65,3-5.55,3.28-8.67.1-4.39-3.61-7.45-7.55-8.5-1.63-.33-3.22.34-4.72.9a21.21,21.21,0,0,0-5.93,3.32,8.36,8.36,0,0,0-1.35,1.56,2.61,2.61,0,0,0-.79,2.37,2,2,0,0,0,3.66.47C53,550.27,58.6,548,60,547.65a2.06,2.06,0,0,1,.55,0,4.23,4.23,0,0,1,.55.17c.73.35,2.1,1.18,2.43,1.37a6.06,6.06,0,0,1,.44.43c.14.2.28.4.4.61a3.27,3.27,0,0,1,.5,1.39c0,2.43-1,4.7-3.19,8a47,47,0,0,0-5.11,6.71c-.1.41-1.35,1.15-1.66,2.6a2.24,2.24,0,0,0,1.62,2.35c2.34,1,5,.44,7.5.63a25.4,25.4,0,0,1,3.93.33c1.37.39,3,.44,3.44-1.21C72,568.49,69.2,568.28,67.44,568.08Z"/>
    <path d="M70.58,831a3.93,3.93,0,0,0-1.33-.76c2-1.83,3.33-5,1.55-7.34-3.15-4.14-11.73-5-16-2.35a2,2,0,0,0,2,3.46l1.48-.73a3.24,3.24,0,0,1,.4-.09c4.29-.39,7,.24,8.78,1.93a2.61,2.61,0,0,1,.17.28c0,.11,0,.22,0,.34v0c-1,1.71-.55,1.15-1.91,2.08l0,0c-2.12.62-4.55.86-6.23,2.45a2.31,2.31,0,0,0,1.25,3.95c3.81.48,5.65-.78,7.24-.28l.09.08a6.28,6.28,0,0,1,.74,1.14,11.51,11.51,0,0,1,1.58,7.09,3,3,0,0,1-.26.42,11.74,11.74,0,0,1-1,1l0,0-.16.11c-.4.41-4.06.67-7.2.59a21,21,0,0,1-2.37-.58l-.14-.06c-.18-.13-.12-.08,0,0h0a1.89,1.89,0,0,0-1.94-.23,2,2,0,0,0-.11,3.65c2.65,1.39,5.72,1.32,8.63,1.15a11.47,11.47,0,0,0,5.14-1c1.81-1.2,3.46-3.07,3.53-5.33A15.66,15.66,0,0,0,70.58,831Z"/>
    <path d="M685.23,478.1q-2.38-97-5.91-193.91-1.19-32.06-1.84-64.14-.16-6.74-.34-13.47a1,1,0,0,0-.29-.7,1,1,0,0,0-1.71.7c1.66,75.73,5,151.41,6.94,227.13.87,32.3,1.84,64.59,1.6,96.91.6,64.94-1.65,129.84-3.44,194.76-.68,34-2,68.06-1.68,102.11,0,11.1-.1,22.21.28,33.3.21,2.91-.05,6,.84,8.72a1,1,0,0,0,1.05.36c1-.39.68-1.32.54-2.16-.15-1-.35-3.73-.38-5.63-.38-10-.35-19.93-.33-29.91-.08-25.83.11-51.67,1.06-77.49.79-42.71,2.23-85.41,3.39-128.11C685.84,577.08,686.09,527.58,685.23,478.1Z"/>
    <path d="M761.34,465.21c1,35.71,1.41,71.44,2.29,107.15.94,37,1.07,74,.81,111-.17,51.45-4.22,102.8-4.46,154.25,0,10.88,0,21.76,0,32.64l-.06,1.89.76-.2c.41-.1.82-.18,1.24-.24,0-.48,0-1,.06-1.45,0-10.27,0-20.55,0-30.82.14-52.35,4.33-104.58,4.47-156.92.24-36.86.12-73.73-.83-110.58-.83-34.33-1.28-68.66-2.16-103-1.11-37-2.87-74-4.4-111-1.2-27.08-2.6-54.15-2.78-81.26-.13-17.7.38-35.4,1.65-53.05.19-5.07.93-10.17,1.11-15.19a1,1,0,0,0-1.18-.58,1,1,0,0,0-.74,1c-4.15,42.32-3,84.9-1,127.31C758,379.18,760,422.18,761.34,465.21Z"/>
    <path d="M758.11,206.21c-21.31-.13-42.59.5-63.91.32H675.55a1,1,0,0,0,0,2H725c11-.6,22.05-.22,33.07-.32A1,1,0,0,0,758.11,206.21Z"/>
    <path d="M758.68,869.62h-.14a15.06,15.06,0,0,1-3.63-.29c-5.61-.28-11.26.12-16.88-.19s-11-1-16.58-1.4c-3,0-6-.14-8.94-.38-3.75,0-7.51,0-11.26,0-6.61.12-13.23.22-19.82.75a1,1,0,0,0,0,2,350.11,350.11,0,0,1,41.61-.27,223.58,223.58,0,0,0,30.83,1.41,33,33,0,0,0,4.75.37,1.59,1.59,0,0,0,1.37-.43.91.91,0,0,0,.59-.56C761.06,869.39,759.41,868.81,758.68,869.62Z"/>
    <g>
      <path d="M217.44,739.73a1.5,1.5,0,0,0-2.54-1.6c-4.45,5.41-10.24,11.81-12.37,19.78-1.72,6.76-2.31,14.42.7,20.9a13,13,0,0,0,5.23,6.55,1.51,1.51,0,0,0,2.26-1.62c-.61-1.35-1.56-1.38-1.93-1.93C202,775.35,203.5,761,207.67,753,210.71,747.57,213.89,744.11,217.44,739.73Z"/>
      <path d="M225.26,770.92a10.14,10.14,0,0,1-2.48,1,5,5,0,0,1-4.5-.73c-.72-.79-.42-.36-.77-1l0-.08v-.09c0-1.16,2.74-5,4.75-6,.78-.28,1.78-.26,2.26-1a1.51,1.51,0,0,0-1.62-2.26c-3.86.78-6.68,4.34-8.13,7.83-1,2.46,1,5,3.21,5.86a8.39,8.39,0,0,0,6.8,0c1.05-.46,2.88-.88,2.7-2.36A1.49,1.49,0,0,0,225.26,770.92Z"/>
      <path d="M235.31,763a2.43,2.43,0,0,0-2.09.84,1.4,1.4,0,0,0-.21.95,11.63,11.63,0,0,0-1.14.85,7.15,7.15,0,0,0-3.13,4.72,4.54,4.54,0,0,0,1.79,3.82,7.12,7.12,0,0,0,5.37.74,6.12,6.12,0,0,0,4.21-4.39C241.16,766.89,239.46,763.09,235.31,763Zm2.06,5.94a4.5,4.5,0,0,1-.68,2,4.29,4.29,0,0,1-1.36,1l-.13.06a4.11,4.11,0,0,1-.6.17h0a4.81,4.81,0,0,1-2.36-.47l0,0-.17-.17h0a1.84,1.84,0,0,1-.27-.93c0-.2,0-.4.66-1.34a8.78,8.78,0,0,1,4-2.73l.24-.09C237.16,766.74,237.47,767.32,237.37,769Z"/>
      <path d="M252.54,766.14a4.89,4.89,0,0,0-5.45-2.19c-.89.34-2,.95-2.06,2a1,1,0,0,0,0,.24c-2.3,2.14-4.15,5.89-2.77,8.59,2.11,2.7,6.3,1.13,8.47-.74C253.07,772.25,253.41,768.79,252.54,766.14Zm-5.33,6.68-.33.14c-.32.16-1.68.31-.78.21a5.29,5.29,0,0,1-1.13,0l-.13,0a2,2,0,0,1-.05-.24,4,4,0,0,1,.56-2.09c.21-.53,1.46-2.6,2.58-3.06a1.38,1.38,0,0,0,.73-.92l.29.07c1.09.52.89,0,1,2C249.81,771.25,249.57,771.4,247.21,772.82Z"/>
      <path d="M263.65,761.7A12,12,0,0,0,258,767l-.06-2.15c-.13-2.43-.22-4.86-.41-7.29a1.46,1.46,0,0,0-.4-1.07,1.52,1.52,0,0,0-2.6,1c.38,5.7.66,11.41.47,17.12h0a1.51,1.51,0,0,0,.86,1.4,1.49,1.49,0,0,0,1.89-.56,2.42,2.42,0,0,0,.23-.75h0v0a15.4,15.4,0,0,1,.6-2c1.22-3.31,3.17-6.82,5.92-8.13a2.66,2.66,0,0,1,.42-.09,1.45,1.45,0,0,0,1.05-.68C266.82,762.25,265.11,761,263.65,761.7Z"/>
      <path d="M266.22,772.16q-2.21-2.46-4.38-4.95a1.53,1.53,0,0,0-1-.47,1.51,1.51,0,0,0-1.14,2.53q1.73,2,3.47,3.92c.58.58,1,1.49,2,1.5A1.52,1.52,0,0,0,266.22,772.16Z"/>
      <path d="M274.62,771a38.58,38.58,0,0,1-.09-4.3c-.13-1.26.5-2.8-.32-3.88a1.51,1.51,0,0,0-2.59,1,60.55,60.55,0,0,0,0,7.62c0,1.3.26,2.79,1.95,2.51C275,773.65,274.74,772.13,274.62,771Z"/>
      <path d="M272.26,759a1.5,1.5,0,0,0-.1,3A1.5,1.5,0,0,0,272.26,759Z"/>
      <path d="M287.1,770.65c-2.82,2.14-4.54,1.61-6.41,1-.66-.2-1-1.4-1-2.34a1.29,1.29,0,0,0,.78,0,18.13,18.13,0,0,0,5.23-2.73A5.78,5.78,0,0,0,288,764a3.12,3.12,0,0,0-3.12-3.79,6.62,6.62,0,0,0-3.93,1.74c-3.39,2.52-5.9,7.33-3.07,11.17a5,5,0,0,0,3,1.72,8.39,8.39,0,0,0,4.39.11,12.68,12.68,0,0,0,3.21-1.65,1.46,1.46,0,0,0,.71-.87A1.51,1.51,0,0,0,287.1,770.65Zm-2.64-7.38.25-.06H285a5.23,5.23,0,0,1-.5.48,8.83,8.83,0,0,1-1,.75,17.41,17.41,0,0,1-2.23,1.29l.28-.3A8.22,8.22,0,0,1,284.46,763.27Z"/>
      <path d="M295.07,767.86a1.5,1.5,0,0,0-.1,3A1.5,1.5,0,0,0,295.07,767.86Z"/>
      <path d="M295.27,761.75a1.5,1.5,0,0,0-.1,3A1.5,1.5,0,0,0,295.27,761.75Z"/>
      <path d="M326.72,754.23a2.8,2.8,0,0,0-2.22.22,1.09,1.09,0,0,0-.26.22,9.85,9.85,0,0,0-2.36-.07c-5.43.55-8.25,6.24-10.13,10.74-3.79,9.38,2.34,14.24,11.4,14.13,6.86-.17,11.77-7.1,12-13.56C335,760.81,332.14,755.19,326.72,754.23Zm3.48,17.61c-2.21,3.37-4.38,4.74-8.17,4.64-3.78-.27-6.92-1.12-8.25-4.22-1.1-3.2,3.17-14.2,8.4-14.7a9.35,9.35,0,0,1,1.3,0,6,6,0,0,1,2.74,1,1.63,1.63,0,0,0,2.92,0C332.21,761.37,333.32,767.87,330.2,771.84Z"/>
      <path d="M352.11,773.58a18.14,18.14,0,0,1-3.05-4.43c-1.67-3.22-3.17-11.89-3.47-15.31a1.51,1.51,0,0,0-3-.32,68.49,68.49,0,0,1-3.4,11.37c-1.42,4.55-3.75,8.89-5,13.44a1.5,1.5,0,0,0,2.91.29c2.23-5.76,4.71-11.49,6.57-17.39.94,4.94,2.3,10,5.7,13.78,1.12,1.11,2.93,3.93,4.48,1.92C354.73,775.46,352.9,774.56,352.11,773.58Z"/>
      <path d="M346,768.86c-.82-.44-1.83-.14-2.73-.23a22.22,22.22,0,0,0-3.56,0,1.5,1.5,0,0,0,.48,2.89c1.65.06,3.31.09,5,.07A1.51,1.51,0,0,0,346,768.86Z"/>
      <path d="M370.14,757.05a1.52,1.52,0,0,0-1.94,1.39c.15,1.17.41.9.49,1.43a19,19,0,0,1-.33,3.17c0,.47-.27,2.39-.33,2.84-.72,4.14-4.17,7.82-6.2,7.75-2.48,0-1.38.38-3-1.19a6.72,6.72,0,0,1-1.36-3.31c0-.11,0-.28-.06-.42a47.41,47.41,0,0,1,.6-8.87l.05-.12a1.57,1.57,0,0,0,.16-1.1,1.51,1.51,0,0,0-2.73-.45c-.88,1.87-.78,4.06-1,6.09-.24,3.16-.38,6.58,1.46,9.33,1.09,1.7,2.71,3.25,4.88,3.08a8.91,8.91,0,0,0,7.73-4.62,16.51,16.51,0,0,0,2.69-8.57C371.56,761.41,372.44,758.25,370.14,757.05Z"/>
      <path d="M390.35,753.54a10.47,10.47,0,0,0-2.72.23c-.08,0-1.4.09-1.69.05-1.06,0-2.13-.06-3.19-.14a84.64,84.64,0,0,0-9.94-.52,28.14,28.14,0,0,0-3.05.32h-.1l-.09,0h-.05a1.5,1.5,0,0,0,.7,2.91l.12,0a5.71,5.71,0,0,1,1.17.08c5,.36,6.61,4.08,7,9.34,0,1.63-.07,3.26-.17,4.89l-.24,4a2.09,2.09,0,0,0,.61,1.75,1.49,1.49,0,0,0,2.1-.2,5.51,5.51,0,0,0,.61-2.87c.09-2.31.18-4.62.14-6.94,0-.3,0-.61,0-.92.09-3,.19-6,0-8.9a36.27,36.27,0,0,0,8.73-.17A1.51,1.51,0,0,0,390.35,753.54Z"/>
      <path d="M413.72,774.58a16.22,16.22,0,0,1-.53-3.45c0-4.22.29-9.53.72-13.94a26.84,26.84,0,0,0,.9-6.47,1.5,1.5,0,0,0-1.84-1.36c-1.29.32-1.24,1.87-1.48,2.93-.26,1.49-.43,3-.56,4.5-.13.57-.28,1.19-.44,1.91-.65,3-2.29,4.85-3.37,5.24-2.87,1-8.26-1.41-10.64,2.75a73,73,0,0,1,.52-8l0-.12a1.43,1.43,0,0,0,.08-2.08,1.67,1.67,0,0,0-2.77.76c-.56,1.25-.43,2.67-.64,4-.26,5.07-.49,10.26.4,15.27a1.55,1.55,0,0,0,2.7.87c.59-.74.34-1.81.52-2.69a18.23,18.23,0,0,1,2.06-6.94c.76-.55,1-.73,3-.63,2.58.17,5.7.44,7.65-1.59.11-.09.19-.19.29-.28-.31,4.35-.57,10.35,1.54,11.38a1.51,1.51,0,0,0,1.84-2Z"/>
      <path d="M432.37,766c-3.36.3-6.79.3-10.12.57a1.5,1.5,0,0,0,.48,2.89c2.5,0,5-.18,7.48-.33,1-.18,2.28.16,3.13-.54A1.51,1.51,0,0,0,432.37,766Z"/>
      <path d="M432.63,760.64c-1.38-.51-3-.34-4.44-.5a58.09,58.09,0,0,0-7-.14,1.5,1.5,0,0,0,.48,2.89c2.52.08,5,.16,7.54.3,1,0,2.13.39,3.13.11A1.5,1.5,0,0,0,432.63,760.64Z"/>
      <g>
        <path d="M442.93,768.72l.06,0Z" style="fill: #db003b"/>
        <path d="M443,768.76l.1.06C443.3,768.89,443.15,768.82,443,768.76Z" style="fill: #db003b"/>
        <path d="M450.81,754.27c-3.22.19-10.18,2.53-8.45,6.81.8,1.75,2.74,2.32,4.22,3.33l.24.25,0,0h0c-.87.56-2.63.62-3.63.82a1.69,1.69,0,0,0-.19,3.24,6.73,6.73,0,0,0,2.54.58h0l.28.08a.57.57,0,0,1,0,.14l0,0c-1.17,1.87-2.9,3.48-3.37,5.71-.33,1.59-.29,3.66,1.24,4.6,1.35.76,5.2,1.71,5.37-.65a1.52,1.52,0,0,0-1.45-1.55,5.55,5.55,0,0,1-1.39-.06,4.11,4.11,0,0,1-.85-.23h0l-.05,0c-.06-.57-.24-2,1.62-4.21s2.66-4.49,1.27-5.81a3,3,0,0,0,1.7-3c-.37-2.27-2.74-3-4.41-4.1a1.9,1.9,0,0,1-.25-.24,1.71,1.71,0,0,1-.13-.23c.51-1.13,3.79-2.35,6.21-2.62A1.5,1.5,0,0,0,450.81,754.27Z" style="fill: #db003b"/>
        <path d="M443,768.76h0Z" style="fill: #db003b"/>
      </g>
      <path d="M461.14,767c1.24-1.24,2.14-1.32,3.94-2.68a1.5,1.5,0,0,0-1.86-2.27c-2.56,1.37-7.93,4.42-4.51,7.62,1.51,1.22,2.2,1.53,2.71,2.46,0,.1.05.2.07.3,0,.26,0,.67,0,.88a.56.56,0,0,1,0,.12,1.82,1.82,0,0,1-.15.23,6.24,6.24,0,0,1-4.41,1.77,1.28,1.28,0,0,0-.28-.29c-1.32-1.09-2.85.44-2.43,1.9.43,1.66,2.42,1.51,3.77,1.27a8.08,8.08,0,0,0,6-3.2,5,5,0,0,0,.25-4.18c-.56-1.55-3.27-3.31-3.46-3.47l0,0A5.63,5.63,0,0,1,461.14,767Z" style="fill: #db003b"/>
      <path d="M476.65,776.27a1.53,1.53,0,0,0-2.6-.89l-.28.14c-1.57-.32-2.23-.41-1.88-3.35.26-3.39,1.51-7.51,2.18-11.84a1.5,1.5,0,0,0-2.91-.29c-.66,3-1.31,6-1.85,9-.38,2.76-1.4,6.38,1.23,8.35,1.41,1,3.42,1.6,5,.59C476.14,777.65,476.81,777.07,476.65,776.27Z" style="fill: #db003b"/>
      <path d="M475.46,765.54c-2.4.21-4.81.47-7.22.62-.78.1-1.71-.13-2.34.47a1.51,1.51,0,0,0,1,2.59c3-.19,6.09-.37,9.07-.79A1.5,1.5,0,0,0,475.46,765.54Z" style="fill: #db003b"/>
      <path d="M490.87,774.28a2.57,2.57,0,0,1-.44.11h-.09a2.73,2.73,0,0,1-.57,0l-.21-.06h0a3.67,3.67,0,0,1-.26-.48,3.78,3.78,0,0,1-.13-.57c0-.08,0-.14,0-.18a.54.54,0,0,1,0-.18c.68-2.17,1.33-5.31-1-5.2a1.71,1.71,0,0,0-1.43,1.39,5.13,5.13,0,0,0-4.53.31c-3.52,2.7-3,9,2.31,8.64a3.78,3.78,0,0,0,3-1.6,3.34,3.34,0,0,0,2.37,1c.91,0,2.09,0,2.64-.85A1.51,1.51,0,0,0,490.87,774.28Zm-6.11.66-.33.08c-.13,0-.41,0-.64,0a2.27,2.27,0,0,1-.43-.13h0a2.53,2.53,0,0,1-.27-.18c-.22-.69-.36-.33.13-1.94a1.93,1.93,0,0,1,.54-.84l.21-.1a3.75,3.75,0,0,1,.58-.13c.16,0,.46,0,.7,0l.16,0a1.92,1.92,0,0,0,.75.72v.06A6,6,0,0,1,484.76,774.94Z" style="fill: #db003b"/>
      <path d="M500.62,774.32c-1.36.18-1.1.65-1.81.9a1.25,1.25,0,0,1-.26.07h-.26l-.25,0-.16,0c-.26-.14-.19-.11-.65-.7l-.08-.14c0-.12-.07-.25-.09-.37a29.27,29.27,0,0,1,.38-4.69c0-.11,1.17-4.28,1.52-6.21a1.32,1.32,0,0,0,.5-1.06,1.52,1.52,0,0,0-2.71-1.23c-1,1.43-.56,1.8-1,2.88a36.23,36.23,0,0,0-1.73,10.06,4.37,4.37,0,0,0,7.55,3.15A1.52,1.52,0,0,0,500.62,774.32Z" style="fill: #db003b"/>
      <path d="M502.53,766.23c-.42-1.61-2.2-1.05-3.39-.82-2.17.34-4.35.62-6.54.87a1.5,1.5,0,0,0,.71,2.92c2.4-.28,4.81-.57,7.19-1C501.63,768.14,502.82,767.56,502.53,766.23Z" style="fill: #db003b"/>
      <path d="M509,765a8.2,8.2,0,0,0-4.61,7.94c0,4.21,3.75,5.82,7.47,5.24a3.86,3.86,0,0,0,1.59-.51,1.49,1.49,0,0,0-.08-2.47,1.87,1.87,0,0,0-1.71,0,3.93,3.93,0,0,1-1.43.08c-2.36,0-2.67-.91-2.84-2.18,0-.46,0-.83,0-1.13a1.23,1.23,0,0,0,.39.07,15.38,15.38,0,0,0,5.6-.61,4.53,4.53,0,0,0,2.9-2C518.06,765.15,512.11,763,509,765Zm-.38,4.05c2-2,3.86-2.23,4.9-1.31,0,.06.07.13.11.2v0l-.06.1-.09.08-.41.23c-.18,0-1.23.38-1.52.41A9.45,9.45,0,0,1,508.62,769.09Z" style="fill: #db003b"/>
      <path d="M516.39,776.68c-.69,2.07-1.57,4.07-2.42,6.09-.41.92-1.16,2.19-.11,3a1.49,1.49,0,0,0,2-.06,7.79,7.79,0,0,0,.95-1.89c.86-2.06,1.77-4.1,2.48-6.22A1.5,1.5,0,0,0,516.39,776.68Z" style="fill: #db003b"/>
      <path d="M564.79,763.45a2.32,2.32,0,0,0-1.79-.51,8,8,0,0,0-2,.07,6.11,6.11,0,0,1-2-.51.61.61,0,0,0,.07-.14,11.19,11.19,0,0,1,.68-1c1.61-1.58,4.41-3.26,2.93-5.86a5.25,5.25,0,0,0-5.07-2.28,6.43,6.43,0,0,0-3.88,1.3,1.5,1.5,0,0,0,2,2.19,5.7,5.7,0,0,1,3.26-.44,2.14,2.14,0,0,1,1,.7c-.41.62-2.23,1.79-3.06,3.11-1.85,2.37-1,4.09.72,5.06a4.67,4.67,0,0,0-.46,3.12c.35,2,1.75,3.57,2.65,5.35.71,1.71.47,3-1.3,4a4.33,4.33,0,0,1-3.4.3,2.17,2.17,0,0,0-.84-.38,1.33,1.33,0,0,0-1.12.26,1.51,1.51,0,0,0,.07,2.48,6.37,6.37,0,0,0,4.63.72c3.24-.58,6.18-3.77,5.15-7.18-.61-2.68-3.23-5.6-2.93-6.35,0-.77.11-1.24.86-1.45l.51,0a6.23,6.23,0,0,0,2.91-.29A1.52,1.52,0,0,0,564.79,763.45Z" style="fill: #db003b"/>
      <path d="M572.72,747.93a70,70,0,0,0-4.7-7.74,1.45,1.45,0,0,0-.87-.72,1.52,1.52,0,0,0-1.77,2.15c5.56,7.9,9.9,18.11,11,25.84.72,6-1.88,12.6-3.68,17.19a32.49,32.49,0,0,1-2.31,3.61,1.55,1.55,0,0,0-.19,1.15,1.51,1.51,0,0,0,2.73.44,24.5,24.5,0,0,0,4.2-8.63,34.23,34.23,0,0,0,2.27-9.5C580,763.35,576.28,755.31,572.72,747.93Z"/>
      <path d="M529.6,777.21a1.51,1.51,0,0,0-2.16-.78,1.7,1.7,0,0,0-.17,2.65A1.5,1.5,0,0,0,529.6,777.21Z" style="fill: #db003b"/>
      <path d="M535.2,776.18a1.7,1.7,0,0,0-1.24,2.48,1.43,1.43,0,0,0,.44,1.12,1.93,1.93,0,0,0,3.26-.84C538,777.53,536.7,775.8,535.2,776.18Z" style="fill: #db003b"/>
      <path d="M546.68,776.8a1.88,1.88,0,0,0-2.33-1.26,3.84,3.84,0,0,0-2.09,1.56,1.44,1.44,0,0,0,.89,2C544.59,780.89,547.27,778.94,546.68,776.8Z" style="fill: #db003b"/>
    </g>
  </g>
</svg>
